<?xml version="1.0" standalone="no"?>
<!DOCTYPE svg PUBLIC "-//W3C//DTD SVG 1.1//EN" "http://www.w3.org/Graphics/SVG/1.1/DTD/svg11.dtd" >
<svg xmlns="http://www.w3.org/2000/svg" xmlns:xlink="http://www.w3.org/1999/xlink" version="1.1">
<metadata>
Created by FontForge 20190801 at Thu Jul 16 16:32:32 2020
 By Jimmy Wärting
Copyright 2019 The Kufam Project Authors (https://github.com/originaltype/kufam)
</metadata>
<defs>
<font id="Kufam-Regular" horiz-adv-x="616" >
  <font-face 
    font-family="Kufam"
    font-weight="400"
    font-stretch="normal"
    units-per-em="1000"
    panose-1="0 0 0 0 0 0 0 0 0 0"
    ascent="800"
    descent="-200"
    x-height="544"
    cap-height="720"
    bbox="-196 -1008 1860 1228"
    underline-thickness="50"
    underline-position="-125"
    unicode-range="U+000D-FE7F"
  />
<missing-glyph horiz-adv-x="856" 
d="M96 720h664v-720h-664v720zM168 64h520v592h-520v-592zM294 538l133 -133l133 133l45 -45l-133 -133l133 -133l-45 -45l-133 133l-133 -133l-45 45l133 133l-133 133z" />
    <glyph glyph-name="f_f" unicode="ff" horiz-adv-x="672" 
d="M100 0v576q0 56 21 97t63 64t104 23q12 0 27.5 -1.5t30.5 -6.5v-80h-8q-27 8 -50 8q-55 0 -75.5 -26.5t-20.5 -77.5v-576h-92zM16 464v80h456v-80h-456zM436 0v544q0 72 21.5 120t65 72t109.5 24q24 0 42.5 -3t33.5 -9v-80h-8q-15 6 -29.5 9t-38.5 3q-61 0 -82.5 -32.5
t-21.5 -103.5v-544h-92zM352 464v80h328v-80h-328z" />
    <glyph glyph-name="fi" unicode="fi" horiz-adv-x="618" 
d="M432 0v544h92v-544h-92zM476 640q-25 0 -42.5 16.5t-17.5 43.5t17.5 43.5t42.5 16.5q26 0 43 -16.5t17 -43.5t-17 -43.5t-43 -16.5zM100 0v576q0 56 21 97t63 64t104 23q12 0 27.5 -1.5t30.5 -6.5v-80h-8q-27 8 -50 8q-55 0 -75.5 -26.5t-20.5 -77.5v-576h-92zM16 464v80
h456v-80h-456z" />
    <glyph glyph-name="fl" unicode="fl" horiz-adv-x="620" 
d="M100 0v576q0 56 21 97t63 64t104 23q12 0 27.5 -1.5t30.5 -6.5v-80h-8q-27 8 -50 8q-55 0 -75.5 -26.5t-20.5 -77.5v-576h-92zM16 464v80h296v-80h-296zM432 0v588q0 20 -0.5 52t-2 63t-5.5 49l2 8h98v-760h-92z" />
    <glyph glyph-name="f_f_i" unicode="ffi" horiz-adv-x="954" 
d="M100 0v576q0 56 21 97t63 64t104 23q12 0 27.5 -1.5t30.5 -6.5v-80h-8q-27 8 -50 8q-55 0 -75.5 -26.5t-20.5 -77.5v-576h-92zM16 464v80h456v-80h-456zM768 0v544h92v-544h-92zM812 640q-25 0 -42.5 16.5t-17.5 43.5t17.5 43.5t42.5 16.5q26 0 43 -16.5t17 -43.5
t-17 -43.5t-43 -16.5zM436 0v576q0 56 21 97t63 64t104 23q12 0 27.5 -1.5t30.5 -6.5v-80h-8q-27 8 -50 8q-55 0 -75.5 -26.5t-20.5 -77.5v-576h-92zM352 464v80h456v-80h-456z" />
    <glyph glyph-name="f_f_l" unicode="ffl" horiz-adv-x="956" 
d="M100 0v576q0 56 21 97t63 64t104 23q12 0 27.5 -1.5t30.5 -6.5v-80h-8q-27 8 -50 8q-55 0 -75.5 -26.5t-20.5 -77.5v-576h-92zM16 464v80h456v-80h-456zM436 0v576q0 56 21 97t63 64t104 23q12 0 27.5 -1.5t30.5 -6.5v-80h-8q-27 8 -50 8q-55 0 -75.5 -26.5t-20.5 -77.5
v-576h-92zM352 464v80h296v-80h-296zM768 0v588q0 20 -0.5 52t-2 63t-5.5 49l2 8h98v-760h-92z" />
    <glyph glyph-name="uni06D5.fina" unicode="&#x6d5;" horiz-adv-x="642" 
d="M622 0q-64 0 -109 24t-74 68.5t-44 106t-19 136.5l13 -33q-22 -2 -59 -13t-82.5 -27.5t-92.5 -37t-88 -42.5h-8l-19 82q49 27 108.5 52t118 44.5t104.5 29.5l74 -60q15 -96 41 -149.5t64.5 -74.5t91.5 -21v-65z" />
    <glyph glyph-name="uniFECB" unicode="&#x639;" horiz-adv-x="576" arabic-form="initial" 
d="M-20 0v65l20 20h220l-33 -35q-25 13 -48 30.5t-37 45.5t-14 70t18.5 83.5t55.5 84t91.5 87.5t126.5 93h8l32 -76q-93 -65 -146.5 -111.5t-75.5 -84.5t-22 -78q0 -49 40.5 -79t95.5 -30h224v-8l-28 -77h-528z" />
    <glyph glyph-name="uniFECC" unicode="&#x639;" horiz-adv-x="648" arabic-form="medial" 
d="M0 85h220l7 -45l-67 164q-7 18 -20.5 48t-29.5 62.5t-31.5 60t-26.5 41.5v8q32 23 79 44t101.5 34.5t107.5 13.5q75 0 127.5 -28t80.5 -76t28 -108q0 -43 -19.5 -90t-52.5 -86t-72 -60l-18 17h258v-65l-20 -20h-672v65zM317 46l-32 23q48 16 93.5 43.5t75.5 69.5t30 102
q0 66 -41 109t-119 43q-56 0 -101 -16.5t-79 -32.5l16 24q18 -27 30.5 -53t26 -58.5t31.5 -79.5z" />
    <glyph glyph-name="uniFECA" unicode="&#x639;" horiz-adv-x="664" arabic-form="final" 
d="M239 40l-67 164q-7 18 -20.5 48t-29.5 62.5t-31.5 60t-26.5 41.5v8q32 23 79 44t101.5 34.5t107.5 13.5q75 0 127.5 -28t80.5 -76t28 -108q0 -42 -19.5 -88t-52.5 -84.5t-72 -58.5l-18 12h258v-65l-20 -20h-387q-67 0 -111.5 -18t-66.5 -46.5t-24 -61.5l-13 42
q17 -53 72.5 -70t146.5 -17h163v-8l-28 -77h-180q-65 0 -115.5 18t-79 52.5t-28.5 85.5q0 29 14.5 60.5t47.5 58.5t87.5 44t134.5 17zM329 46l-32 33q29 1 63 16t65 42t51 64.5t20 82.5q0 66 -41 109t-119 43q-56 0 -101 -16.5t-79 -32.5l16 24q18 -27 30.5 -53t26 -58.5
t31.5 -79.5z" />
    <glyph glyph-name="uni06A0.init" unicode="&#x6a0;" horiz-adv-x="576" 
d="M-20 0v65l20 20h220l-33 -35q-25 13 -48 30.5t-37 45.5t-14 70t18.5 83.5t55.5 84t91.5 87.5t126.5 93h8l32 -76q-93 -65 -146.5 -111.5t-75.5 -84.5t-22 -78q0 -49 40.5 -79t95.5 -30h224v-8l-28 -77h-528zM191 656q-23 0 -38.5 15t-15.5 39t15.5 39t38.5 15t38.5 -15
t15.5 -39t-15.5 -39t-38.5 -15zM272 544q-23 0 -38.5 15t-15.5 39t15.5 39t38.5 15t38.5 -15t15.5 -39t-15.5 -39t-38.5 -15zM141 528q-23 0 -38.5 15t-15.5 39t15.5 39t38.5 15t38.5 -15t15.5 -39t-15.5 -39t-38.5 -15z" />
    <glyph glyph-name="uni06A0.medi" unicode="&#x6a0;" horiz-adv-x="648" 
d="M0 85h220l7 -45l-67 164q-7 18 -20.5 48t-29.5 62.5t-31.5 60t-26.5 41.5v8q32 23 79 44t101.5 34.5t107.5 13.5q75 0 127.5 -28t80.5 -76t28 -108q0 -43 -19.5 -90t-52.5 -86t-72 -60l-18 17h258v-65l-20 -20h-672v65zM317 46l-32 23q48 16 93.5 43.5t75.5 69.5t30 102
q0 66 -41 109t-119 43q-56 0 -101 -16.5t-79 -32.5l16 24q18 -27 30.5 -53t26 -58.5t31.5 -79.5zM291 724q-23 0 -38.5 15t-15.5 39t15.5 39t38.5 15t38.5 -15t15.5 -39t-15.5 -39t-38.5 -15zM372 612q-23 0 -38.5 15t-15.5 39t15.5 39t38.5 15t38.5 -15t15.5 -39t-15.5 -39
t-38.5 -15zM241 596q-23 0 -38.5 15t-15.5 39t15.5 39t38.5 15t38.5 -15t15.5 -39t-15.5 -39t-38.5 -15z" />
    <glyph glyph-name="uni06A0.fina" unicode="&#x6a0;" horiz-adv-x="664" 
d="M239 40l-67 164q-7 18 -20.5 48t-29.5 62.5t-31.5 60t-26.5 41.5v8q32 23 79 44t101.5 34.5t107.5 13.5q75 0 127.5 -28t80.5 -76t28 -108q0 -42 -19.5 -88t-52.5 -84.5t-72 -58.5l-18 12h258v-65l-20 -20h-387q-67 0 -111.5 -18t-66.5 -46.5t-24 -61.5l-13 42
q17 -53 72.5 -70t146.5 -17h163v-8l-28 -77h-180q-65 0 -115.5 18t-79 52.5t-28.5 85.5q0 29 14.5 60.5t47.5 58.5t87.5 44t134.5 17zM329 46l-32 33q29 1 63 16t65 42t51 64.5t20 82.5q0 66 -41 109t-119 43q-56 0 -101 -16.5t-79 -32.5l16 24q18 -27 30.5 -53t26 -58.5
t31.5 -79.5zM335 730q-23 0 -38.5 15t-15.5 39t15.5 39t38.5 15t38.5 -15t15.5 -39t-15.5 -39t-38.5 -15zM416 618q-23 0 -38.5 15t-15.5 39t15.5 39t38.5 15t38.5 -15t15.5 -39t-15.5 -39t-38.5 -15zM285 602q-23 0 -38.5 15t-15.5 39t15.5 39t38.5 15t38.5 -15t15.5 -39
t-15.5 -39t-38.5 -15z" />
    <glyph glyph-name="uniFE8E" unicode="&#x627;" horiz-adv-x="336" arabic-form="final" 
d="M158 0v85h178v-65l-20 -20h-158zM96 748l100 12v-8q-4 -18 -5.5 -45t-2 -55t-0.5 -48v-604h-92v748z" />
    <glyph glyph-name="uniFE84" unicode="&#x623;" horiz-adv-x="336" arabic-form="final" 
d="M158 0v85h178v-65l-20 -20h-158zM96 648l100 12v-8q-4 -18 -5.5 -45t-2 -55t-0.5 -48v-504h-92v648zM33 831q0 32 18 59t51.5 43.5t79.5 16.5h40v-8l-13 -62h-38q-37 0 -58 -16.5t-25 -45.5l-5 19q15 -27 39 -33t49 -6h49v-7l-11 -63h-54q-40 0 -67.5 15.5t-41 39
t-13.5 48.5z" />
    <glyph glyph-name="uniFE88" unicode="&#x625;" horiz-adv-x="336" arabic-form="final" 
d="M158 0v85h178v-65l-20 -20h-158zM96 748l100 12v-8q-4 -18 -5.5 -45t-2 -55t-0.5 -48v-604h-92v748zM28 -182q0 32 18 59t51.5 43.5t79.5 16.5h40v-8l-13 -62h-38q-37 0 -58 -16.5t-25 -45.5l-5 19q15 -27 39 -33t49 -6h49v-7l-11 -63h-54q-40 0 -67.5 15.5t-41 39
t-13.5 48.5z" />
    <glyph glyph-name="uniFE82" unicode="&#x622;" horiz-adv-x="336" arabic-form="final" 
d="M158 0v85h178v-65l-20 -20h-158zM96 648l100 12v-8q-4 -18 -5.5 -45t-2 -55t-0.5 -48v-504h-92v648zM197 720q-22 0 -42.5 10.5t-34.5 23t-17 18.5l57 -20q-30 -1 -58 -4.5t-53 -23.5h-6l-31 42q15 16 39.5 27.5t55.5 11.5q27 0 50 -13.5t37.5 -29t17.5 -21.5l-60 34h23
t39 5t41 21h6l31 -42q-15 -16 -39.5 -27.5t-55.5 -11.5z" />
    <glyph glyph-name="uniFBE8" unicode="&#x649;" horiz-adv-x="316" 
d="M-20 0v65l20 20h174l-34 -21q-4 14 -8 39.5t-4 56.5v332l84 12h8v-332q0 -20 0.5 -46t2 -51t5.5 -43v-8q-30 -12 -75.5 -18t-108.5 -6h-64z" />
    <glyph glyph-name="uniFBE9" unicode="&#x649;" horiz-adv-x="367" 
d="M0 85h173l-34 -21q-4 14 -8 39.5t-4 56.5v332l84 12h8v-457l-38 38h186v-65l-20 -20h-367v65z" />
    <glyph glyph-name="uniFEF0" unicode="&#x649;" horiz-adv-x="751" arabic-form="final" 
d="M731 0q-54 0 -87.5 22.5t-53.5 58t-36 72.5l-81 194l19 -11q-27 -3 -60.5 -16.5t-58 -35t-24.5 -48.5q0 -26 16 -55t40 -59t48 -58.5t40 -53t16 -42.5q0 -58 -39 -111.5t-112.5 -87t-176.5 -33.5q-65 0 -110 10t-68 20l-23 10l21 77h8q19 -6 44.5 -13.5t62.5 -13t89 -5.5
q87 0 151 36t99 94l-2 -36q-18 27 -49.5 64t-64.5 78t-55.5 83t-22.5 80q0 52 26.5 89.5t67 62.5t86 40.5t84.5 23.5h8l83 -209q19 -47 35 -78.5t39 -47.5t61 -16v-65z" />
    <glyph glyph-name="uniFC5D" unicode="&#xfc5d;" horiz-adv-x="689" arabic-form="isolated" 
d="M173 -264q-38 0 -74.5 6.5t-67 16t-51.5 17.5l21 82h8q19 -7 48 -16t67 -15t81 -6q58 0 113.5 19.5t98.5 50t63 63.5l-3 -40q-17 15 -47 36t-64 47t-64 56t-49.5 64t-19.5 71q0 60 37 110.5t96.5 91t126.5 70.5h8q24 -31 52 -66t56 -66t52 -52l-52 -64h-8
q-29 27 -57.5 55t-51.5 56.5t-38 54.5l17 -15q-2 -1 -18 -10t-38 -24t-43.5 -35t-36 -43t-14.5 -47q0 -28 22 -54.5t54 -51t64 -48t54 -45t22 -41.5q0 -40 -25 -80t-72.5 -73.5t-114.5 -54t-152 -20.5zM18 183l50 6l2 -8q-4 -18 -5.5 -44.5t-2 -54t-0.5 -47.5v-24h-44v172z
" />
    <glyph glyph-name="uniFC90" unicode="&#xfc90;" horiz-adv-x="751" arabic-form="final" 
d="M731 0q-54 0 -87.5 22.5t-53.5 58t-36 72.5l-81 194l19 -11q-27 -3 -60.5 -16.5t-58 -35t-24.5 -48.5q0 -26 16 -55t40 -59t48 -58.5t40 -53t16 -42.5q0 -58 -39 -111.5t-112.5 -87t-176.5 -33.5q-65 0 -110 10t-68 20l-23 10l21 77h8q19 -6 44.5 -13.5t62.5 -13t89 -5.5
q87 0 151 36t99 94l-2 -36q-18 27 -49.5 64t-64.5 78t-55.5 83t-22.5 80q0 52 26.5 89.5t67 62.5t86 40.5t84.5 23.5h8l83 -209q19 -47 35 -78.5t39 -47.5t61 -16v-65zM38 170l50 6l2 -8q-4 -18 -5.5 -44.5t-2 -54t-0.5 -47.5v-24h-44v172z" />
    <glyph glyph-name="uniFB51" unicode="&#x671;" horiz-adv-x="336" arabic-form="final" 
d="M158 0v85h178v-65l-20 -20h-158zM96 648l100 12v-8q-4 -18 -5.5 -45t-2 -55t-0.5 -48v-504h-92v648zM5 675l-41 38q20 26 43.5 46.5t54.5 20.5q16 0 29.5 -5t26 -11.5t23.5 -11.5l-14 -18q1 6 -3.5 17t-4.5 24q0 30 15 55t39 39.5t49 14.5q33 0 54 -20t21 -48
q0 -38 -22 -64t-54 -39.5t-64 -13.5q-38 0 -68.5 11t-60.5 36l54 1q-27 -10 -43.5 -31t-33.5 -41zM191 730l-52 22q53 -9 81.5 11.5t28.5 45.5q0 20 -21.5 27.5t-47.5 3.5l62 11q-40 -8 -56.5 -28t-16.5 -45q0 -19 6 -29.5t16 -18.5z" />
    <glyph glyph-name="uni0672.fina" unicode="&#x672;" horiz-adv-x="336" 
d="M158 0v85h178v-65l-20 -20h-158zM96 648l100 12v-8q-4 -18 -5.5 -45t-2 -55t-0.5 -48v-504h-92v648zM113 782l9 -60q-32 0 -43 -6t-11 -26h-69q0 40 17.5 66t62.5 26h34zM50 835q0 27 18 52t51.5 41t79.5 16h30v-8l-13 -62h-28q-24 0 -42 -7.5t-28 -21t-13 -33.5l-5 19
q15 -27 39 -33t49 -6h39v-7l-11 -63h-94l-14 39q-29 11 -43.5 30t-14.5 44z" />
    <glyph glyph-name="uni0673.fina" unicode="&#x673;" horiz-adv-x="336" 
d="M158 0v85h178v-65l-20 -20h-158zM96 748l100 12v-8q-4 -18 -5.5 -45t-2 -55t-0.5 -48v-604h-92v748zM103 -216l9 -60q-32 0 -43 -6t-11 -26h-69q0 40 17.5 66t62.5 26h34zM40 -163q0 27 18 52t51.5 41t79.5 16h30v-8l-13 -62h-28q-24 0 -42 -7.5t-28 -21t-13 -33.5l-5 19
q15 -27 39 -33t49 -6h39v-7l-11 -63h-94l-14 39q-29 11 -43.5 30t-14.5 44z" />
    <glyph glyph-name="uniFDF2" unicode="&#xfdf2;" horiz-adv-x="1342" arabic-form="isolated" 
d="M1154 748l100 12v-8q-4 -18 -5.5 -44.5t-2 -54.5t-0.5 -49v-604h-92v748zM692 85l-22 -21q-4 14 -8 39.5t-4 56.5v437l84 12h8v-567l-38 43h254l-34 -21q-4 14 -8 39.5t-4 56.5v509l84 12h8v-509q0 -20 0.5 -46t2 -51t5.5 -43v-8q-30 -12 -75.5 -18t-108.5 -6h-428v115
l-12 -12v429l84 12h8v-497l-38 38h242zM415 162l5 -71q-16 -19 -42.5 -40.5t-62 -36t-79.5 -14.5q-51 0 -91 22.5t-62.5 63t-22.5 95.5q0 28 7 58t28 62.5t63 66.5t112 69.5t174 72.5l-20 -90q-61 -24 -109 -46.5t-90 -47.5t-86 -59l34 37q-14 -28 -19.5 -53t-5.5 -51
q0 -57 34 -86t78 -29t83 24.5t72 52.5zM615 688q-20 0 -41 12t-34.5 40.5t-13.5 77.5v42l51 8h7v-37q0 -47 9.5 -69t25 -26.5t32.5 -2.5l-25 -14q12 13 17 43t5 71v20l51 8h7v-12q0 -28 -2.5 -49t-6.5 -37l-13 46q12 -26 27 -36t34.5 -10.5t42.5 0.5l-31 -11q3 7 8 23.5
t9 43t4 61.5v20l51 8h7v-12q0 -77 -15 -117.5t-38 -54.5t-48 -14q-23 0 -40 11t-23 19l19 2q-13 -33 -33 -43.5t-43 -10.5zM653 1086l50 6l2 -8q-4 -18 -5.5 -44.5t-2 -54t-0.5 -47.5v-24h-44v172z" />
    <glyph glyph-name="uniFB53" unicode="&#x67b;" horiz-adv-x="1184" arabic-form="final" 
d="M778 0v85h406v-65l-20 -20h-386zM66 150h8q11 -5 31 -12t40 -13t31 -10q53 -15 117.5 -21t126 -7.5t104.5 -1.5h462l-34 -21q-4 14 -8 39.5t-4 56.5v332l84 12h8v-332q0 -20 0.5 -46t2 -51t5.5 -43v-8q-30 -12 -79.5 -18t-112.5 -6h-324q-90 0 -179 5t-198 30
q-19 5 -37 10.5t-33.5 11.5t-28.5 12zM574 -145q-23 0 -38.5 15t-15.5 39t15.5 39t38.5 15t38.5 -15t15.5 -39t-15.5 -39t-38.5 -15zM574 -285q-23 0 -38.5 15t-15.5 39t15.5 39t38.5 15t38.5 -15t15.5 -39t-15.5 -39t-38.5 -15z" />
    <glyph glyph-name="uniFB54" unicode="&#x67b;" horiz-adv-x="316" arabic-form="initial" 
d="M-20 0v65l20 20h174l-34 -21q-4 14 -8 39.5t-4 56.5v332l84 12h8v-332q0 -20 0.5 -46t2 -51t5.5 -43v-8q-30 -12 -75.5 -18t-108.5 -6h-64zM152 -145q-23 0 -38.5 15t-15.5 39t15.5 39t38.5 15t38.5 -15t15.5 -39t-15.5 -39t-38.5 -15zM152 -285q-23 0 -38.5 15t-15.5 39
t15.5 39t38.5 15t38.5 -15t15.5 -39t-15.5 -39t-38.5 -15z" />
    <glyph glyph-name="uniFB55" unicode="&#x67b;" horiz-adv-x="367" arabic-form="medial" 
d="M0 85h173l-34 -21q-4 14 -8 39.5t-4 56.5v332l84 12h8v-457l-38 38h186v-65l-20 -20h-367v65zM171 -145q-23 0 -38.5 15t-15.5 39t15.5 39t38.5 15t38.5 -15t15.5 -39t-15.5 -39t-38.5 -15zM171 -285q-23 0 -38.5 15t-15.5 39t15.5 39t38.5 15t38.5 -15t15.5 -39
t-15.5 -39t-38.5 -15z" />
    <glyph glyph-name="uniFE91" unicode="&#x628;" horiz-adv-x="316" arabic-form="initial" 
d="M-20 0v65l20 20h174l-34 -21q-4 14 -8 39.5t-4 56.5v332l84 12h8v-332q0 -20 0.5 -46t2 -51t5.5 -43v-8q-30 -12 -75.5 -18t-108.5 -6h-64zM97 -162q0 24 15.5 39t38.5 15t38.5 -15t15.5 -39t-15.5 -39t-38.5 -15t-38.5 15t-15.5 39z" />
    <glyph glyph-name="uniFE92" unicode="&#x628;" horiz-adv-x="367" arabic-form="medial" 
d="M0 85h173l-34 -21q-4 14 -8 39.5t-4 56.5v332l84 12h8v-457l-38 38h186v-65l-20 -20h-367v65zM116 -162q0 24 15.5 39t38.5 15t38.5 -15t15.5 -39t-15.5 -39t-38.5 -15t-38.5 15t-15.5 39z" />
    <glyph glyph-name="uniFE90" unicode="&#x628;" horiz-adv-x="1184" arabic-form="final" 
d="M778 0v85h406v-65l-20 -20h-386zM66 150h8q11 -5 31 -12t40 -13t31 -10q53 -15 117.5 -21t126 -7.5t104.5 -1.5h462l-34 -21q-4 14 -8 39.5t-4 56.5v332l84 12h8v-332q0 -20 0.5 -46t2 -51t5.5 -43v-8q-30 -12 -79.5 -18t-112.5 -6h-324q-90 0 -179 5t-198 30
q-19 5 -37 10.5t-33.5 11.5t-28.5 12zM519 -162q0 24 15.5 39t38.5 15t38.5 -15t15.5 -39t-15.5 -39t-38.5 -15t-38.5 15t-15.5 39z" />
    <glyph glyph-name="uni066E.init" unicode="&#x66e;" horiz-adv-x="316" 
d="M-20 0v65l20 20h174l-34 -21q-4 14 -8 39.5t-4 56.5v332l84 12h8v-332q0 -20 0.5 -46t2 -51t5.5 -43v-8q-30 -12 -75.5 -18t-108.5 -6h-64z" />
    <glyph glyph-name="uni066E.medi" unicode="&#x66e;" horiz-adv-x="367" 
d="M0 85h173l-34 -21q-4 14 -8 39.5t-4 56.5v332l84 12h8v-457l-38 38h186v-65l-20 -20h-367v65z" />
    <glyph glyph-name="uni066E.fina" unicode="&#x66e;" horiz-adv-x="1184" 
d="M778 0v85h406v-65l-20 -20h-386zM66 150h8q11 -5 31 -12t40 -13t31 -10q53 -15 117.5 -21t126 -7.5t104.5 -1.5h462l-34 -21q-4 14 -8 39.5t-4 56.5v332l84 12h8v-332q0 -20 0.5 -46t2 -51t5.5 -43v-8q-30 -12 -79.5 -18t-112.5 -6h-324q-90 0 -179 5t-198 30
q-19 5 -37 10.5t-33.5 11.5t-28.5 12z" />
    <glyph glyph-name="uniFB5B" unicode="&#x680;" horiz-adv-x="1184" arabic-form="final" 
d="M778 0v85h406v-65l-20 -20h-386zM66 150h8q11 -5 31 -12t40 -13t31 -10q53 -15 117.5 -21t126 -7.5t104.5 -1.5h462l-34 -21q-4 14 -8 39.5t-4 56.5v332l84 12h8v-332q0 -20 0.5 -46t2 -51t5.5 -43v-8q-30 -12 -79.5 -18t-112.5 -6h-324q-90 0 -179 5t-198 30
q-19 5 -37 10.5t-33.5 11.5t-28.5 12zM585 -104q0 24 15.5 39t38.5 15t38.5 -15t15.5 -39t-15.5 -39t-38.5 -15t-38.5 15t-15.5 39zM454 -122q0 24 15.5 39t38.5 15t38.5 -15t15.5 -39t-15.5 -39t-38.5 -15t-38.5 15t-15.5 39zM617 -236q0 24 15.5 39t38.5 15t38.5 -15
t15.5 -39t-15.5 -39t-38.5 -15t-38.5 15t-15.5 39zM486 -254q0 24 15.5 39t38.5 15t38.5 -15t15.5 -39t-15.5 -39t-38.5 -15t-38.5 15t-15.5 39z" />
    <glyph glyph-name="uniFB5C" unicode="&#x680;" horiz-adv-x="316" arabic-form="initial" 
d="M-20 0v65l20 20h174l-34 -21q-4 14 -8 39.5t-4 56.5v332l84 12h8v-332q0 -20 0.5 -46t2 -51t5.5 -43v-8q-30 -12 -75.5 -18t-108.5 -6h-64zM163 -104q0 24 15.5 39t38.5 15t38.5 -15t15.5 -39t-15.5 -39t-38.5 -15t-38.5 15t-15.5 39zM32 -122q0 24 15.5 39t38.5 15
t38.5 -15t15.5 -39t-15.5 -39t-38.5 -15t-38.5 15t-15.5 39zM195 -236q0 24 15.5 39t38.5 15t38.5 -15t15.5 -39t-15.5 -39t-38.5 -15t-38.5 15t-15.5 39zM64 -254q0 24 15.5 39t38.5 15t38.5 -15t15.5 -39t-15.5 -39t-38.5 -15t-38.5 15t-15.5 39z" />
    <glyph glyph-name="uniFB5D" unicode="&#x680;" horiz-adv-x="367" arabic-form="medial" 
d="M0 85h173l-34 -21q-4 14 -8 39.5t-4 56.5v332l84 12h8v-457l-38 38h186v-65l-20 -20h-367v65zM182 -104q0 24 15.5 39t38.5 15t38.5 -15t15.5 -39t-15.5 -39t-38.5 -15t-38.5 15t-15.5 39zM51 -122q0 24 15.5 39t38.5 15t38.5 -15t15.5 -39t-15.5 -39t-38.5 -15t-38.5 15
t-15.5 39zM214 -236q0 24 15.5 39t38.5 15t38.5 -15t15.5 -39t-15.5 -39t-38.5 -15t-38.5 15t-15.5 39zM83 -254q0 24 15.5 39t38.5 15t38.5 -15t15.5 -39t-15.5 -39t-38.5 -15t-38.5 15t-15.5 39z" />
    <glyph glyph-name="uniFEBF" unicode="&#x636;" horiz-adv-x="1161" arabic-form="initial" 
d="M183 85h737q25 0 45 8t32 27.5t12 52.5q0 38 -21 85t-61 84l49 -20q-30 -6 -50.5 -8.5t-42.5 -3.5t-58 -1h-614l34 85h580q39 0 80.5 2t71.5 10h12q25 -23 50.5 -58.5t43.5 -78.5t18 -90q0 -39 -12 -71.5t-37 -57t-63 -37.5t-90 -13h-716v85zM0 85h173l-34 -21
q-4 14 -8 39.5t-4 56.5v268l84 12h8v-398l-38 43h186v-65l-20 -20h-367v65zM574 507q-23 0 -38.5 15t-15.5 39t15.5 39t38.5 15t38.5 -15t15.5 -39t-15.5 -39t-38.5 -15z" />
    <glyph glyph-name="uniFEC0" unicode="&#x636;" horiz-adv-x="1214" arabic-form="medial" 
d="M808 0v85h406v-65l-20 -20h-386zM183 85h727q38 0 63.5 19t25.5 69q0 38 -21 85t-61 84l49 -20q-30 -6 -50.5 -8.5t-42.5 -3.5t-58 -1h-604l34 85h570q39 0 80.5 2t71.5 10h12q25 -23 50.5 -58.5t43.5 -78.5t18 -90q0 -38 -10.5 -70t-32.5 -57l-36 -26q-23 -13 -54 -19.5
t-69 -6.5h-706v85zM0 85h173l-34 -21q-4 14 -8 39.5t-4 56.5v268l84 12h8v-398l-38 43h186v-65l-20 -20h-367v65zM574 507q-23 0 -38.5 15t-15.5 39t15.5 39t38.5 15t38.5 -15t15.5 -39t-15.5 -39t-38.5 -15z" />
    <glyph glyph-name="uniFEBE" unicode="&#x636;" horiz-adv-x="1446" arabic-form="final" 
d="M1040 0v85h406v-65l-20 -20h-386zM415 85h727q38 0 63.5 19t25.5 69q0 38 -21 85t-61 84l49 -20q-30 -6 -50.5 -8.5t-42.5 -3.5t-58 -1h-604l34 85h570q39 0 80.5 2t71.5 10h12q25 -23 50.5 -58.5t43.5 -78.5t18 -90q0 -38 -10.5 -70t-32.5 -57l-36 -26
q-23 -13 -54 -19.5t-69 -6.5h-706v85zM806 507q-23 0 -38.5 15t-15.5 39t15.5 39t38.5 15t38.5 -15t15.5 -39t-15.5 -39t-38.5 -15zM0 -68q37 -43 72 -66.5t71 -32t75 -8.5q28 0 60 10t66 37l-36 -40q21 34 34 76t19.5 95.5t6.5 120.5q0 51 -4 98t-11 97t-17 109l84 12h8
q12 -67 22 -145t10 -147q0 -103 -17 -180t-51 -127.5t-84.5 -75.5t-117.5 -25q-37 0 -70 10t-62 27t-52.5 38.5t-41.5 44.5l28 72h8z" />
    <glyph glyph-name="uni06FB.init" unicode="&#x6fb;" horiz-adv-x="1161" 
d="M183 85h737q25 0 45 8t32 27.5t12 52.5q0 38 -21 85t-61 84l49 -20q-30 -6 -50.5 -8.5t-42.5 -3.5t-58 -1h-614l34 85h580q39 0 80.5 2t71.5 10h12q25 -23 50.5 -58.5t43.5 -78.5t18 -90q0 -39 -12 -71.5t-37 -57t-63 -37.5t-90 -13h-716v85zM0 85h173l-34 -21
q-4 14 -8 39.5t-4 56.5v268l84 12h8v-398l-38 43h186v-65l-20 -20h-367v65zM574 507q-23 0 -38.5 15t-15.5 39t15.5 39t38.5 15t38.5 -15t15.5 -39t-15.5 -39t-38.5 -15zM520 -162q0 24 15.5 39t38.5 15t38.5 -15t15.5 -39t-15.5 -39t-38.5 -15t-38.5 15t-15.5 39z" />
    <glyph glyph-name="uni06FB.medi" unicode="&#x6fb;" horiz-adv-x="1214" 
d="M808 0v85h406v-65l-20 -20h-386zM183 85h727q38 0 63.5 19t25.5 69q0 38 -21 85t-61 84l49 -20q-30 -6 -50.5 -8.5t-42.5 -3.5t-58 -1h-604l34 85h570q39 0 80.5 2t71.5 10h12q25 -23 50.5 -58.5t43.5 -78.5t18 -90q0 -38 -10.5 -70t-32.5 -57l-36 -26q-23 -13 -54 -19.5
t-69 -6.5h-706v85zM0 85h173l-34 -21q-4 14 -8 39.5t-4 56.5v268l84 12h8v-398l-38 43h186v-65l-20 -20h-367v65zM574 507q-23 0 -38.5 15t-15.5 39t15.5 39t38.5 15t38.5 -15t15.5 -39t-15.5 -39t-38.5 -15zM520 -162q0 24 15.5 39t38.5 15t38.5 -15t15.5 -39t-15.5 -39
t-38.5 -15t-38.5 15t-15.5 39z" />
    <glyph glyph-name="uni06FB.fina" unicode="&#x6fb;" horiz-adv-x="1446" 
d="M1040 0v85h406v-65l-20 -20h-386zM415 85h727q38 0 63.5 19t25.5 69q0 38 -21 85t-61 84l49 -20q-30 -6 -50.5 -8.5t-42.5 -3.5t-58 -1h-604l34 85h570q39 0 80.5 2t71.5 10h12q25 -23 50.5 -58.5t43.5 -78.5t18 -90q0 -38 -10.5 -70t-32.5 -57l-36 -26
q-23 -13 -54 -19.5t-69 -6.5h-706v85zM752 -162q0 24 15.5 39t38.5 15t38.5 -15t15.5 -39t-15.5 -39t-38.5 -15t-38.5 15t-15.5 39zM806 507q-23 0 -38.5 15t-15.5 39t15.5 39t38.5 15t38.5 -15t15.5 -39t-15.5 -39t-38.5 -15zM0 -68q37 -43 72 -66.5t71 -32t75 -8.5
q28 0 60 10t66 37l-36 -40q21 34 34 76t19.5 95.5t6.5 120.5q0 51 -4 98t-11 97t-17 109l84 12h8q12 -67 22 -145t10 -147q0 -103 -17 -180t-51 -127.5t-84.5 -75.5t-117.5 -25q-37 0 -70 10t-62 27t-52.5 38.5t-41.5 44.5l28 72h8z" />
    <glyph glyph-name="uniFB85" unicode="&#x68c;" horiz-adv-x="816" arabic-form="final" 
d="M410 0v85h406v-65l-20 -20h-386zM44 8l28 77h439q38 0 63.5 19t25.5 69q0 38 -21 85t-61 84l49 -15q-30 -6 -50.5 -8.5t-42.5 -3.5t-58 -1h-36q-40 0 -80 3t-78.5 10t-77.5 19l20 76h8q47 -16 104 -22t108 -6h32q39 0 80.5 2t71.5 10h12q25 -23 50.5 -58.5t43.5 -78.5
t18 -90q0 -52 -21.5 -93t-65.5 -64l-44 -15q-16 -4 -33.5 -5.5t-37.5 -1.5h-446v8zM450 548q-23 0 -38.5 15t-15.5 39t15.5 39t38.5 15t38.5 -15t15.5 -39t-15.5 -39t-38.5 -15zM319 530q-23 0 -38.5 15t-15.5 39t15.5 39t38.5 15t38.5 -15t15.5 -39t-15.5 -39t-38.5 -15z
" />
    <glyph glyph-name="uniFEAA" unicode="&#x62f;" horiz-adv-x="816" arabic-form="final" 
d="M410 0v85h406v-65l-20 -20h-386zM44 8l28 77h439q38 0 63.5 19t25.5 69q0 38 -21 85t-61 84l49 -15q-30 -6 -50.5 -8.5t-42.5 -3.5t-58 -1h-36q-40 0 -80 3t-78.5 10t-77.5 19l20 76h8q47 -16 104 -22t108 -6h32q39 0 80.5 2t71.5 10h12q25 -23 50.5 -58.5t43.5 -78.5
t18 -90q0 -52 -21.5 -93t-65.5 -64l-44 -15q-16 -4 -33.5 -5.5t-37.5 -1.5h-446v8z" />
    <glyph glyph-name="uni068A.fina" unicode="&#x68a;" horiz-adv-x="816" 
d="M410 0v85h406v-65l-20 -20h-386zM44 8l28 77h439q38 0 63.5 19t25.5 69q0 38 -21 85t-61 84l49 -15q-30 -6 -50.5 -8.5t-42.5 -3.5t-58 -1h-36q-40 0 -80 3t-78.5 10t-77.5 19l20 76h8q47 -16 104 -22t108 -6h32q39 0 80.5 2t71.5 10h12q25 -23 50.5 -58.5t43.5 -78.5
t18 -90q0 -52 -21.5 -93t-65.5 -64l-44 -15q-16 -4 -33.5 -5.5t-37.5 -1.5h-446v8zM291 -162q0 24 15.5 39t38.5 15t38.5 -15t15.5 -39t-15.5 -39t-38.5 -15t-38.5 15t-15.5 39z" />
    <glyph glyph-name="uni068B.fina" unicode="&#x68b;" horiz-adv-x="816" 
d="M410 0v85h406v-65l-20 -20h-386zM44 8l28 77h439q38 0 63.5 19t25.5 69q0 38 -21 85t-61 84l49 -15q-30 -6 -50.5 -8.5t-42.5 -3.5t-58 -1h-36q-40 0 -80 3t-78.5 10t-77.5 19l20 76h8q47 -16 104 -22t108 -6h32q39 0 80.5 2t71.5 10h12q25 -23 50.5 -58.5t43.5 -78.5
t18 -90q0 -52 -21.5 -93t-65.5 -64l-44 -15q-16 -4 -33.5 -5.5t-37.5 -1.5h-446v8zM291 -162q0 24 15.5 39t38.5 15t38.5 -15t15.5 -39t-15.5 -39t-38.5 -15t-38.5 15t-15.5 39zM354 536l-9 15h96q17 0 28 5t11 20q0 11 -4 20t-11 16q-10 -1 -23 -1.5t-27 -0.5h-69l20 46h49
q17 0 34.5 0.5t28.5 2.5h8q16 -13 31.5 -34t15.5 -45q0 -20 -7.5 -37t-29.5 -27t-64 -10h-187v2l16 43h50l-10 -15v196l53 7v-203z" />
    <glyph glyph-name="uni0690.fina" unicode="&#x690;" horiz-adv-x="816" 
d="M410 0v85h406v-65l-20 -20h-386zM44 8l28 77h439q38 0 63.5 19t25.5 69q0 38 -21 85t-61 84l49 -15q-30 -6 -50.5 -8.5t-42.5 -3.5t-58 -1h-36q-40 0 -80 3t-78.5 10t-77.5 19l20 76h8q47 -16 104 -22t108 -6h32q39 0 80.5 2t71.5 10h12q25 -23 50.5 -58.5t43.5 -78.5
t18 -90q0 -52 -21.5 -93t-65.5 -64l-44 -15q-16 -4 -33.5 -5.5t-37.5 -1.5h-446v8zM374 683q0 24 15.5 39t38.5 15t38.5 -15t15.5 -39t-15.5 -39t-38.5 -15t-38.5 15t-15.5 39zM243 665q0 24 15.5 39t38.5 15t38.5 -15t15.5 -39t-15.5 -39t-38.5 -15t-38.5 15t-15.5 39z
M406 551q0 24 15.5 39t38.5 15t38.5 -15t15.5 -39t-15.5 -39t-38.5 -15t-38.5 15t-15.5 39zM275 533q0 24 15.5 39t38.5 15t38.5 -15t15.5 -39t-15.5 -39t-38.5 -15t-38.5 15t-15.5 39z" />
    <glyph glyph-name="uni0689.fina" unicode="&#x689;" horiz-adv-x="816" 
d="M410 0v85h406v-65l-20 -20h-386zM44 8l28 77h439q38 0 63.5 19t25.5 69q0 38 -21 85t-61 84l49 -15q-30 -6 -50.5 -8.5t-42.5 -3.5t-58 -1h-36q-40 0 -80 3t-78.5 10t-77.5 19l20 76h8q47 -16 104 -22t108 -6h32q39 0 80.5 2t71.5 10h12q25 -23 50.5 -58.5t43.5 -78.5
t18 -90q0 -52 -21.5 -93t-65.5 -64l-44 -15q-16 -4 -33.5 -5.5t-37.5 -1.5h-446v8zM356 30q32 0 58.5 -24.5t26.5 -68.5q0 -25 -12.5 -47t-33.5 -35.5t-49 -13.5q-43 0 -66.5 26.5t-23.5 60.5q0 27 13 50.5t36 37.5t51 14zM388 -1q-28 2 -46.5 -9.5t-27.5 -29t-9 -33.5
q0 -21 12 -35t31 -14q15 0 28.5 10t21 23.5t2.5 24.5l-3 -49q5 21 1 40t-13 35t-22 27t-27 16z" />
    <glyph glyph-name="uni068F.fina" unicode="&#x68f;" horiz-adv-x="816" 
d="M410 0v85h406v-65l-20 -20h-386zM44 8l28 77h439q38 0 63.5 19t25.5 69q0 38 -21 85t-61 84l49 -15q-30 -6 -50.5 -8.5t-42.5 -3.5t-58 -1h-36q-40 0 -80 3t-78.5 10t-77.5 19l20 76h8q47 -16 104 -22t108 -6h32q39 0 80.5 2t71.5 10h12q25 -23 50.5 -58.5t43.5 -78.5
t18 -90q0 -52 -21.5 -93t-65.5 -64l-44 -15q-16 -4 -33.5 -5.5t-37.5 -1.5h-446v8zM429 629q-23 0 -38.5 15t-15.5 39t15.5 39t38.5 15t38.5 -15t15.5 -39t-15.5 -39t-38.5 -15zM298 613q-23 0 -38.5 15t-15.5 39t15.5 39t38.5 15t38.5 -15t15.5 -39t-15.5 -39t-38.5 -15z
M379 501q-23 0 -38.5 15t-15.5 39t15.5 39t38.5 15t38.5 -15t15.5 -39t-15.5 -39t-38.5 -15z" />
    <glyph glyph-name="uni06EE.fina" unicode="&#x6ee;" horiz-adv-x="816" 
d="M410 0v85h406v-65l-20 -20h-386zM44 8l28 77h439q38 0 63.5 19t25.5 69q0 38 -21 85t-61 84l49 -15q-30 -6 -50.5 -8.5t-42.5 -3.5t-58 -1h-36q-40 0 -80 3t-78.5 10t-77.5 19l20 76h8q47 -16 104 -22t108 -6h32q39 0 80.5 2t71.5 10h12q25 -23 50.5 -58.5t43.5 -78.5
t18 -90q0 -52 -21.5 -93t-65.5 -64l-44 -15q-16 -4 -33.5 -5.5t-37.5 -1.5h-446v8zM443 476l-59 104l-65 -104h-64v4l92 152h76l84 -152v-4h-64z" />
    <glyph glyph-name="uniFE79" unicode="&#xfe79;" horiz-adv-x="292" arabic-form="medial" 
d="M-10 0v75l10 10h292v-75l-10 -10h-292zM119 362l56 2q-10 8 -16 18.5t-6 29.5q0 23 12 43t40 30l-24 -4q21 0 36.5 -9t15.5 -29q0 -14 -10 -29t-29 -25t-48 -10q-28 0 -53 14t-48 36h-7l-30 -31q35 -36 64 -50.5t69 -14.5q32 0 64 13.5t54 39.5t22 64q0 28 -21 48t-54 20
q-25 0 -49 -15t-39 -39.5t-15 -54.5q0 -18 5.5 -29.5t10.5 -17.5z" />
    <glyph glyph-name="uniFB83" unicode="&#x68d;" horiz-adv-x="816" arabic-form="final" 
d="M410 0v85h406v-65l-20 -20h-386zM44 8l28 77h439q38 0 63.5 19t25.5 69q0 38 -21 85t-61 84l49 -15q-30 -6 -50.5 -8.5t-42.5 -3.5t-58 -1h-36q-40 0 -80 3t-78.5 10t-77.5 19l20 76h8q47 -16 104 -22t108 -6h32q39 0 80.5 2t71.5 10h12q25 -23 50.5 -58.5t43.5 -78.5
t18 -90q0 -52 -21.5 -93t-65.5 -64l-44 -15q-16 -4 -33.5 -5.5t-37.5 -1.5h-446v8zM311 -148q0 24 15.5 39t38.5 15t38.5 -15t15.5 -39t-15.5 -39t-38.5 -15t-38.5 15t-15.5 39zM180 -166q0 24 15.5 39t38.5 15t38.5 -15t15.5 -39t-15.5 -39t-38.5 -15t-38.5 15t-15.5 39z
" />
    <glyph glyph-name="uniFB89" unicode="&#x688;" horiz-adv-x="816" arabic-form="final" 
d="M410 0v85h406v-65l-20 -20h-386zM44 8l28 77h439q38 0 63.5 19t25.5 69q0 38 -21 85t-61 84l49 -15q-30 -6 -50.5 -8.5t-42.5 -3.5t-58 -1h-36q-40 0 -80 3t-78.5 10t-77.5 19l20 76h8q47 -16 104 -22t108 -6h32q39 0 80.5 2t71.5 10h12q25 -23 50.5 -58.5t43.5 -78.5
t18 -90q0 -52 -21.5 -93t-65.5 -64l-44 -15q-16 -4 -33.5 -5.5t-37.5 -1.5h-446v8zM354 536l-9 15h96q17 0 28 5t11 20q0 11 -4 20t-11 16q-10 -1 -23 -1.5t-27 -0.5h-69l20 46h49q17 0 34.5 0.5t28.5 2.5h8q16 -13 31.5 -34t15.5 -45q0 -20 -7.5 -37t-29.5 -27t-64 -10
h-187v2l16 43h50l-10 -15v196l53 7v-203z" />
    <glyph glyph-name="uniFB87" unicode="&#x68e;" horiz-adv-x="816" arabic-form="final" 
d="M410 0v85h406v-65l-20 -20h-386zM44 8l28 77h439q38 0 63.5 19t25.5 69q0 38 -21 85t-61 84l49 -15q-30 -6 -50.5 -8.5t-42.5 -3.5t-58 -1h-36q-40 0 -80 3t-78.5 10t-77.5 19l20 76h8q47 -16 104 -22t108 -6h32q39 0 80.5 2t71.5 10h12q25 -23 50.5 -58.5t43.5 -78.5
t18 -90q0 -52 -21.5 -93t-65.5 -64l-44 -15q-16 -4 -33.5 -5.5t-37.5 -1.5h-446v8zM367 650q-23 0 -38.5 15t-15.5 39t15.5 39t38.5 15t38.5 -15t15.5 -39t-15.5 -39t-38.5 -15zM448 538q-23 0 -38.5 15t-15.5 39t15.5 39t38.5 15t38.5 -15t15.5 -39t-15.5 -39t-38.5 -15z
M317 522q-23 0 -38.5 15t-15.5 39t15.5 39t38.5 15t38.5 -15t15.5 -39t-15.5 -39t-38.5 -15z" />
    <glyph glyph-name="uniFB73" unicode="&#x684;" horiz-adv-x="672" arabic-form="final" 
d="M284 0q-67 0 -109 -15.5t-63 -44t-27 -66.5l-12 42q14 -53 69 -70t146 -17h44v-8l-28 -77h-68q-52 0 -102 17.5t-82 51.5t-32 83q0 28 13.5 60.5t45 62t86.5 48t139 18.5h244l-26 -12q-46 26 -105.5 83.5t-130 143t-150.5 196.5l64 60h8q97 -139 174 -230t133.5 -144
t94.5 -75t57 -22h25v-65l-20 -20h-388zM493 -159q-23 0 -38.5 15t-15.5 39t15.5 39t38.5 15t38.5 -15t15.5 -39t-15.5 -39t-38.5 -15zM493 -299q-23 0 -38.5 15t-15.5 39t15.5 39t38.5 15t38.5 -15t15.5 -39t-15.5 -39t-38.5 -15z" />
    <glyph glyph-name="uniFB74" unicode="&#x684;" horiz-adv-x="724" arabic-form="initial" 
d="M-20 0v66l20 20h495l-25 -13q-48 26 -108.5 83.5t-131 143.5t-150.5 196l64 60h8q95 -135 170.5 -226t133 -144.5t97.5 -77t64 -23.5l95 1v-8l-24 -78h-708zM268 -146q-23 0 -38.5 15t-15.5 39t15.5 39t38.5 15t38.5 -15t15.5 -39t-15.5 -39t-38.5 -15zM268 -286
q-23 0 -38.5 15t-15.5 39t15.5 39t38.5 15t38.5 -15t15.5 -39t-15.5 -39t-38.5 -15z" />
    <glyph glyph-name="uniFB75" unicode="&#x684;" arabic-form="medial" 
d="M-20 0v66l20 20h495l-25 -13q-48 26 -108.5 83.5t-131 143.5t-150.5 196l64 60h8q95 -135 170.5 -225.5t133 -144.5t97.5 -77t63 -23h20v-66l-20 -20h-636zM273 -145q-23 0 -38.5 15t-15.5 39t15.5 39t38.5 15t38.5 -15t15.5 -39t-15.5 -39t-38.5 -15zM273 -285
q-23 0 -38.5 15t-15.5 39t15.5 39t38.5 15t38.5 -15t15.5 -39t-15.5 -39t-38.5 -15z" />
    <glyph glyph-name="uniFBE5" unicode="&#x6d0;" horiz-adv-x="751" arabic-form="final" 
d="M731 0q-54 0 -87.5 22.5t-53.5 58t-36 72.5l-81 194l19 -11q-27 -3 -60.5 -16.5t-58 -35t-24.5 -48.5q0 -26 16 -55t40 -59t48 -58.5t40 -53t16 -42.5q0 -58 -39 -111.5t-112.5 -87t-176.5 -33.5q-65 0 -110 10t-68 20l-23 10l21 77h8q19 -6 44.5 -13.5t62.5 -13t89 -5.5
q87 0 151 36t99 94l-2 -36q-18 27 -49.5 64t-64.5 78t-55.5 83t-22.5 80q0 52 26.5 89.5t67 62.5t86 40.5t84.5 23.5h8l83 -209q19 -47 35 -78.5t39 -47.5t61 -16v-65zM181 -409q-23 0 -38.5 15t-15.5 39t15.5 39t38.5 15t38.5 -15t15.5 -39t-15.5 -39t-38.5 -15zM181 -549
q-23 0 -38.5 15t-15.5 39t15.5 39t38.5 15t38.5 -15t15.5 -39t-15.5 -39t-38.5 -15z" />
    <glyph glyph-name="uniFBE6" unicode="&#x6d0;" horiz-adv-x="316" arabic-form="initial" 
d="M-20 0v65l20 20h174l-34 -21q-4 14 -8 39.5t-4 56.5v332l84 12h8v-332q0 -20 0.5 -46t2 -51t5.5 -43v-8q-30 -12 -75.5 -18t-108.5 -6h-64zM152 -145q-23 0 -38.5 15t-15.5 39t15.5 39t38.5 15t38.5 -15t15.5 -39t-15.5 -39t-38.5 -15zM152 -285q-23 0 -38.5 15t-15.5 39
t15.5 39t38.5 15t38.5 -15t15.5 -39t-15.5 -39t-38.5 -15z" />
    <glyph glyph-name="uniFBE7" unicode="&#x6d0;" horiz-adv-x="367" arabic-form="medial" 
d="M0 85h173l-34 -21q-4 14 -8 39.5t-4 56.5v332l84 12h8v-457l-38 38h186v-65l-20 -20h-367v65zM171 -145q-23 0 -38.5 15t-15.5 39t15.5 39t38.5 15t38.5 -15t15.5 -39t-15.5 -39t-38.5 -15zM171 -285q-23 0 -38.5 15t-15.5 39t15.5 39t38.5 15t38.5 -15t15.5 -39
t-15.5 -39t-38.5 -15z" />
    <glyph glyph-name="uniFE77" unicode="&#xfe77;" horiz-adv-x="292" arabic-form="medial" 
d="M-10 0v75l10 10h292v-75l-10 -10h-292zM14 352v56l258 84h8v-56l-258 -84h-8z" />
    <glyph glyph-name="uniFE71" unicode="&#xfe71;" horiz-adv-x="162" arabic-form="medial" 
d="M162 85v-65l-20 -20h-162v65l20 20h162zM-61 465v56l258 84h8v-56l-258 -84h-8zM-61 566v56l258 84h8v-56l-258 -84h-8z" />
    <glyph glyph-name="uniFED3" unicode="&#x641;" arabic-form="initial" 
d="M0 85h214l-17 -18q-55 32 -92 87.5t-37 125.5q0 69 32 122t92 83.5t144 30.5q44 0 85.5 -6.5t102.5 -25.5l4 -8q-4 -18 -5.5 -48t-2 -61t-0.5 -51v-284l-4 -8q-30 -12 -75.5 -18t-108.5 -6h-352v65zM160 287q0 -58 35.5 -105.5t103 -74t163.5 -21.5l-34 -44v310
q0 27 2 49t6 38l16 -25q-20 6 -36 11t-35.5 8t-51.5 3q-78 0 -123.5 -41.5t-45.5 -107.5zM336 618q-23 0 -38.5 15t-15.5 39t15.5 39t38.5 15t38.5 -15t15.5 -39t-15.5 -39t-38.5 -15z" />
    <glyph glyph-name="uniFED4" unicode="&#x641;" arabic-form="medial" 
d="M310 516q70 0 122.5 -28.5t82 -76.5t29.5 -107q0 -76 -39.5 -137t-98.5 -102l-18 20h247l1 -65l-20 -20h-195q-30 0 -62.5 8t-64.5 21h50q-31 -13 -63 -21t-61 -8h-240v65l20 20h244l-17 -20q-64 43 -109.5 108t-45.5 145q0 38 16.5 73.5t48 63.5t75.5 44.5t98 16.5z
M136 325l11 58q-3 -65 16 -115t50.5 -86t66.5 -59t62 -34l-36 -2q36 13 69.5 41.5t55 68t21.5 83.5q0 37 -17 72.5t-50.5 59.5t-82.5 24q-33 0 -66.5 -13t-60 -38t-39.5 -60zM310 618q-23 0 -38.5 15t-15.5 39t15.5 39t38.5 15t38.5 -15t15.5 -39t-15.5 -39t-38.5 -15z" />
    <glyph glyph-name="uniFED2" unicode="&#x641;" horiz-adv-x="1168" arabic-form="final" 
d="M862 516q70 0 122.5 -28.5t82 -76.5t29.5 -107q0 -76 -39.5 -137t-98.5 -102l-18 20h247l1 -65l-20 -20h-195q-30 0 -62.5 8t-64.5 21h50q-31 -13 -63 -21t-61 -8h-216q-101 0 -207.5 4.5t-201.5 30.5q-19 6 -37 11.5t-33.5 11t-28.5 11.5l18 81h8q11 -5 31 -12t40 -13
t31 -10q49 -14 110.5 -20.5t131 -8t138.5 -1.5h240l-17 -20q-64 43 -109.5 108t-45.5 145q0 38 16.5 73.5t48 63.5t75.5 44.5t98 16.5zM688 325l11 58q-3 -65 16 -115t50.5 -86t66.5 -59t62 -34l-36 -2q36 13 69.5 41.5t55 68t21.5 83.5q0 37 -17 72.5t-50.5 59.5t-82.5 24
q-33 0 -66.5 -13t-60 -38t-39.5 -60zM852 612q-23 0 -38.5 15t-15.5 39t15.5 39t38.5 15t38.5 -15t15.5 -39t-15.5 -39t-38.5 -15z" />
    <glyph glyph-name="uni06A3.init" unicode="&#x6a3;" 
d="M0 85h214l-17 -18q-55 32 -92 87.5t-37 125.5q0 69 32 122t92 83.5t144 30.5q44 0 85.5 -6.5t102.5 -25.5l4 -8q-4 -18 -5.5 -48t-2 -61t-0.5 -51v-284l-4 -8q-30 -12 -75.5 -18t-108.5 -6h-352v65zM160 287q0 -58 35.5 -105.5t103 -74t163.5 -21.5l-34 -44v310
q0 27 2 49t6 38l16 -25q-20 6 -36 11t-35.5 8t-51.5 3q-78 0 -123.5 -41.5t-45.5 -107.5zM336 618q-23 0 -38.5 15t-15.5 39t15.5 39t38.5 15t38.5 -15t15.5 -39t-15.5 -39t-38.5 -15zM281 -162q0 24 15.5 39t38.5 15t38.5 -15t15.5 -39t-15.5 -39t-38.5 -15t-38.5 15
t-15.5 39z" />
    <glyph glyph-name="uni06A3.medi" unicode="&#x6a3;" 
d="M310 516q70 0 122.5 -28.5t82 -76.5t29.5 -107q0 -76 -39.5 -137t-98.5 -102l-18 20h247l1 -65l-20 -20h-195q-30 0 -62.5 8t-64.5 21h50q-31 -13 -63 -21t-61 -8h-240v65l20 20h244l-17 -20q-64 43 -109.5 108t-45.5 145q0 38 16.5 73.5t48 63.5t75.5 44.5t98 16.5z
M136 325l11 58q-3 -65 16 -115t50.5 -86t66.5 -59t62 -34l-36 -2q36 13 69.5 41.5t55 68t21.5 83.5q0 37 -17 72.5t-50.5 59.5t-82.5 24q-33 0 -66.5 -13t-60 -38t-39.5 -60zM310 618q-23 0 -38.5 15t-15.5 39t15.5 39t38.5 15t38.5 -15t15.5 -39t-15.5 -39t-38.5 -15z
M266 -162q0 24 15.5 39t38.5 15t38.5 -15t15.5 -39t-15.5 -39t-38.5 -15t-38.5 15t-15.5 39z" />
    <glyph glyph-name="uni06A3.fina" unicode="&#x6a3;" horiz-adv-x="1168" 
d="M862 516q70 0 122.5 -28.5t82 -76.5t29.5 -107q0 -76 -39.5 -137t-98.5 -102l-18 20h247l1 -65l-20 -20h-195q-30 0 -62.5 8t-64.5 21h50q-31 -13 -63 -21t-61 -8h-216q-101 0 -207.5 4.5t-201.5 30.5q-19 6 -37 11.5t-33.5 11t-28.5 11.5l18 81h8q11 -5 31 -12t40 -13
t31 -10q49 -14 110.5 -20.5t131 -8t138.5 -1.5h240l-17 -20q-64 43 -109.5 108t-45.5 145q0 38 16.5 73.5t48 63.5t75.5 44.5t98 16.5zM688 325l11 58q-3 -65 16 -115t50.5 -86t66.5 -59t62 -34l-36 -2q36 13 69.5 41.5t55 68t21.5 83.5q0 37 -17 72.5t-50.5 59.5t-82.5 24
q-33 0 -66.5 -13t-60 -38t-39.5 -60zM852 612q-23 0 -38.5 15t-15.5 39t15.5 39t38.5 15t38.5 -15t15.5 -39t-15.5 -39t-38.5 -15zM501 -162q0 24 15.5 39t38.5 15t38.5 -15t15.5 -39t-15.5 -39t-38.5 -15t-38.5 15t-15.5 39z" />
    <glyph glyph-name="uni06A1.init" unicode="&#x6a1;" 
d="M0 85h214l-17 -18q-55 32 -92 87.5t-37 125.5q0 69 32 122t92 83.5t144 30.5q44 0 85.5 -6.5t102.5 -25.5l4 -8q-4 -18 -5.5 -48t-2 -61t-0.5 -51v-284l-4 -8q-30 -12 -75.5 -18t-108.5 -6h-352v65zM160 287q0 -58 35.5 -105.5t103 -74t163.5 -21.5l-34 -44v310
q0 27 2 49t6 38l16 -25q-20 6 -36 11t-35.5 8t-51.5 3q-78 0 -123.5 -41.5t-45.5 -107.5z" />
    <glyph glyph-name="uni06A1.medi" unicode="&#x6a1;" 
d="M310 516q70 0 122.5 -28.5t82 -76.5t29.5 -107q0 -76 -39.5 -137t-98.5 -102l-18 20h247l1 -65l-20 -20h-195q-30 0 -62.5 8t-64.5 21h50q-31 -13 -63 -21t-61 -8h-240v65l20 20h244l-17 -20q-64 43 -109.5 108t-45.5 145q0 38 16.5 73.5t48 63.5t75.5 44.5t98 16.5z
M136 325l11 58q-3 -65 16 -115t50.5 -86t66.5 -59t62 -34l-36 -2q36 13 69.5 41.5t55 68t21.5 83.5q0 37 -17 72.5t-50.5 59.5t-82.5 24q-33 0 -66.5 -13t-60 -38t-39.5 -60z" />
    <glyph glyph-name="uni06A1.fina" unicode="&#x6a1;" horiz-adv-x="1168" 
d="M862 516q70 0 122.5 -28.5t82 -76.5t29.5 -107q0 -76 -39.5 -137t-98.5 -102l-18 20h247l1 -65l-20 -20h-195q-30 0 -62.5 8t-64.5 21h50q-31 -13 -63 -21t-61 -8h-216q-101 0 -207.5 4.5t-201.5 30.5q-19 6 -37 11.5t-33.5 11t-28.5 11.5l18 81h8q11 -5 31 -12t40 -13
t31 -10q49 -14 110.5 -20.5t131 -8t138.5 -1.5h240l-17 -20q-64 43 -109.5 108t-45.5 145q0 38 16.5 73.5t48 63.5t75.5 44.5t98 16.5zM688 325l11 58q-3 -65 16 -115t50.5 -86t66.5 -59t62 -34l-36 -2q36 13 69.5 41.5t55 68t21.5 83.5q0 37 -17 72.5t-50.5 59.5t-82.5 24
q-33 0 -66.5 -13t-60 -38t-39.5 -60z" />
    <glyph glyph-name="uni06A5.init" unicode="&#x6a5;" 
d="M0 85h214l-17 -18q-55 32 -92 87.5t-37 125.5q0 69 32 122t92 83.5t144 30.5q44 0 85.5 -6.5t102.5 -25.5l4 -8q-4 -18 -5.5 -48t-2 -61t-0.5 -51v-284l-4 -8q-30 -12 -75.5 -18t-108.5 -6h-352v65zM160 287q0 -58 35.5 -105.5t103 -74t163.5 -21.5l-34 -44v310
q0 27 2 49t6 38l16 -25q-20 6 -36 11t-35.5 8t-51.5 3q-78 0 -123.5 -41.5t-45.5 -107.5zM352 -122q0 24 15.5 39t38.5 15t38.5 -15t15.5 -39t-15.5 -39t-38.5 -15t-38.5 15t-15.5 39zM221 -138q0 24 15.5 39t38.5 15t38.5 -15t15.5 -39t-15.5 -39t-38.5 -15t-38.5 15
t-15.5 39zM302 -250q0 24 15.5 39t38.5 15t38.5 -15t15.5 -39t-15.5 -39t-38.5 -15t-38.5 15t-15.5 39z" />
    <glyph glyph-name="uni06A5.medi" unicode="&#x6a5;" 
d="M310 516q70 0 122.5 -28.5t82 -76.5t29.5 -107q0 -76 -39.5 -137t-98.5 -102l-18 20h247l1 -65l-20 -20h-195q-30 0 -62.5 8t-64.5 21h50q-31 -13 -63 -21t-61 -8h-240v65l20 20h244l-17 -20q-64 43 -109.5 108t-45.5 145q0 38 16.5 73.5t48 63.5t75.5 44.5t98 16.5z
M136 325l11 58q-3 -65 16 -115t50.5 -86t66.5 -59t62 -34l-36 -2q36 13 69.5 41.5t55 68t21.5 83.5q0 37 -17 72.5t-50.5 59.5t-82.5 24q-33 0 -66.5 -13t-60 -38t-39.5 -60zM337 -122q0 24 15.5 39t38.5 15t38.5 -15t15.5 -39t-15.5 -39t-38.5 -15t-38.5 15t-15.5 39z
M206 -138q0 24 15.5 39t38.5 15t38.5 -15t15.5 -39t-15.5 -39t-38.5 -15t-38.5 15t-15.5 39zM287 -250q0 24 15.5 39t38.5 15t38.5 -15t15.5 -39t-15.5 -39t-38.5 -15t-38.5 15t-15.5 39z" />
    <glyph glyph-name="uni06A5.fina" unicode="&#x6a5;" horiz-adv-x="1168" 
d="M862 516q70 0 122.5 -28.5t82 -76.5t29.5 -107q0 -76 -39.5 -137t-98.5 -102l-18 20h247l1 -65l-20 -20h-195q-30 0 -62.5 8t-64.5 21h50q-31 -13 -63 -21t-61 -8h-216q-101 0 -207.5 4.5t-201.5 30.5q-19 6 -37 11.5t-33.5 11t-28.5 11.5l18 81h8q11 -5 31 -12t40 -13
t31 -10q49 -14 110.5 -20.5t131 -8t138.5 -1.5h240l-17 -20q-64 43 -109.5 108t-45.5 145q0 38 16.5 73.5t48 63.5t75.5 44.5t98 16.5zM688 325l11 58q-3 -65 16 -115t50.5 -86t66.5 -59t62 -34l-36 -2q36 13 69.5 41.5t55 68t21.5 83.5q0 37 -17 72.5t-50.5 59.5t-82.5 24
q-33 0 -66.5 -13t-60 -38t-39.5 -60zM572 -122q0 24 15.5 39t38.5 15t38.5 -15t15.5 -39t-15.5 -39t-38.5 -15t-38.5 15t-15.5 39zM441 -138q0 24 15.5 39t38.5 15t38.5 -15t15.5 -39t-15.5 -39t-38.5 -15t-38.5 15t-15.5 39zM522 -250q0 24 15.5 39t38.5 15t38.5 -15
t15.5 -39t-15.5 -39t-38.5 -15t-38.5 15t-15.5 39z" />
    <glyph glyph-name="uniFB94" unicode="&#x6af;" horiz-adv-x="1196" arabic-form="initial" 
d="M-20 0v65l20 20h925q50 0 84.5 19t34.5 69q0 38 -21 85t-61 84l49 -20q-30 -6 -50.5 -8.5t-42.5 -3.5t-58 -1h-708q-22 0 -42 15t-22 58l372 358h8l41 -62l-327 -310l-16 26h694q39 0 80.5 2t71.5 10h12q25 -23 50.5 -58.5t43.5 -78.5t18 -90q0 -39 -14 -71.5t-42.5 -57
t-72.5 -37.5t-103 -13h-924zM74 524l334 327h12l24 -36l-354 -339h-12z" />
    <glyph glyph-name="uniFB95" unicode="&#x6af;" horiz-adv-x="1262" arabic-form="medial" 
d="M925 0l108 85h229v-65l-20 -20h-317zM182 368l-16 26h696q39 0 80.5 2t71.5 10h12q25 -23 50.5 -58.5t43.5 -78.5t18 -90q0 -37 -11.5 -69.5t-37.5 -55.5l-62 -36q-24 -9 -54 -13.5t-67 -4.5h-926v65l20 20h927q60 0 89.5 19.5t29.5 68.5q0 38 -21 85t-61 84l49 -20
q-30 -6 -50.5 -8.5t-42.5 -3.5t-58 -1h-710q-22 0 -42 15t-22 58l372 358h8l41 -62zM74 524l334 327h12l24 -36l-354 -339h-12z" />
    <glyph glyph-name="uniFB93" unicode="&#x6af;" horiz-adv-x="1460" arabic-form="final" 
d="M1125 0l108 85h229v-65l-20 -20h-317zM482 368l-16 26h594q39 0 80.5 2t71.5 10h12q25 -23 50.5 -58.5t43.5 -78.5t18 -90q0 -37 -11.5 -69.5t-37.5 -55.5l-62 -36q-24 -9 -54 -13.5t-67 -4.5h-600q-91 0 -184 6t-177 29q-19 6 -37 11.5t-33.5 11t-28.5 11.5l18 81h8
q11 -5 31 -12t40 -13t31 -10q36 -10 80.5 -16.5t94 -9t101.5 -3.5t104 -1h573q60 0 89.5 19.5t29.5 68.5q0 38 -21 85t-61 84l49 -20q-30 -6 -50.5 -8.5t-42.5 -3.5t-58 -1h-608q-22 0 -42 15t-22 58l372 358h8l41 -62zM374 524l334 327h12l24 -36l-354 -339h-12z" />
    <glyph glyph-name="uni06B0.init" unicode="&#x6b0;" horiz-adv-x="1196" 
d="M-20 0v65l20 20h925q60 0 89.5 19t29.5 69q0 38 -21 85t-61 84l49 -20q-30 -6 -50.5 -8.5t-42.5 -3.5t-58 -1h-708q-22 0 -42 15t-22 58l372 358h8l41 -62l-327 -310l-16 26h694q39 0 80.5 2t71.5 10h12q25 -23 50.5 -58.5t43.5 -78.5t18 -90q0 -39 -12.5 -71.5
t-40.5 -57t-72 -37.5t-107 -13h-924zM433 630q32 0 58.5 -24.5t26.5 -68.5q0 -25 -12.5 -47t-33.5 -35.5t-49 -13.5q-43 0 -66.5 26.5t-23.5 60.5q0 27 13 50.5t36 37.5t51 14zM465 599q-28 2 -46.5 -9.5t-27.5 -29t-9 -33.5q0 -21 12 -35t31 -14q15 0 28.5 10t21 23.5
t2.5 24.5l-3 -49q5 21 1 40t-13 35t-22 27t-27 16zM74 524l334 327h12l24 -36l-354 -339h-12z" />
    <glyph glyph-name="uni06B0.medi" unicode="&#x6b0;" horiz-adv-x="1262" 
d="M925 0l108 85h229v-65l-20 -20h-317zM-20 0v65l20 20h925q60 0 89.5 19.5t29.5 68.5q0 38 -21 85t-61 84l49 -20q-30 -6 -50.5 -8.5t-42.5 -3.5t-58 -1h-708q-22 0 -42 15t-22 58l372 358h8l41 -62l-327 -310l-16 26h694q39 0 80.5 2t71.5 10h12q25 -23 50.5 -58.5
t43.5 -78.5t18 -90q0 -37 -11.5 -69.5t-37.5 -55.5l-62 -36q-24 -9 -54 -13.5t-67 -4.5h-924zM74 524l334 327h12l24 -36l-354 -339h-12zM433 630q32 0 58.5 -24.5t26.5 -68.5q0 -25 -12.5 -47t-33.5 -35.5t-49 -13.5q-43 0 -66.5 26.5t-23.5 60.5q0 27 13 50.5t36 37.5
t51 14zM465 599q-28 2 -46.5 -9.5t-27.5 -29t-9 -33.5q0 -21 12 -35t31 -14q15 0 28.5 10t21 23.5t2.5 24.5l-3 -49q5 21 1 40t-13 35t-22 27t-27 16z" />
    <glyph glyph-name="uni06B0.fina" unicode="&#x6b0;" horiz-adv-x="1460" 
d="M1125 0l108 85h229v-65l-20 -20h-317zM482 368l-16 26h594q39 0 80.5 2t71.5 10h12q25 -23 50.5 -58.5t43.5 -78.5t18 -90q0 -37 -11.5 -69.5t-37.5 -55.5l-62 -36q-24 -9 -54 -13.5t-67 -4.5h-600q-91 0 -184 6t-177 29q-19 6 -37 11.5t-33.5 11t-28.5 11.5l18 81h8
q11 -5 31 -12t40 -13t31 -10q36 -10 80.5 -16.5t94 -9t101.5 -3.5t104 -1h573q60 0 89.5 19.5t29.5 68.5q0 38 -21 85t-61 84l49 -20q-30 -6 -50.5 -8.5t-42.5 -3.5t-58 -1h-608q-22 0 -42 15t-22 58l372 358h8l41 -62zM737 630q32 0 58.5 -24.5t26.5 -68.5q0 -25 -12.5 -47
t-33.5 -35.5t-49 -13.5q-43 0 -66.5 26.5t-23.5 60.5q0 27 13 50.5t36 37.5t51 14zM769 599q-28 2 -46.5 -9.5t-27.5 -29t-9 -33.5q0 -21 12 -35t31 -14q15 0 28.5 10t21 23.5t2.5 24.5l-3 -49q5 21 1 40t-13 35t-22 27t-27 16zM374 524l334 327h12l24 -36l-354 -339h-12z
" />
    <glyph glyph-name="uni06B4.init" unicode="&#x6b4;" horiz-adv-x="1196" 
d="M-20 0v65l20 20h925q50 0 84.5 19t34.5 69q0 38 -21 85t-61 84l49 -20q-30 -6 -50.5 -8.5t-42.5 -3.5t-58 -1h-708q-22 0 -42 15t-22 58l372 358h8l41 -62l-327 -310l-16 26h694q39 0 80.5 2t71.5 10h12q25 -23 50.5 -58.5t43.5 -78.5t18 -90q0 -39 -14 -71.5t-42.5 -57
t-72.5 -37.5t-103 -13h-924zM74 524l334 327h12l24 -36l-354 -339h-12zM85 774q-23 0 -38.5 15t-15.5 39t15.5 39t38.5 15t38.5 -15t15.5 -39t-15.5 -39t-38.5 -15zM166 662q-23 0 -38.5 15t-15.5 39t15.5 39t38.5 15t38.5 -15t15.5 -39t-15.5 -39t-38.5 -15zM35 646
q-23 0 -38.5 15t-15.5 39t15.5 39t38.5 15t38.5 -15t15.5 -39t-15.5 -39t-38.5 -15z" />
    <glyph glyph-name="uni06B4.medi" unicode="&#x6b4;" horiz-adv-x="1262" 
d="M925 0l108 85h229v-65l-20 -20h-317zM182 368l-16 26h696q39 0 80.5 2t71.5 10h12q25 -23 50.5 -58.5t43.5 -78.5t18 -90q0 -37 -11.5 -69.5t-37.5 -55.5l-62 -36q-24 -9 -54 -13.5t-67 -4.5h-926v65l20 20h927q60 0 89.5 19.5t29.5 68.5q0 38 -21 85t-61 84l49 -20
q-30 -6 -50.5 -8.5t-42.5 -3.5t-58 -1h-710q-22 0 -42 15t-22 58l372 358h8l41 -62zM74 524l334 327h12l24 -36l-354 -339h-12zM85 774q-23 0 -38.5 15t-15.5 39t15.5 39t38.5 15t38.5 -15t15.5 -39t-15.5 -39t-38.5 -15zM166 662q-23 0 -38.5 15t-15.5 39t15.5 39t38.5 15
t38.5 -15t15.5 -39t-15.5 -39t-38.5 -15zM35 646q-23 0 -38.5 15t-15.5 39t15.5 39t38.5 15t38.5 -15t15.5 -39t-15.5 -39t-38.5 -15z" />
    <glyph glyph-name="uni06B4.fina" unicode="&#x6b4;" horiz-adv-x="1460" 
d="M1125 0l108 85h229v-65l-20 -20h-317zM482 368l-16 26h594q39 0 80.5 2t71.5 10h12q25 -23 50.5 -58.5t43.5 -78.5t18 -90q0 -37 -11.5 -69.5t-37.5 -55.5l-62 -36q-24 -9 -54 -13.5t-67 -4.5h-600q-91 0 -184 6t-177 29q-19 6 -37 11.5t-33.5 11t-28.5 11.5l18 81h8
q11 -5 31 -12t40 -13t31 -10q36 -10 80.5 -16.5t94 -9t101.5 -3.5t104 -1h573q60 0 89.5 19.5t29.5 68.5q0 38 -21 85t-61 84l49 -20q-30 -6 -50.5 -8.5t-42.5 -3.5t-58 -1h-608q-22 0 -42 15t-22 58l372 358h8l41 -62zM374 524l334 327h12l24 -36l-354 -339h-12zM385 774
q-23 0 -38.5 15t-15.5 39t15.5 39t38.5 15t38.5 -15t15.5 -39t-15.5 -39t-38.5 -15zM466 662q-23 0 -38.5 15t-15.5 39t15.5 39t38.5 15t38.5 -15t15.5 -39t-15.5 -39t-38.5 -15zM335 646q-23 0 -38.5 15t-15.5 39t15.5 39t38.5 15t38.5 -15t15.5 -39t-15.5 -39t-38.5 -15z
" />
    <glyph glyph-name="uni06B2.init" unicode="&#x6b2;" horiz-adv-x="1196" 
d="M-20 0v65l20 20h925q50 0 84.5 19t34.5 69q0 38 -21 85t-61 84l49 -20q-30 -6 -50.5 -8.5t-42.5 -3.5t-58 -1h-708q-22 0 -42 15t-22 58l372 358h8l41 -62l-327 -310l-16 26h694q39 0 80.5 2t71.5 10h12q25 -23 50.5 -58.5t43.5 -78.5t18 -90q0 -39 -14 -71.5t-42.5 -57
t-72.5 -37.5t-103 -13h-924zM74 524l334 327h12l24 -36l-354 -339h-12zM477 -148q0 24 15.5 39t38.5 15t38.5 -15t15.5 -39t-15.5 -39t-38.5 -15t-38.5 15t-15.5 39zM346 -166q0 24 15.5 39t38.5 15t38.5 -15t15.5 -39t-15.5 -39t-38.5 -15t-38.5 15t-15.5 39z" />
    <glyph glyph-name="uni06B2.medi" unicode="&#x6b2;" horiz-adv-x="1262" 
d="M925 0l108 85h229v-65l-20 -20h-317zM182 368l-16 26h696q39 0 80.5 2t71.5 10h12q25 -23 50.5 -58.5t43.5 -78.5t18 -90q0 -37 -11.5 -69.5t-37.5 -55.5l-62 -36q-24 -9 -54 -13.5t-67 -4.5h-926v65l20 20h927q60 0 89.5 19.5t29.5 68.5q0 38 -21 85t-61 84l49 -20
q-30 -6 -50.5 -8.5t-42.5 -3.5t-58 -1h-710q-22 0 -42 15t-22 58l372 358h8l41 -62zM74 524l334 327h12l24 -36l-354 -339h-12zM477 -148q0 24 15.5 39t38.5 15t38.5 -15t15.5 -39t-15.5 -39t-38.5 -15t-38.5 15t-15.5 39zM346 -166q0 24 15.5 39t38.5 15t38.5 -15t15.5 -39
t-15.5 -39t-38.5 -15t-38.5 15t-15.5 39z" />
    <glyph glyph-name="uni06B2.fina" unicode="&#x6b2;" horiz-adv-x="1460" 
d="M1125 0l108 85h229v-65l-20 -20h-317zM482 368l-16 26h594q39 0 80.5 2t71.5 10h12q25 -23 50.5 -58.5t43.5 -78.5t18 -90q0 -37 -11.5 -69.5t-37.5 -55.5l-62 -36q-24 -9 -54 -13.5t-67 -4.5h-600q-91 0 -184 6t-177 29q-19 6 -37 11.5t-33.5 11t-28.5 11.5l18 81h8
q11 -5 31 -12t40 -13t31 -10q36 -10 80.5 -16.5t94 -9t101.5 -3.5t104 -1h573q60 0 89.5 19.5t29.5 68.5q0 38 -21 85t-61 84l49 -20q-30 -6 -50.5 -8.5t-42.5 -3.5t-58 -1h-608q-22 0 -42 15t-22 58l372 358h8l41 -62zM374 524l334 327h12l24 -36l-354 -339h-12zM777 -148
q0 24 15.5 39t38.5 15t38.5 -15t15.5 -39t-15.5 -39t-38.5 -15t-38.5 15t-15.5 39zM646 -166q0 24 15.5 39t38.5 15t38.5 -15t15.5 -39t-15.5 -39t-38.5 -15t-38.5 15t-15.5 39z" />
    <glyph glyph-name="uniFECF" unicode="&#x63a;" horiz-adv-x="576" arabic-form="initial" 
d="M-20 0v65l20 20h220l-33 -35q-25 13 -48 30.5t-37 45.5t-14 70t18.5 83.5t55.5 84t91.5 87.5t126.5 93h8l32 -76q-93 -65 -146.5 -111.5t-75.5 -84.5t-22 -78q0 -49 40.5 -79t95.5 -30h224v-8l-28 -77h-528zM208 544q-23 0 -38.5 15t-15.5 39t15.5 39t38.5 15t38.5 -15
t15.5 -39t-15.5 -39t-38.5 -15z" />
    <glyph glyph-name="uniFED0" unicode="&#x63a;" horiz-adv-x="648" arabic-form="medial" 
d="M0 85h220l7 -45l-67 164q-7 18 -20.5 48t-29.5 62.5t-31.5 60t-26.5 41.5v8q32 23 79 44t101.5 34.5t107.5 13.5q75 0 127.5 -28t80.5 -76t28 -108q0 -43 -19.5 -90t-52.5 -86t-72 -60l-18 17h258v-65l-20 -20h-672v65zM317 46l-32 23q48 16 93.5 43.5t75.5 69.5t30 102
q0 66 -41 109t-119 43q-56 0 -101 -16.5t-79 -32.5l16 24q18 -27 30.5 -53t26 -58.5t31.5 -79.5zM308 612q-23 0 -38.5 15t-15.5 39t15.5 39t38.5 15t38.5 -15t15.5 -39t-15.5 -39t-38.5 -15z" />
    <glyph glyph-name="uniFECE" unicode="&#x63a;" horiz-adv-x="664" arabic-form="final" 
d="M239 40l-67 164q-7 18 -20.5 48t-29.5 62.5t-31.5 60t-26.5 41.5v8q32 23 79 44t101.5 34.5t107.5 13.5q75 0 127.5 -28t80.5 -76t28 -108q0 -42 -19.5 -88t-52.5 -84.5t-72 -58.5l-18 12h258v-65l-20 -20h-387q-67 0 -111.5 -18t-66.5 -46.5t-24 -61.5l-13 42
q17 -53 72.5 -70t146.5 -17h163v-8l-28 -77h-180q-65 0 -115.5 18t-79 52.5t-28.5 85.5q0 29 14.5 60.5t47.5 58.5t87.5 44t134.5 17zM329 46l-32 33q29 1 63 16t65 42t51 64.5t20 82.5q0 66 -41 109t-119 43q-56 0 -101 -16.5t-79 -32.5l16 24q18 -27 30.5 -53t26 -58.5
t31.5 -79.5zM352 618q-23 0 -38.5 15t-15.5 39t15.5 39t38.5 15t38.5 -15t15.5 -39t-15.5 -39t-38.5 -15z" />
    <glyph glyph-name="uni06FC.init" unicode="&#x6fc;" horiz-adv-x="576" 
d="M-20 0v65l20 20h220l-33 -35q-25 13 -48 30.5t-37 45.5t-14 70t18.5 83.5t55.5 84t91.5 87.5t126.5 93h8l32 -76q-93 -65 -146.5 -111.5t-75.5 -84.5t-22 -78q0 -49 40.5 -79t95.5 -30h224v-8l-28 -77h-528zM208 544q-23 0 -38.5 15t-15.5 39t15.5 39t38.5 15t38.5 -15
t15.5 -39t-15.5 -39t-38.5 -15zM173 -162q0 24 15.5 39t38.5 15t38.5 -15t15.5 -39t-15.5 -39t-38.5 -15t-38.5 15t-15.5 39z" />
    <glyph glyph-name="uni06FC.medi" unicode="&#x6fc;" horiz-adv-x="648" 
d="M0 85h220l7 -45l-67 164q-7 18 -20.5 48t-29.5 62.5t-31.5 60t-26.5 41.5v8q32 23 79 44t101.5 34.5t107.5 13.5q75 0 127.5 -28t80.5 -76t28 -108q0 -43 -19.5 -90t-52.5 -86t-72 -60l-18 17h258v-65l-20 -20h-672v65zM317 46l-32 23q48 16 93.5 43.5t75.5 69.5t30 102
q0 66 -41 109t-119 43q-56 0 -101 -16.5t-79 -32.5l16 24q18 -27 30.5 -53t26 -58.5t31.5 -79.5zM308 612q-23 0 -38.5 15t-15.5 39t15.5 39t38.5 15t38.5 -15t15.5 -39t-15.5 -39t-38.5 -15zM250 -162q0 24 15.5 39t38.5 15t38.5 -15t15.5 -39t-15.5 -39t-38.5 -15
t-38.5 15t-15.5 39z" />
    <glyph glyph-name="uni06FC.fina" unicode="&#x6fc;" horiz-adv-x="660" 
d="M276 0q-67 0 -111 -18t-66 -46.5t-24 -61.5l-13 42q14 -53 59.5 -70t119.5 -17h21v-8l-28 -77h-38q-80 0 -131.5 40t-51.5 116q0 29 14.5 60.5t47.5 58.5t87.5 44t134.5 17l-58 -40l-67 164q-7 18 -20.5 48t-29.5 62.5t-31.5 60t-26.5 41.5v8q32 23 79 44t101.5 34.5
t107.5 13.5q75 0 127.5 -28t80.5 -76t28 -108q0 -42 -19.5 -88t-52.5 -84.5t-72 -58.5l-18 12h258v-65l-20 -20h-388zM329 46l-32 33q29 1 63 16t65 42t51 64.5t20 82.5q0 66 -41 109t-119 43q-56 0 -101 -16.5t-79 -32.5l16 24q18 -27 30.5 -53t26 -58.5t31.5 -79.5z
M352 618q-23 0 -38.5 15t-15.5 39t15.5 39t38.5 15t38.5 -15t15.5 -39t-15.5 -39t-38.5 -15zM348 -146q0 24 15.5 39t38.5 15t38.5 -15t15.5 -39t-15.5 -39t-38.5 -15t-38.5 15t-15.5 39z" />
    <glyph glyph-name="uniFB97" unicode="&#x6b3;" horiz-adv-x="1460" arabic-form="final" 
d="M1125 0l108 85h229v-65l-20 -20h-317zM482 368l-16 26h594q39 0 80.5 2t71.5 10h12q25 -23 50.5 -58.5t43.5 -78.5t18 -90q0 -37 -11.5 -69.5t-37.5 -55.5l-62 -36q-24 -9 -54 -13.5t-67 -4.5h-600q-91 0 -184 6t-177 29q-19 6 -37 11.5t-33.5 11t-28.5 11.5l18 81h8
q11 -5 31 -12t40 -13t31 -10q36 -10 80.5 -16.5t94 -9t101.5 -3.5t104 -1h573q60 0 89.5 19.5t29.5 68.5q0 38 -21 85t-61 84l49 -20q-30 -6 -50.5 -8.5t-42.5 -3.5t-58 -1h-608q-22 0 -42 15t-22 58l372 358h8l41 -62zM374 524l334 327h12l24 -36l-354 -339h-12zM812 -145
q-23 0 -38.5 15t-15.5 39t15.5 39t38.5 15t38.5 -15t15.5 -39t-15.5 -39t-38.5 -15zM812 -285q-23 0 -38.5 15t-15.5 39t15.5 39t38.5 15t38.5 -15t15.5 -39t-15.5 -39t-38.5 -15z" />
    <glyph glyph-name="uniFB98" unicode="&#x6b3;" horiz-adv-x="1196" arabic-form="initial" 
d="M-20 0v65l20 20h925q50 0 84.5 19t34.5 69q0 38 -21 85t-61 84l49 -20q-30 -6 -50.5 -8.5t-42.5 -3.5t-58 -1h-708q-22 0 -42 15t-22 58l372 358h8l41 -62l-327 -310l-16 26h694q39 0 80.5 2t71.5 10h12q25 -23 50.5 -58.5t43.5 -78.5t18 -90q0 -39 -14 -71.5t-42.5 -57
t-72.5 -37.5t-103 -13h-924zM74 524l334 327h12l24 -36l-354 -339h-12zM512 -145q-23 0 -38.5 15t-15.5 39t15.5 39t38.5 15t38.5 -15t15.5 -39t-15.5 -39t-38.5 -15zM512 -285q-23 0 -38.5 15t-15.5 39t15.5 39t38.5 15t38.5 -15t15.5 -39t-15.5 -39t-38.5 -15z" />
    <glyph glyph-name="uniFB99" unicode="&#x6b3;" horiz-adv-x="1262" arabic-form="medial" 
d="M925 0l108 85h229v-65l-20 -20h-317zM182 368l-16 26h696q39 0 80.5 2t71.5 10h12q25 -23 50.5 -58.5t43.5 -78.5t18 -90q0 -37 -11.5 -69.5t-37.5 -55.5l-62 -36q-24 -9 -54 -13.5t-67 -4.5h-926v65l20 20h927q60 0 89.5 19.5t29.5 68.5q0 38 -21 85t-61 84l49 -20
q-30 -6 -50.5 -8.5t-42.5 -3.5t-58 -1h-710q-22 0 -42 15t-22 58l372 358h8l41 -62zM74 524l334 327h12l24 -36l-354 -339h-12zM512 -145q-23 0 -38.5 15t-15.5 39t15.5 39t38.5 15t38.5 -15t15.5 -39t-15.5 -39t-38.5 -15zM512 -285q-23 0 -38.5 15t-15.5 39t15.5 39
t38.5 15t38.5 -15t15.5 -39t-15.5 -39t-38.5 -15z" />
    <glyph glyph-name="uniFEA3" unicode="&#x62d;" horiz-adv-x="724" arabic-form="initial" 
d="M-20 0v66l20 20h495l-25 -13q-48 26 -108.5 83.5t-131 143.5t-150.5 196l64 60h8q95 -135 170.5 -226t133 -144.5t97.5 -77t64 -23.5l95 1v-8l-24 -78h-708z" />
    <glyph glyph-name="uniFEA4" unicode="&#x62d;" arabic-form="medial" 
d="M-20 0v66l20 20h495l-25 -13q-48 26 -108.5 83.5t-131 143.5t-150.5 196l64 60h8q95 -135 170.5 -225.5t133 -144.5t97.5 -77t63 -23h20v-66l-20 -20h-636z" />
    <glyph glyph-name="uniFEA2" unicode="&#x62d;" horiz-adv-x="672" arabic-form="final" 
d="M284 0q-67 0 -109 -15.5t-63 -44t-27 -66.5l-12 42q14 -53 69 -70t146 -17h198v-8l-28 -77h-222q-52 0 -102 17.5t-82 51.5t-32 83q0 28 13.5 60.5t45 62t86.5 48t139 18.5h244l-26 -12q-46 26 -105.5 83.5t-130 143t-150.5 196.5l64 60h8q97 -139 174 -230t133.5 -144
t94.5 -75t57 -22h25v-65l-20 -20h-388z" />
    <glyph glyph-name="uni0681.init" unicode="&#x681;" horiz-adv-x="724" 
d="M-20 0v66l20 20h495l-25 -13q-48 26 -108.5 83.5t-131 143.5t-150.5 196l64 60h8q95 -135 170.5 -226t133 -144.5t97.5 -77t64 -23.5l95 1v-8l-24 -78h-708zM354 522q0 32 18 59t51.5 43.5t79.5 16.5h40v-8l-13 -62h-38q-37 0 -58 -16.5t-25 -45.5l-5 19q15 -27 39 -33
t49 -6h49v-7l-11 -63h-54q-40 0 -67.5 15.5t-41 39t-13.5 48.5z" />
    <glyph glyph-name="uni0681.medi" unicode="&#x681;" 
d="M-20 0v66l20 20h495l-25 -13q-48 26 -108.5 83.5t-131 143.5t-150.5 196l64 60h8q95 -135 170.5 -225.5t133 -144.5t97.5 -77t63 -23h20v-66l-20 -20h-636zM354 522q0 32 18 59t51.5 43.5t79.5 16.5h40v-8l-13 -62h-38q-37 0 -58 -16.5t-25 -45.5l-5 19q15 -27 39 -33
t49 -6h49v-7l-11 -63h-54q-40 0 -67.5 15.5t-41 39t-13.5 48.5z" />
    <glyph glyph-name="uni0681.fina" unicode="&#x681;" horiz-adv-x="672" 
d="M284 0q-67 0 -109 -15.5t-63 -44t-27 -66.5l-12 42q14 -53 69 -70t146 -17h198v-8l-28 -77h-222q-52 0 -102 17.5t-82 51.5t-32 83q0 28 13.5 60.5t45 62t86.5 48t139 18.5h244l-26 -12q-46 26 -105.5 83.5t-130 143t-150.5 196.5l64 60h8q97 -139 174 -230t133.5 -144
t94.5 -75t57 -22h25v-65l-20 -20h-388zM410 522q0 32 18 59t51.5 43.5t79.5 16.5h40v-8l-13 -62h-38q-37 0 -58 -16.5t-25 -45.5l-5 19q15 -27 39 -33t49 -6h49v-7l-11 -63h-54q-40 0 -67.5 15.5t-41 39t-13.5 48.5z" />
    <glyph glyph-name="uni0685.init" unicode="&#x685;" horiz-adv-x="724" 
d="M-20 0v66l20 20h495l-25 -13q-48 26 -108.5 83.5t-131 143.5t-150.5 196l64 60h8q95 -135 170.5 -226t133 -144.5t97.5 -77t64 -23.5l95 1v-8l-24 -78h-708zM447 563q-23 0 -38.5 15t-15.5 39t15.5 39t38.5 15t38.5 -15t15.5 -39t-15.5 -39t-38.5 -15zM528 451
q-23 0 -38.5 15t-15.5 39t15.5 39t38.5 15t38.5 -15t15.5 -39t-15.5 -39t-38.5 -15zM397 435q-23 0 -38.5 15t-15.5 39t15.5 39t38.5 15t38.5 -15t15.5 -39t-15.5 -39t-38.5 -15z" />
    <glyph glyph-name="uni0685.medi" unicode="&#x685;" 
d="M-20 0v66l20 20h495l-25 -13q-48 26 -108.5 83.5t-131 143.5t-150.5 196l64 60h8q95 -135 170.5 -225.5t133 -144.5t97.5 -77t63 -23h20v-66l-20 -20h-636zM447 563q-23 0 -38.5 15t-15.5 39t15.5 39t38.5 15t38.5 -15t15.5 -39t-15.5 -39t-38.5 -15zM528 451
q-23 0 -38.5 15t-15.5 39t15.5 39t38.5 15t38.5 -15t15.5 -39t-15.5 -39t-38.5 -15zM397 435q-23 0 -38.5 15t-15.5 39t15.5 39t38.5 15t38.5 -15t15.5 -39t-15.5 -39t-38.5 -15z" />
    <glyph glyph-name="uni0685.fina" unicode="&#x685;" horiz-adv-x="672" 
d="M284 0q-67 0 -109 -15.5t-63 -44t-27 -66.5l-12 42q14 -53 69 -70t146 -17h198v-8l-28 -77h-222q-52 0 -102 17.5t-82 51.5t-32 83q0 28 13.5 60.5t45 62t86.5 48t139 18.5h244l-26 -12q-46 26 -105.5 83.5t-130 143t-150.5 196.5l64 60h8q97 -139 174 -230t133.5 -144
t94.5 -75t57 -22h25v-65l-20 -20h-388zM503 563q-23 0 -38.5 15t-15.5 39t15.5 39t38.5 15t38.5 -15t15.5 -39t-15.5 -39t-38.5 -15zM584 451q-23 0 -38.5 15t-15.5 39t15.5 39t38.5 15t38.5 -15t15.5 -39t-15.5 -39t-38.5 -15zM453 435q-23 0 -38.5 15t-15.5 39t15.5 39
t38.5 15t38.5 -15t15.5 -39t-15.5 -39t-38.5 -15z" />
    <glyph glyph-name="uni0682.init" unicode="&#x682;" horiz-adv-x="724" 
d="M-20 0v66l20 20h495l-25 -13q-48 26 -108.5 83.5t-131 143.5t-150.5 196l64 60h8q95 -135 170.5 -226t133 -144.5t97.5 -77t64 -23.5l95 1v-8l-24 -78h-708zM464 536q-23 0 -38.5 15t-15.5 39t15.5 39t38.5 15t38.5 -15t15.5 -39t-15.5 -39t-38.5 -15zM464 396
q-23 0 -38.5 15t-15.5 39t15.5 39t38.5 15t38.5 -15t15.5 -39t-15.5 -39t-38.5 -15z" />
    <glyph glyph-name="uni0682.medi" unicode="&#x682;" 
d="M-20 0v66l20 20h495l-25 -13q-48 26 -108.5 83.5t-131 143.5t-150.5 196l64 60h8q95 -135 170.5 -225.5t133 -144.5t97.5 -77t63 -23h20v-66l-20 -20h-636zM464 536q-23 0 -38.5 15t-15.5 39t15.5 39t38.5 15t38.5 -15t15.5 -39t-15.5 -39t-38.5 -15zM464 396
q-23 0 -38.5 15t-15.5 39t15.5 39t38.5 15t38.5 -15t15.5 -39t-15.5 -39t-38.5 -15z" />
    <glyph glyph-name="uni0682.fina" unicode="&#x682;" horiz-adv-x="672" 
d="M284 0q-67 0 -109 -15.5t-63 -44t-27 -66.5l-12 42q14 -53 69 -70t146 -17h198v-8l-28 -77h-222q-52 0 -102 17.5t-82 51.5t-32 83q0 28 13.5 60.5t45 62t86.5 48t139 18.5h244l-26 -12q-46 26 -105.5 83.5t-130 143t-150.5 196.5l64 60h8q97 -139 174 -230t133.5 -144
t94.5 -75t57 -22h25v-65l-20 -20h-388zM520 536q-23 0 -38.5 15t-15.5 39t15.5 39t38.5 15t38.5 -15t15.5 -39t-15.5 -39t-38.5 -15zM520 396q-23 0 -38.5 15t-15.5 39t15.5 39t38.5 15t38.5 -15t15.5 -39t-15.5 -39t-38.5 -15z" />
    <glyph glyph-name="uniFEEB" unicode="&#x647;" horiz-adv-x="704" arabic-form="initial" 
d="M-20 0v65l20 20h145q63 0 121 19.5t103.5 53t72 74.5t26.5 84q0 38 -18.5 66t-52 46.5t-79.5 24.5l60 4q-68 -19 -113 -59t-67 -88t-22 -94q0 -72 28 -119t81 -69.5t127 -22.5q42 0 73.5 8.5t58.5 18.5l-20 -50v602l76 8h8v-612q-24 -13 -59 -27t-77 -23.5t-88 -9.5
q-69 0 -124.5 19.5t-95 56t-60 89.5t-20.5 119q0 56 21 110.5t58.5 99t88 71.5t109.5 27t98 -25.5t58.5 -66t19.5 -84.5q0 -51 -24.5 -109t-75 -108.5t-129 -83.5t-187.5 -35h-28h-113z" />
    <glyph glyph-name="uniFEEC" unicode="&#x647;" horiz-adv-x="707" arabic-form="medial" 
d="M727 85v-65l-20 -20q-21 0 -48.5 8t-54 32t-45.5 72l21 2q-4 -86 -37 -143t-86.5 -85t-119.5 -28q-53 0 -99 21.5t-80.5 61.5t-54 94t-19.5 119q0 71 21 135t58.5 114t88 78.5t109.5 28.5q54 0 93.5 -25.5t61 -67t21.5 -91.5q0 -38 -15.5 -82t-47.5 -87.5t-81.5 -78.5
t-117 -56.5t-154.5 -21.5h-28h-113v60l20 25h129q71 0 129.5 19.5t101.5 53t66 74.5t23 84q0 56 -36 90.5t-95 44.5l60 4q-68 -21 -113 -64.5t-67 -101.5t-22 -123q0 -72 25.5 -122t70.5 -75.5t101 -25.5q35 0 66 13t55 33l-28 -39q25 35 36 76t12 70q1 38 -4.5 76.5
t-16.5 79.5l74 27q23 -69 43.5 -112t47.5 -62.5t69 -19.5z" />
    <glyph glyph-name="uniFEEA" unicode="&#x647;" arabic-form="final" 
d="M415 162q-33 -28 -72 -52.5t-83 -24.5t-78 29t-34 86q0 26 5.5 51t19.5 53l-34 -37q44 34 86 59t90 47.5t109 46.5l20 90q-104 -37 -174 -72.5t-112 -69.5t-63 -66.5t-28 -62.5t-7 -58q0 -55 22.5 -95.5t62.5 -63t91 -22.5q44 0 79.5 14.5t62 36t42.5 40.5zM616 0l20 20
v65h-186l38 -38v497h-8l-84 -12v-429l12 12v-115h208z" />
    <glyph glyph-name="uniFCD9" unicode="&#xfcd9;" horiz-adv-x="704" arabic-form="initial" 
d="M-20 0v65l20 20h145q63 0 121 19.5t103.5 53t72 74.5t26.5 84q0 38 -18.5 66t-52 46.5t-79.5 24.5l60 4q-68 -19 -113 -59t-67 -88t-22 -94q0 -72 28 -119t81 -69.5t127 -22.5q42 0 73.5 8.5t58.5 18.5l-20 -50v602l76 8h8v-612q-24 -13 -59 -27t-77 -23.5t-88 -9.5
q-69 0 -124.5 19.5t-95 56t-60 89.5t-20.5 119q0 56 21 110.5t58.5 99t88 71.5t109.5 27t98 -25.5t58.5 -66t19.5 -84.5q0 -51 -24.5 -109t-75 -108.5t-129 -83.5t-187.5 -35h-28h-113zM338 745l50 6l2 -8q-4 -18 -5.5 -44.5t-2 -54t-0.5 -47.5v-24h-44v172z" />
    <glyph glyph-name="uniFBAC" unicode="&#x6be;" horiz-adv-x="704" arabic-form="initial" 
d="M-20 0v65l20 20h145q63 0 121 19.5t103.5 53t72 74.5t26.5 84q0 38 -18.5 66t-52 46.5t-79.5 24.5l60 4q-68 -19 -113 -59t-67 -88t-22 -94q0 -72 28 -119t81 -69.5t127 -22.5q42 0 73.5 8.5t58.5 18.5l-20 -50v602l76 8h8v-612q-24 -13 -59 -27t-77 -23.5t-88 -9.5
q-69 0 -124.5 19.5t-95 56t-60 89.5t-20.5 119q0 56 21 110.5t58.5 99t88 71.5t109.5 27t98 -25.5t58.5 -66t19.5 -84.5q0 -51 -24.5 -109t-75 -108.5t-129 -83.5t-187.5 -35h-28h-113z" />
    <glyph glyph-name="uniFBAD" unicode="&#x6be;" horiz-adv-x="707" arabic-form="medial" 
d="M727 85v-65l-20 -20q-21 0 -48.5 8t-54 32t-45.5 72l21 2q-4 -86 -37 -143t-86.5 -85t-119.5 -28q-53 0 -99 21.5t-80.5 61.5t-54 94t-19.5 119q0 71 21 135t58.5 114t88 78.5t109.5 28.5q54 0 93.5 -25.5t61 -67t21.5 -91.5q0 -38 -15.5 -82t-47.5 -87.5t-81.5 -78.5
t-117 -56.5t-154.5 -21.5h-28h-113v60l20 25h129q71 0 129.5 19.5t101.5 53t66 74.5t23 84q0 56 -36 90.5t-95 44.5l60 4q-68 -21 -113 -64.5t-67 -101.5t-22 -123q0 -72 25.5 -122t70.5 -75.5t101 -25.5q35 0 66 13t55 33l-28 -39q25 35 36 76t12 70q1 38 -4.5 76.5
t-16.5 79.5l74 27q23 -69 43.5 -112t47.5 -62.5t69 -19.5z" />
    <glyph glyph-name="uniFBAB" unicode="&#x6be;" horiz-adv-x="884" arabic-form="final" 
d="M306 -1q-28 0 -63 5.5t-70.5 14t-68.5 19t-59 21.5l18 76h8q25 -9 55 -18t61.5 -16.5t61.5 -11.5t54 -4q71 0 129.5 19.5t101.5 53t66 74.5t23 84q0 56 -36 90.5t-95 44.5l60 4q-68 -21 -113 -64.5t-67 -101.5t-22 -123q0 -72 25.5 -122t67.5 -75.5t93 -25.5
q44 0 85.5 20t73.5 60l-45 -58q22 35 29.5 68.5t8.5 62.5q1 38 -4.5 76.5t-16.5 79.5l74 27q23 -69 43.5 -112t47.5 -62.5t69 -19.5v-65l-20 -20q-21 0 -48.5 8t-54 32t-45.5 72l21 2q-4 -86 -39 -143t-86.5 -85t-107.5 -28q-57 0 -105 21.5t-83.5 61.5t-55 94t-19.5 119
q0 71 21 135t58.5 114t88 78.5t109.5 28.5q54 0 93.5 -25.5t61 -67t21.5 -91.5q0 -45 -21.5 -97.5t-66.5 -101.5t-114 -83t-165 -42z" />
    <glyph glyph-name="uniFBA5" unicode="&#x6c0;" horiz-adv-x="642" arabic-form="final" 
d="M622 0q-64 0 -109 24t-74 68.5t-44 106t-19 136.5l13 -33q-22 -2 -59 -13t-82.5 -27.5t-92.5 -37t-88 -42.5h-8l-19 82q49 27 108.5 52t118 44.5t104.5 29.5l74 -60q15 -96 41 -149.5t64.5 -74.5t91.5 -21v-65zM261 563q0 32 18 59t51.5 43.5t79.5 16.5h40v-8l-13 -62
h-38q-37 0 -58 -16.5t-25 -45.5l-5 19q15 -27 39 -33t49 -6h49v-7l-11 -63h-54q-40 0 -67.5 15.5t-41 39t-13.5 48.5z" />
    <glyph glyph-name="uni06FF.init" unicode="&#x6ff;" horiz-adv-x="704" 
d="M-20 0v65l20 20h145q63 0 121 19.5t103.5 53t72 74.5t26.5 84q0 38 -18.5 66t-52 46.5t-79.5 24.5l60 4q-68 -19 -113 -59t-67 -88t-22 -94q0 -72 28 -119t81 -69.5t127 -22.5q42 0 73.5 8.5t58.5 18.5l-20 -50v602l76 8h8v-612q-24 -13 -59 -27t-77 -23.5t-88 -9.5
q-69 0 -124.5 19.5t-95 56t-60 89.5t-20.5 119q0 56 21 110.5t58.5 99t88 71.5t109.5 27t98 -25.5t58.5 -66t19.5 -84.5q0 -51 -24.5 -109t-75 -108.5t-129 -83.5t-187.5 -35h-28h-113zM420 552l-59 104l-65 -104h-64v4l92 152h76l84 -152v-4h-64z" />
    <glyph glyph-name="uni06FF.medi" unicode="&#x6ff;" horiz-adv-x="707" 
d="M727 85v-65l-20 -20q-21 0 -48.5 8t-54 32t-45.5 72l21 2q-4 -86 -37 -143t-86.5 -85t-119.5 -28q-53 0 -99 21.5t-80.5 61.5t-54 94t-19.5 119q0 71 21 135t58.5 114t88 78.5t109.5 28.5q54 0 93.5 -25.5t61 -67t21.5 -91.5q0 -38 -15.5 -82t-47.5 -87.5t-81.5 -78.5
t-117 -56.5t-154.5 -21.5h-28h-113v60l20 25h129q71 0 129.5 19.5t101.5 53t66 74.5t23 84q0 56 -36 90.5t-95 44.5l60 4q-68 -21 -113 -64.5t-67 -101.5t-22 -123q0 -72 25.5 -122t70.5 -75.5t101 -25.5q35 0 66 13t55 33l-28 -39q25 35 36 76t12 70q1 38 -4.5 76.5
t-16.5 79.5l74 27q23 -69 43.5 -112t47.5 -62.5t69 -19.5zM420 550l-59 104l-65 -104h-64v4l92 152h76l84 -152v-4h-64z" />
    <glyph glyph-name="uni06FF.fina" unicode="&#x6ff;" horiz-adv-x="884" 
d="M306 -1q-28 0 -63 5.5t-70.5 14t-68.5 19t-59 21.5l18 76h8q25 -9 55 -18t61.5 -16.5t61.5 -11.5t54 -4q71 0 129.5 19.5t101.5 53t66 74.5t23 84q0 56 -36 90.5t-95 44.5l60 4q-68 -21 -113 -64.5t-67 -101.5t-22 -123q0 -72 25.5 -122t67.5 -75.5t93 -25.5
q44 0 85.5 20t73.5 60l-45 -58q22 35 29.5 68.5t8.5 62.5q1 38 -4.5 76.5t-16.5 79.5l74 27q23 -69 43.5 -112t47.5 -62.5t69 -19.5v-65l-20 -20q-21 0 -48.5 8t-54 32t-45.5 72l21 2q-4 -86 -39 -143t-86.5 -85t-107.5 -28q-57 0 -105 21.5t-83.5 61.5t-55 94t-19.5 119
q0 71 21 135t58.5 114t88 78.5t109.5 28.5q54 0 93.5 -25.5t61 -67t21.5 -91.5q0 -45 -21.5 -97.5t-66.5 -101.5t-114 -83t-165 -42zM594 550l-59 104l-65 -104h-64v4l92 152h76l84 -152v-4h-64z" />
    <glyph glyph-name="uniFBA8" unicode="&#x6c1;" horiz-adv-x="316" arabic-form="initial" 
d="M166 -57v-8l-10 -8.5t-22 -24t-18 -35.5q27 -1 43 -15.5t16 -38.5q0 -25 -16.5 -42t-45.5 -17q-20 0 -36.5 10t-25.5 29t-9 45q0 18 6 36t17 34t25 30t30 23zM-20 0v65l20 20h174l-34 -21q-4 14 -8 39.5t-4 56.5v332l84 12h8v-332q0 -20 0.5 -46t2 -51t5.5 -43v-8
q-30 -12 -75.5 -18t-108.5 -6h-64z" />
    <glyph glyph-name="uniFBA9" unicode="&#x6c1;" horiz-adv-x="568" arabic-form="medial" 
d="M83 -246q-21 0 -37 10t-25 29t-9 45q0 18 6 36t17 34t25 30t30 23l46 -18v-8l-10 -8.5t-22 -24t-18 -35.5q27 -1 43 -15.5t16 -38.5q0 -25 -16.5 -42t-45.5 -17zM-20 0v65l20 20q59 0 100.5 25.5t72 74t56.5 115.5l78 -30q-16 -47 -32 -100.5t-16 -115.5q0 -45 7 -86
t25.5 -75.5t52.5 -61.5t88 -45l-21 -26q-28 43 -38 77t-10 62q0 51 25.5 93.5t76 67.5t123.5 25v-65l-20 -20q-68 0 -100 -25t-33 -66v-2q0 -28 13.5 -61t40.5 -70l-72 -66q-124 44 -179.5 124.5t-55.5 208.5q0 17 1.5 35t5.5 34l11 1q-29 -57 -84 -83.5t-136 -29.5z" />
    <glyph glyph-name="uniFBA7" unicode="&#x6c1;" horiz-adv-x="642" arabic-form="final" 
d="M622 0q-64 0 -109 24t-74 68.5t-44 106t-19 136.5l13 -33q-22 -2 -59 -13t-82.5 -27.5t-92.5 -37t-88 -42.5h-8l-19 82q49 27 108.5 52t118 44.5t104.5 29.5l74 -60q15 -96 41 -149.5t64.5 -74.5t91.5 -21v-65z" />
    <glyph glyph-name="uni06C2.init" unicode="&#x6c2;" horiz-adv-x="704" 
d="M-20 0v65l20 20h145q63 0 121 19.5t103.5 53t72 74.5t26.5 84q0 38 -18.5 66t-52 46.5t-79.5 24.5l60 4q-68 -19 -113 -59t-67 -88t-22 -94q0 -72 28 -119t81 -69.5t127 -22.5q42 0 73.5 8.5t58.5 18.5l-20 -50v602l76 8h8v-612q-24 -13 -59 -27t-77 -23.5t-88 -9.5
q-69 0 -124.5 19.5t-95 56t-60 89.5t-20.5 119q0 56 21 110.5t58.5 99t88 71.5t109.5 27t98 -25.5t58.5 -66t19.5 -84.5q0 -51 -24.5 -109t-75 -108.5t-129 -83.5t-187.5 -35h-28h-113zM251 685q0 32 18 59t51.5 43.5t79.5 16.5h40v-8l-13 -62h-38q-37 0 -58 -16.5
t-25 -45.5l-5 19q15 -27 39 -33t49 -6h49v-7l-11 -63h-54q-40 0 -67.5 15.5t-41 39t-13.5 48.5z" />
    <glyph glyph-name="uni06C2.medi" unicode="&#x6c2;" horiz-adv-x="707" 
d="M727 85v-65l-20 -20q-21 0 -48.5 8t-54 32t-45.5 72l21 2q-4 -86 -37 -143t-86.5 -85t-119.5 -28q-53 0 -99 21.5t-80.5 61.5t-54 94t-19.5 119q0 71 21 135t58.5 114t88 78.5t109.5 28.5q54 0 93.5 -25.5t61 -67t21.5 -91.5q0 -38 -15.5 -82t-47.5 -87.5t-81.5 -78.5
t-117 -56.5t-154.5 -21.5h-28h-113v60l20 25h129q71 0 129.5 19.5t101.5 53t66 74.5t23 84q0 56 -36 90.5t-95 44.5l60 4q-68 -21 -113 -64.5t-67 -101.5t-22 -123q0 -72 25.5 -122t70.5 -75.5t101 -25.5q35 0 66 13t55 33l-28 -39q25 35 36 76t12 70q1 38 -4.5 76.5
t-16.5 79.5l74 27q23 -69 43.5 -112t47.5 -62.5t69 -19.5zM251 683q0 32 18 59t51.5 43.5t79.5 16.5h40v-8l-13 -62h-38q-37 0 -58 -16.5t-25 -45.5l-5 19q15 -27 39 -33t49 -6h49v-7l-11 -63h-54q-40 0 -67.5 15.5t-41 39t-13.5 48.5z" />
    <glyph glyph-name="uni06C2.fina" unicode="&#x6c2;" horiz-adv-x="642" 
d="M622 0q-64 0 -109 24t-74 68.5t-44 106t-19 136.5l13 -33q-22 -2 -59 -13t-82.5 -27.5t-92.5 -37t-88 -42.5h-8l-19 82q49 27 108.5 52t118 44.5t104.5 29.5l74 -60q15 -96 41 -149.5t64.5 -74.5t91.5 -21v-65zM261 563q0 32 18 59t51.5 43.5t79.5 16.5h40v-8l-13 -62
h-38q-37 0 -58 -16.5t-25 -45.5l-5 19q15 -27 39 -33t49 -6h49v-7l-11 -63h-54q-40 0 -67.5 15.5t-41 39t-13.5 48.5z" />
    <glyph glyph-name="uni0675.fina" unicode="&#x675;" horiz-adv-x="507" 
d="M101 0v85h406v-65l-20 -20h-386zM96 748l100 12v-8q-4 -18 -5.5 -45t-2 -55t-0.5 -48v-604h-92v748zM257 641q0 32 18 59t51.5 43.5t79.5 16.5h40v-8l-13 -62h-38q-37 0 -58 -16.5t-25 -45.5l-5 19q15 -27 39 -33t49 -6h49v-7l-11 -63h-54q-40 0 -67.5 15.5t-41 39
t-13.5 48.5z" />
    <glyph glyph-name="uni0676.fina" unicode="&#x676;" horiz-adv-x="648" 
d="M339 609q0 32 18 59t51.5 43.5t79.5 16.5h40v-8l-13 -62h-38q-37 0 -58 -16.5t-25 -45.5l-5 19q15 -27 39 -33t49 -6h49v-7l-11 -63h-54q-40 0 -67.5 15.5t-41 39t-13.5 48.5zM60 224q0 53 20.5 98.5t55 80t76.5 54t84 19.5q50 0 96.5 -25.5t83.5 -70t58.5 -102
t21.5 -122.5q0 -130 -34.5 -223.5t-102 -143t-167.5 -49.5q-54 0 -96.5 12t-67 24l-24.5 12l32 72h8q38 -21 81.5 -30.5t82.5 -9.5q49 0 81 5.5t63 16.5l-36 -26q35 41 54 90.5t26.5 106t7.5 119.5q0 42 -11 86.5t-35 84.5t-63 70t-96 43l58 12q-86 -31 -125.5 -87.5
t-39.5 -114.5q0 -44 23.5 -75.5t67.5 -48.5t105 -17h157h24h139v-65l-20 -20h-320q-72 0 -133 24t-98 74t-37 126z" />
    <glyph glyph-name="uni0678.init" unicode="&#x678;" horiz-adv-x="316" 
d="M63 661q0 32 18 59t51.5 43.5t79.5 16.5h40v-8l-13 -62h-38q-37 0 -58 -16.5t-25 -45.5l-5 19q15 -27 39 -33t49 -6h49v-7l-11 -63h-54q-40 0 -67.5 15.5t-41 39t-13.5 48.5zM-20 0v65l20 20h174l-34 -21q-4 14 -8 39.5t-4 56.5v332l84 12h8v-332q0 -20 0.5 -46t2 -51
t5.5 -43v-8q-30 -12 -75.5 -18t-108.5 -6h-64z" />
    <glyph glyph-name="uni0678.medi" unicode="&#x678;" horiz-adv-x="367" 
d="M63 661q0 32 18 59t51.5 43.5t79.5 16.5h40v-8l-13 -62h-38q-37 0 -58 -16.5t-25 -45.5l-5 19q15 -27 39 -33t49 -6h49v-7l-11 -63h-54q-40 0 -67.5 15.5t-41 39t-13.5 48.5zM0 85h173l-34 -21q-4 14 -8 39.5t-4 56.5v332l84 12h8v-457l-38 38h186v-65l-20 -20h-367v65z
" />
    <glyph glyph-name="uni0678.fina" unicode="&#x678;" horiz-adv-x="975" 
d="M-42 103q0 32 18 59t51.5 43.5t79.5 16.5h40v-8l-13 -62h-38q-37 0 -58 -16.5t-25 -45.5l-5 19q15 -27 39 -33t49 -6h49v-7l-11 -63h-54q-40 0 -67.5 15.5t-41 39t-13.5 48.5zM731 0q-54 0 -87.5 22.5t-53.5 58t-36 72.5l-81 194l19 -11q-27 -3 -60.5 -16.5t-58 -35
t-24.5 -48.5q0 -26 16 -55t40 -59t48 -58.5t40 -53t16 -42.5q0 -58 -39 -111.5t-112.5 -87t-176.5 -33.5q-65 0 -110 10t-68 20l-23 10l21 77h8q19 -6 44.5 -13.5t62.5 -13t89 -5.5q87 0 151 36t99 94l-2 -36q-18 27 -49.5 64t-64.5 78t-55.5 83t-22.5 80q0 52 26.5 89.5
t67 62.5t86 40.5t84.5 23.5h8l83 -209q19 -47 35 -78.5t39 -47.5t61 -16v-65z" />
    <glyph glyph-name="uniFE9F" unicode="&#x62c;" horiz-adv-x="724" arabic-form="initial" 
d="M-20 0v66l20 20h495l-25 -13q-48 26 -108.5 83.5t-131 143.5t-150.5 196l64 60h8q95 -135 170.5 -226t133 -144.5t97.5 -77t64 -23.5l95 1v-8l-24 -78h-708zM213 -163q0 24 15.5 39t38.5 15t38.5 -15t15.5 -39t-15.5 -39t-38.5 -15t-38.5 15t-15.5 39z" />
    <glyph glyph-name="uniFEA0" unicode="&#x62c;" arabic-form="medial" 
d="M-20 0v66l20 20h495l-25 -13q-48 26 -108.5 83.5t-131 143.5t-150.5 196l64 60h8q95 -135 170.5 -225.5t133 -144.5t97.5 -77t63 -23h20v-66l-20 -20h-636zM218 -162q0 24 15.5 39t38.5 15t38.5 -15t15.5 -39t-15.5 -39t-38.5 -15t-38.5 15t-15.5 39z" />
    <glyph glyph-name="uniFE9E" unicode="&#x62c;" horiz-adv-x="672" arabic-form="final" 
d="M284 0q-67 0 -109 -15.5t-63 -44t-27 -66.5l-12 42q14 -53 69 -70t146 -17h44v-8l-28 -77h-68q-52 0 -102 17.5t-82 51.5t-32 83q0 28 13.5 60.5t45 62t86.5 48t139 18.5h244l-26 -12q-46 26 -105.5 83.5t-130 143t-150.5 196.5l64 60h8q97 -139 174 -230t133.5 -144
t94.5 -75t57 -22h25v-65l-20 -20h-388zM438 -173q0 24 15.5 39t38.5 15t38.5 -15t15.5 -39t-15.5 -39t-38.5 -15t-38.5 15t-15.5 39z" />
    <glyph glyph-name="uniFB8B" unicode="&#x698;" horiz-adv-x="504" arabic-form="final" 
d="M326 0v85h178v-65l-20 -20h-158zM-32 -168q19 -5 43.5 -8.5t52.5 -3.5q41 0 83 7t78 25l-31 -24q19 31 33.5 72.5t23.5 100.5t9 143q0 81 -5.5 150t-13.5 134l88 12h8q8 -64 11.5 -132t3.5 -160q0 -105 -17.5 -181.5t-53.5 -127t-92 -75t-133 -24.5q-26 0 -51 2t-41 4
l-16 2v8zM261 654q-23 0 -38.5 15t-15.5 39t15.5 39t38.5 15t38.5 -15t15.5 -39t-15.5 -39t-38.5 -15zM342 542q-23 0 -38.5 15t-15.5 39t15.5 39t38.5 15t38.5 -15t15.5 -39t-15.5 -39t-38.5 -15zM211 526q-23 0 -38.5 15t-15.5 39t15.5 39t38.5 15t38.5 -15t15.5 -39
t-15.5 -39t-38.5 -15z" />
    <glyph glyph-name="uniFEDB" unicode="&#x643;" horiz-adv-x="1196" arabic-form="initial" 
d="M-20 0v65l20 20h925q60 0 89.5 19t29.5 69q0 38 -21 85t-61 84l49 -20q-30 -6 -50.5 -8.5t-42.5 -3.5t-58 -1h-708q-22 0 -42 15t-22 58l372 358h8l41 -62l-327 -310l-16 26h694q39 0 80.5 2t71.5 10h12q25 -23 50.5 -58.5t43.5 -78.5t18 -90q0 -39 -12.5 -71.5
t-40.5 -57t-72 -37.5t-107 -13h-924z" />
    <glyph glyph-name="uniFEDC" unicode="&#x643;" horiz-adv-x="1262" arabic-form="medial" 
d="M925 0l108 85h229v-65l-20 -20h-317zM-20 0v65l20 20h925q60 0 89.5 19.5t29.5 68.5q0 38 -21 85t-61 84l49 -20q-30 -6 -50.5 -8.5t-42.5 -3.5t-58 -1h-708q-22 0 -42 15t-22 58l372 358h8l41 -62l-327 -310l-16 26h694q39 0 80.5 2t71.5 10h12q25 -23 50.5 -58.5
t43.5 -78.5t18 -90q0 -37 -11.5 -69.5t-37.5 -55.5l-62 -36q-24 -9 -54 -13.5t-67 -4.5h-924z" />
    <glyph glyph-name="uniFEDA" unicode="&#x643;" horiz-adv-x="1216" arabic-form="final" 
d="M810 0v85h406v-65l-20 -20h-386zM972 -1l-464 1q-91 0 -184 5.5t-177 29.5q-19 6 -37 11.5t-33.5 11t-28.5 11.5l18 81h8q11 -5 31 -12t40 -13t31 -10q36 -11 80.5 -17t94 -9t101.5 -3.5t104 -0.5h352l-28 -16v679l100 12v-8q-4 -18 -5.5 -45t-2 -55t-0.5 -48v-605z
M636 450q23 -10 36.5 -24.5t13.5 -41.5q0 -40 -33 -63.5t-97 -23.5h-95v12l19 59h103q22 0 22 15q0 6 -5 9.5t-16 8.5l-35 17q-24 11 -35.5 26t-11.5 37q0 32 25 53t74 37l54 18l4 -7l-4 -58l-54 -18q-17 -6 -29 -11t-21 -14l8 15q1 -8 10.5 -14t26.5 -14z" />
    <glyph glyph-name="uni06AC.init" unicode="&#x6ac;" horiz-adv-x="1196" 
d="M-20 0v65l20 20h925q60 0 89.5 19t29.5 69q0 38 -21 85t-61 84l49 -20q-30 -6 -50.5 -8.5t-42.5 -3.5t-58 -1h-708q-22 0 -42 15t-22 58l372 358h8l41 -62l-327 -310l-16 26h694q39 0 80.5 2t71.5 10h12q25 -23 50.5 -58.5t43.5 -78.5t18 -90q0 -39 -12.5 -71.5
t-40.5 -57t-72 -37.5t-107 -13h-924zM102 662q-23 0 -38.5 15t-15.5 39t15.5 39t38.5 15t38.5 -15t15.5 -39t-15.5 -39t-38.5 -15z" />
    <glyph glyph-name="uni06AC.medi" unicode="&#x6ac;" horiz-adv-x="1262" 
d="M925 0l108 85h229v-65l-20 -20h-317zM-20 0v65l20 20h925q60 0 89.5 19.5t29.5 68.5q0 38 -21 85t-61 84l49 -20q-30 -6 -50.5 -8.5t-42.5 -3.5t-58 -1h-708q-22 0 -42 15t-22 58l372 358h8l41 -62l-327 -310l-16 26h694q39 0 80.5 2t71.5 10h12q25 -23 50.5 -58.5
t43.5 -78.5t18 -90q0 -37 -11.5 -69.5t-37.5 -55.5l-62 -36q-24 -9 -54 -13.5t-67 -4.5h-924zM102 662q-23 0 -38.5 15t-15.5 39t15.5 39t38.5 15t38.5 -15t15.5 -39t-15.5 -39t-38.5 -15z" />
    <glyph glyph-name="uni06AC.fina" unicode="&#x6ac;" horiz-adv-x="1216" 
d="M810 0v85h406v-65l-20 -20h-386zM972 -1l-464 1q-91 0 -184 5.5t-177 29.5q-19 6 -37 11.5t-33.5 11t-28.5 11.5l18 81h8q11 -5 31 -12t40 -13t31 -10q36 -11 80.5 -17t94 -9t101.5 -3.5t104 -0.5h352l-28 -16v679l100 12v-8q-4 -18 -5.5 -45t-2 -55t-0.5 -48v-605z
M636 450q23 -10 36.5 -24.5t13.5 -41.5q0 -40 -33 -63.5t-97 -23.5h-95v12l19 59h103q22 0 22 15q0 6 -5 9.5t-16 8.5l-35 17q-24 11 -35.5 26t-11.5 37q0 32 25 53t74 37l54 18l4 -7l-4 -58l-54 -18q-17 -6 -29 -11t-21 -14l8 15q1 -8 10.5 -14t26.5 -14zM571 673
q-23 0 -38.5 15t-15.5 39t15.5 39t38.5 15t38.5 -15t15.5 -39t-15.5 -39t-38.5 -15z" />
    <glyph glyph-name="uni06AB.init" unicode="&#x6ab;" horiz-adv-x="1196" 
d="M-20 0v65l20 20h925q60 0 89.5 19t29.5 69q0 38 -21 85t-61 84l49 -20q-30 -6 -50.5 -8.5t-42.5 -3.5t-58 -1h-708q-22 0 -42 15t-22 58l372 358h8l41 -62l-327 -310l-16 26h694q39 0 80.5 2t71.5 10h12q25 -23 50.5 -58.5t43.5 -78.5t18 -90q0 -39 -12.5 -71.5
t-40.5 -57t-72 -37.5t-107 -13h-924zM433 630q32 0 58.5 -24.5t26.5 -68.5q0 -25 -12.5 -47t-33.5 -35.5t-49 -13.5q-43 0 -66.5 26.5t-23.5 60.5q0 27 13 50.5t36 37.5t51 14zM465 599q-28 2 -46.5 -9.5t-27.5 -29t-9 -33.5q0 -21 12 -35t31 -14q15 0 28.5 10t21 23.5
t2.5 24.5l-3 -49q5 21 1 40t-13 35t-22 27t-27 16z" />
    <glyph glyph-name="uni06AB.medi" unicode="&#x6ab;" horiz-adv-x="1262" 
d="M925 0l108 85h229v-65l-20 -20h-317zM-20 0v65l20 20h925q60 0 89.5 19.5t29.5 68.5q0 38 -21 85t-61 84l49 -20q-30 -6 -50.5 -8.5t-42.5 -3.5t-58 -1h-708q-22 0 -42 15t-22 58l372 358h8l41 -62l-327 -310l-16 26h694q39 0 80.5 2t71.5 10h12q25 -23 50.5 -58.5
t43.5 -78.5t18 -90q0 -37 -11.5 -69.5t-37.5 -55.5l-62 -36q-24 -9 -54 -13.5t-67 -4.5h-924zM433 630q32 0 58.5 -24.5t26.5 -68.5q0 -25 -12.5 -47t-33.5 -35.5t-49 -13.5q-43 0 -66.5 26.5t-23.5 60.5q0 27 13 50.5t36 37.5t51 14zM465 599q-28 2 -46.5 -9.5t-27.5 -29
t-9 -33.5q0 -21 12 -35t31 -14q15 0 28.5 10t21 23.5t2.5 24.5l-3 -49q5 21 1 40t-13 35t-22 27t-27 16z" />
    <glyph glyph-name="uni06AB.fina" unicode="&#x6ab;" horiz-adv-x="1460" 
d="M1125 0l108 85h229v-65l-20 -20h-317zM482 368l-16 26h594q39 0 80.5 2t71.5 10h12q25 -23 50.5 -58.5t43.5 -78.5t18 -90q0 -37 -11.5 -69.5t-37.5 -55.5l-62 -36q-24 -9 -54 -13.5t-67 -4.5h-600q-91 0 -184 6t-177 29q-19 6 -37 11.5t-33.5 11t-28.5 11.5l18 81h8
q11 -5 31 -12t40 -13t31 -10q36 -10 80.5 -16.5t94 -9t101.5 -3.5t104 -1h573q60 0 89.5 19.5t29.5 68.5q0 38 -21 85t-61 84l49 -20q-30 -6 -50.5 -8.5t-42.5 -3.5t-58 -1h-608q-22 0 -42 15t-22 58l372 358h8l41 -62zM737 630q32 0 58.5 -24.5t26.5 -68.5q0 -25 -12.5 -47
t-33.5 -35.5t-49 -13.5q-43 0 -66.5 26.5t-23.5 60.5q0 27 13 50.5t36 37.5t51 14zM769 599q-28 2 -46.5 -9.5t-27.5 -29t-9 -33.5q0 -21 12 -35t31 -14q15 0 28.5 10t21 23.5t2.5 24.5l-3 -49q5 21 1 40t-13 35t-22 27t-27 16z" />
    <glyph glyph-name="uni06AE.init" unicode="&#x6ae;" horiz-adv-x="1196" 
d="M-20 0v65l20 20h925q60 0 89.5 19t29.5 69q0 38 -21 85t-61 84l49 -20q-30 -6 -50.5 -8.5t-42.5 -3.5t-58 -1h-708q-22 0 -42 15t-22 58l372 358h8l41 -62l-327 -310l-16 26h694q39 0 80.5 2t71.5 10h12q25 -23 50.5 -58.5t43.5 -78.5t18 -90q0 -39 -12.5 -71.5
t-40.5 -57t-72 -37.5t-107 -13h-924zM528 -122q0 24 15.5 39t38.5 15t38.5 -15t15.5 -39t-15.5 -39t-38.5 -15t-38.5 15t-15.5 39zM397 -138q0 24 15.5 39t38.5 15t38.5 -15t15.5 -39t-15.5 -39t-38.5 -15t-38.5 15t-15.5 39zM478 -250q0 24 15.5 39t38.5 15t38.5 -15
t15.5 -39t-15.5 -39t-38.5 -15t-38.5 15t-15.5 39z" />
    <glyph glyph-name="uni06AE.medi" unicode="&#x6ae;" horiz-adv-x="1262" 
d="M925 0l108 85h229v-65l-20 -20h-317zM-20 0v65l20 20h925q60 0 89.5 19.5t29.5 68.5q0 38 -21 85t-61 84l49 -20q-30 -6 -50.5 -8.5t-42.5 -3.5t-58 -1h-708q-22 0 -42 15t-22 58l372 358h8l41 -62l-327 -310l-16 26h694q39 0 80.5 2t71.5 10h12q25 -23 50.5 -58.5
t43.5 -78.5t18 -90q0 -37 -11.5 -69.5t-37.5 -55.5l-62 -36q-24 -9 -54 -13.5t-67 -4.5h-924zM528 -122q0 24 15.5 39t38.5 15t38.5 -15t15.5 -39t-15.5 -39t-38.5 -15t-38.5 15t-15.5 39zM397 -138q0 24 15.5 39t38.5 15t38.5 -15t15.5 -39t-15.5 -39t-38.5 -15t-38.5 15
t-15.5 39zM478 -250q0 24 15.5 39t38.5 15t38.5 -15t15.5 -39t-15.5 -39t-38.5 -15t-38.5 15t-15.5 39z" />
    <glyph glyph-name="uni06AE.fina" unicode="&#x6ae;" horiz-adv-x="1216" 
d="M810 0v85h406v-65l-20 -20h-386zM972 -1l-464 1q-91 0 -184 5.5t-177 29.5q-19 6 -37 11.5t-33.5 11t-28.5 11.5l18 81h8q11 -5 31 -12t40 -13t31 -10q36 -11 80.5 -17t94 -9t101.5 -3.5t104 -0.5h352l-28 -16v679l100 12v-8q-4 -18 -5.5 -45t-2 -55t-0.5 -48v-605z
M636 450q23 -10 36.5 -24.5t13.5 -41.5q0 -40 -33 -63.5t-97 -23.5h-95v12l19 59h103q22 0 22 15q0 6 -5 9.5t-16 8.5l-35 17q-24 11 -35.5 26t-11.5 37q0 32 25 53t74 37l54 18l4 -7l-4 -58l-54 -18q-17 -6 -29 -11t-21 -14l8 15q1 -8 10.5 -14t26.5 -14zM572 -122
q0 24 15.5 39t38.5 15t38.5 -15t15.5 -39t-15.5 -39t-38.5 -15t-38.5 15t-15.5 39zM441 -138q0 24 15.5 39t38.5 15t38.5 -15t15.5 -39t-15.5 -39t-38.5 -15t-38.5 15t-15.5 39zM522 -250q0 24 15.5 39t38.5 15t38.5 -15t15.5 -39t-15.5 -39t-38.5 -15t-38.5 15t-15.5 39z
" />
    <glyph glyph-name="uniFE7B" unicode="&#xfe7b;" horiz-adv-x="162" arabic-form="medial" 
d="M162 85v-65l-20 -20h-162v65l20 20h162zM-47 -220v56l258 84h8v-56l-258 -84h-8z" />
    <glyph glyph-name="uniFB90" unicode="&#x6a9;" horiz-adv-x="1196" arabic-form="initial" 
d="M-20 0v65l20 20h925q50 0 84.5 19t34.5 69q0 38 -21 85t-61 84l49 -20q-30 -6 -50.5 -8.5t-42.5 -3.5t-58 -1h-708q-22 0 -42 15t-22 58l372 358h8l41 -62l-327 -310l-16 26h694q39 0 80.5 2t71.5 10h12q25 -23 50.5 -58.5t43.5 -78.5t18 -90q0 -39 -14 -71.5t-42.5 -57
t-72.5 -37.5t-103 -13h-924z" />
    <glyph glyph-name="uniFB91" unicode="&#x6a9;" horiz-adv-x="1262" arabic-form="medial" 
d="M925 0l108 85h229v-65l-20 -20h-317zM182 368l-16 26h696q39 0 80.5 2t71.5 10h12q25 -23 50.5 -58.5t43.5 -78.5t18 -90q0 -37 -11.5 -69.5t-37.5 -55.5l-62 -36q-24 -9 -54 -13.5t-67 -4.5h-926v65l20 20h927q60 0 89.5 19.5t29.5 68.5q0 38 -21 85t-61 84l49 -20
q-30 -6 -50.5 -8.5t-42.5 -3.5t-58 -1h-710q-22 0 -42 15t-22 58l372 358h8l41 -62z" />
    <glyph glyph-name="uniFB8F" unicode="&#x6a9;" horiz-adv-x="1460" arabic-form="final" 
d="M1125 0l108 85h229v-65l-20 -20h-317zM482 368l-16 26h594q39 0 80.5 2t71.5 10h12q25 -23 50.5 -58.5t43.5 -78.5t18 -90q0 -37 -11.5 -69.5t-37.5 -55.5l-62 -36q-24 -9 -54 -13.5t-67 -4.5h-600q-91 0 -184 6t-177 29q-19 6 -37 11.5t-33.5 11t-28.5 11.5l18 81h8
q11 -5 31 -12t40 -13t31 -10q36 -10 80.5 -16.5t94 -9t101.5 -3.5t104 -1h573q60 0 89.5 19.5t29.5 68.5q0 38 -21 85t-61 84l49 -20q-30 -6 -50.5 -8.5t-42.5 -3.5t-58 -1h-608q-22 0 -42 15t-22 58l372 358h8l41 -62z" />
    <glyph glyph-name="uni063C.init" unicode="&#x63c;" horiz-adv-x="1196" 
d="M-20 0v65l20 20h925q50 0 84.5 19t34.5 69q0 38 -21 85t-61 84l49 -20q-30 -6 -50.5 -8.5t-42.5 -3.5t-58 -1h-708q-22 0 -42 15t-22 58l372 358h8l41 -62l-327 -310l-16 26h694q39 0 80.5 2t71.5 10h12q25 -23 50.5 -58.5t43.5 -78.5t18 -90q0 -39 -14 -71.5t-42.5 -57
t-72.5 -37.5t-103 -13h-924zM528 -122q0 24 15.5 39t38.5 15t38.5 -15t15.5 -39t-15.5 -39t-38.5 -15t-38.5 15t-15.5 39zM397 -138q0 24 15.5 39t38.5 15t38.5 -15t15.5 -39t-15.5 -39t-38.5 -15t-38.5 15t-15.5 39zM478 -250q0 24 15.5 39t38.5 15t38.5 -15t15.5 -39
t-15.5 -39t-38.5 -15t-38.5 15t-15.5 39z" />
    <glyph glyph-name="uni063C.medi" unicode="&#x63c;" horiz-adv-x="1262" 
d="M925 0l108 85h229v-65l-20 -20h-317zM182 368l-16 26h696q39 0 80.5 2t71.5 10h12q25 -23 50.5 -58.5t43.5 -78.5t18 -90q0 -37 -11.5 -69.5t-37.5 -55.5l-62 -36q-24 -9 -54 -13.5t-67 -4.5h-926v65l20 20h927q60 0 89.5 19.5t29.5 68.5q0 38 -21 85t-61 84l49 -20
q-30 -6 -50.5 -8.5t-42.5 -3.5t-58 -1h-710q-22 0 -42 15t-22 58l372 358h8l41 -62zM528 -122q0 24 15.5 39t38.5 15t38.5 -15t15.5 -39t-15.5 -39t-38.5 -15t-38.5 15t-15.5 39zM397 -138q0 24 15.5 39t38.5 15t38.5 -15t15.5 -39t-15.5 -39t-38.5 -15t-38.5 15t-15.5 39z
M478 -250q0 24 15.5 39t38.5 15t38.5 -15t15.5 -39t-15.5 -39t-38.5 -15t-38.5 15t-15.5 39z" />
    <glyph glyph-name="uni063C.fina" unicode="&#x63c;" horiz-adv-x="1460" 
d="M1125 0l108 85h229v-65l-20 -20h-317zM482 368l-16 26h594q39 0 80.5 2t71.5 10h12q25 -23 50.5 -58.5t43.5 -78.5t18 -90q0 -37 -11.5 -69.5t-37.5 -55.5l-62 -36q-24 -9 -54 -13.5t-67 -4.5h-600q-91 0 -184 6t-177 29q-19 6 -37 11.5t-33.5 11t-28.5 11.5l18 81h8
q11 -5 31 -12t40 -13t31 -10q36 -10 80.5 -16.5t94 -9t101.5 -3.5t104 -1h573q60 0 89.5 19.5t29.5 68.5q0 38 -21 85t-61 84l49 -20q-30 -6 -50.5 -8.5t-42.5 -3.5t-58 -1h-608q-22 0 -42 15t-22 58l372 358h8l41 -62zM828 -122q0 24 15.5 39t38.5 15t38.5 -15t15.5 -39
t-15.5 -39t-38.5 -15t-38.5 15t-15.5 39zM697 -138q0 24 15.5 39t38.5 15t38.5 -15t15.5 -39t-15.5 -39t-38.5 -15t-38.5 15t-15.5 39zM778 -250q0 24 15.5 39t38.5 15t38.5 -15t15.5 -39t-15.5 -39t-38.5 -15t-38.5 15t-15.5 39z" />
    <glyph glyph-name="uni063B.init" unicode="&#x63b;" horiz-adv-x="1196" 
d="M-20 0v65l20 20h925q50 0 84.5 19t34.5 69q0 38 -21 85t-61 84l49 -20q-30 -6 -50.5 -8.5t-42.5 -3.5t-58 -1h-708q-22 0 -42 15t-22 58l372 358h8l41 -62l-327 -310l-16 26h694q39 0 80.5 2t71.5 10h12q25 -23 50.5 -58.5t43.5 -78.5t18 -90q0 -39 -14 -71.5t-42.5 -57
t-72.5 -37.5t-103 -13h-924zM168 672q-23 0 -38.5 15t-15.5 39t15.5 39t38.5 15t38.5 -15t15.5 -39t-15.5 -39t-38.5 -15zM37 654q-23 0 -38.5 15t-15.5 39t15.5 39t38.5 15t38.5 -15t15.5 -39t-15.5 -39t-38.5 -15z" />
    <glyph glyph-name="uni063B.medi" unicode="&#x63b;" horiz-adv-x="1262" 
d="M925 0l108 85h229v-65l-20 -20h-317zM182 368l-16 26h696q39 0 80.5 2t71.5 10h12q25 -23 50.5 -58.5t43.5 -78.5t18 -90q0 -37 -11.5 -69.5t-37.5 -55.5l-62 -36q-24 -9 -54 -13.5t-67 -4.5h-926v65l20 20h927q60 0 89.5 19.5t29.5 68.5q0 38 -21 85t-61 84l49 -20
q-30 -6 -50.5 -8.5t-42.5 -3.5t-58 -1h-710q-22 0 -42 15t-22 58l372 358h8l41 -62zM168 672q-23 0 -38.5 15t-15.5 39t15.5 39t38.5 15t38.5 -15t15.5 -39t-15.5 -39t-38.5 -15zM37 654q-23 0 -38.5 15t-15.5 39t15.5 39t38.5 15t38.5 -15t15.5 -39t-15.5 -39t-38.5 -15z
" />
    <glyph glyph-name="uni063B.fina" unicode="&#x63b;" horiz-adv-x="1460" 
d="M1125 0l108 85h229v-65l-20 -20h-317zM482 368l-16 26h594q39 0 80.5 2t71.5 10h12q25 -23 50.5 -58.5t43.5 -78.5t18 -90q0 -37 -11.5 -69.5t-37.5 -55.5l-62 -36q-24 -9 -54 -13.5t-67 -4.5h-600q-91 0 -184 6t-177 29q-19 6 -37 11.5t-33.5 11t-28.5 11.5l18 81h8
q11 -5 31 -12t40 -13t31 -10q36 -10 80.5 -16.5t94 -9t101.5 -3.5t104 -1h573q60 0 89.5 19.5t29.5 68.5q0 38 -21 85t-61 84l49 -20q-30 -6 -50.5 -8.5t-42.5 -3.5t-58 -1h-608q-22 0 -42 15t-22 58l372 358h8l41 -62zM468 672q-23 0 -38.5 15t-15.5 39t15.5 39t38.5 15
t38.5 -15t15.5 -39t-15.5 -39t-38.5 -15zM337 654q-23 0 -38.5 15t-15.5 39t15.5 39t38.5 15t38.5 -15t15.5 -39t-15.5 -39t-38.5 -15z" />
    <glyph glyph-name="uniFEA7" unicode="&#x62e;" horiz-adv-x="724" arabic-form="initial" 
d="M-20 0v66l20 20h495l-25 -13q-48 26 -108.5 83.5t-131 143.5t-150.5 196l64 60h8q95 -135 170.5 -226t133 -144.5t97.5 -77t64 -23.5l95 1v-8l-24 -78h-708zM464 451q-23 0 -38.5 15t-15.5 39t15.5 39t38.5 15t38.5 -15t15.5 -39t-15.5 -39t-38.5 -15z" />
    <glyph glyph-name="uniFEA8" unicode="&#x62e;" arabic-form="medial" 
d="M-20 0v66l20 20h495l-25 -13q-48 26 -108.5 83.5t-131 143.5t-150.5 196l64 60h8q95 -135 170.5 -225.5t133 -144.5t97.5 -77t63 -23h20v-66l-20 -20h-636zM464 451q-23 0 -38.5 15t-15.5 39t15.5 39t38.5 15t38.5 -15t15.5 -39t-15.5 -39t-38.5 -15z" />
    <glyph glyph-name="uniFEA6" unicode="&#x62e;" horiz-adv-x="672" arabic-form="final" 
d="M284 0q-67 0 -109 -15.5t-63 -44t-27 -66.5l-12 42q14 -53 69 -70t146 -17h198v-8l-28 -77h-222q-52 0 -102 17.5t-82 51.5t-32 83q0 28 13.5 60.5t45 62t86.5 48t139 18.5h244l-26 -12q-46 26 -105.5 83.5t-130 143t-150.5 196.5l64 60h8q97 -139 174 -230t133.5 -144
t94.5 -75t57 -22h25v-65l-20 -20h-388zM520 451q-23 0 -38.5 15t-15.5 39t15.5 39t38.5 15t38.5 -15t15.5 -39t-15.5 -39t-38.5 -15z" />
    <glyph glyph-name="uniFBE1" unicode="&#x6c5;" horiz-adv-x="648" arabic-form="final" 
d="M300 -101v40h250v-40h-250zM60 224q0 53 20.5 98.5t55 80t76.5 54t84 19.5q50 0 96.5 -25.5t83.5 -70t58.5 -102t21.5 -122.5q0 -130 -34.5 -223.5t-102 -143t-167.5 -49.5q-54 0 -96.5 12t-67 24l-24.5 12l32 72h8q38 -21 81.5 -30.5t82.5 -9.5q49 0 81 5.5t63 16.5
l-36 -26q35 41 54 90.5t26.5 106t7.5 119.5q0 42 -11 86.5t-35 84.5t-63 70t-96 43l58 12q-86 -31 -125.5 -87.5t-39.5 -114.5q0 -44 23.5 -75.5t67.5 -48.5t105 -17h157h24h139v-65l-20 -20h-320q-72 0 -133 24t-98 74t-37 126z" />
    <glyph glyph-name="uniFBE3" unicode="&#x6c9;" horiz-adv-x="648" arabic-form="final" 
d="M60 224q0 53 20.5 98.5t55 80t76.5 54t84 19.5q50 0 96.5 -25.5t83.5 -70t58.5 -102t21.5 -122.5q0 -130 -34.5 -223.5t-102 -143t-167.5 -49.5q-54 0 -96.5 12t-67 24l-24.5 12l32 72h8q38 -21 81.5 -30.5t82.5 -9.5q49 0 81 5.5t63 16.5l-36 -26q35 41 54 90.5
t26.5 106t7.5 119.5q0 42 -11 86.5t-35 84.5t-63 70t-96 43l58 12q-86 -31 -125.5 -87.5t-39.5 -114.5q0 -44 23.5 -75.5t67.5 -48.5t105 -17h157h24h139v-65l-20 -20h-320q-72 0 -133 24t-98 74t-37 126zM355 516l-59 104l-65 -104h-64v4l92 152h76l84 -152v-4h-64z" />
    <glyph glyph-name="uniFEDF" unicode="&#x644;" horiz-adv-x="316" arabic-form="initial" 
d="M-20 0v65l20 20h174l-34 -21q-4 14 -8 39.5t-4 56.5v588l84 12h8v-588q0 -20 0.5 -46t2 -51t5.5 -43v-8q-30 -12 -75.5 -18t-108.5 -6h-64z" />
    <glyph glyph-name="uniFEE0" unicode="&#x644;" horiz-adv-x="374" arabic-form="medial" 
d="M-20 0v65l20 20h180l-34 -21q-4 14 -8 39.5t-4 56.5v588l84 12h8v-718l-38 43h186v-65l-20 -20h-374z" />
    <glyph glyph-name="uniFEDE" unicode="&#x644;" horiz-adv-x="592" arabic-form="final" 
d="M414 0v85h178v-65l-20 -20h-158zM4 -35q56 -78 116.5 -107t115.5 -29q31 0 57.5 10t62.5 39l-48 -56q12 22 21 56.5t14 78t5 91.5v700l84 12h8v-680q0 -117 -33.5 -191t-88 -109.5t-118.5 -35.5q-33 0 -65.5 10.5t-63.5 29.5t-58.5 44.5t-48.5 55.5l32 81h8z" />
    <glyph glyph-name="uni06B6.init" unicode="&#x6b6;" horiz-adv-x="316" 
d="M-20 0v65l20 20h174l-34 -21q-4 14 -8 39.5t-4 56.5v588l84 12h8v-588q0 -20 0.5 -46t2 -51t5.5 -43v-8q-30 -12 -75.5 -18t-108.5 -6h-64zM171 856q-23 0 -38.5 15t-15.5 39t15.5 39t38.5 15t38.5 -15t15.5 -39t-15.5 -39t-38.5 -15z" />
    <glyph glyph-name="uni06B6.medi" unicode="&#x6b6;" horiz-adv-x="374" 
d="M-20 0v65l20 20h180l-34 -21q-4 14 -8 39.5t-4 56.5v588l84 12h8v-718l-38 43h186v-65l-20 -20h-374zM178 862q-23 0 -38.5 15t-15.5 39t15.5 39t38.5 15t38.5 -15t15.5 -39t-15.5 -39t-38.5 -15z" />
    <glyph glyph-name="uni06B6.fina" unicode="&#x6b6;" horiz-adv-x="592" 
d="M414 0v85h178v-65l-20 -20h-158zM4 -35q56 -78 116.5 -107t115.5 -29q31 0 57.5 10t62.5 39l-48 -56q12 22 21 56.5t14 78t5 91.5v700l84 12h8v-680q0 -117 -33.5 -191t-88 -109.5t-118.5 -35.5q-33 0 -65.5 10.5t-63.5 29.5t-58.5 44.5t-48.5 55.5l32 81h8zM152 656
q-23 0 -38.5 15t-15.5 39t15.5 39t38.5 15t38.5 -15t15.5 -39t-15.5 -39t-38.5 -15z" />
    <glyph glyph-name="uni06B7.init" unicode="&#x6b7;" horiz-adv-x="316" 
d="M-20 0v65l20 20h174l-34 -21q-4 14 -8 39.5t-4 56.5v588l84 12h8v-588q0 -20 0.5 -46t2 -51t5.5 -43v-8q-30 -12 -75.5 -18t-108.5 -6h-64zM154 968q-23 0 -38.5 15t-15.5 39t15.5 39t38.5 15t38.5 -15t15.5 -39t-15.5 -39t-38.5 -15zM235 856q-23 0 -38.5 15t-15.5 39
t15.5 39t38.5 15t38.5 -15t15.5 -39t-15.5 -39t-38.5 -15zM104 840q-23 0 -38.5 15t-15.5 39t15.5 39t38.5 15t38.5 -15t15.5 -39t-15.5 -39t-38.5 -15z" />
    <glyph glyph-name="uni06B7.medi" unicode="&#x6b7;" horiz-adv-x="374" 
d="M-20 0v65l20 20h180l-34 -21q-4 14 -8 39.5t-4 56.5v588l84 12h8v-718l-38 43h186v-65l-20 -20h-374zM161 974q-23 0 -38.5 15t-15.5 39t15.5 39t38.5 15t38.5 -15t15.5 -39t-15.5 -39t-38.5 -15zM242 862q-23 0 -38.5 15t-15.5 39t15.5 39t38.5 15t38.5 -15t15.5 -39
t-15.5 -39t-38.5 -15zM111 846q-23 0 -38.5 15t-15.5 39t15.5 39t38.5 15t38.5 -15t15.5 -39t-15.5 -39t-38.5 -15z" />
    <glyph glyph-name="uni06B7.fina" unicode="&#x6b7;" horiz-adv-x="592" 
d="M414 0v85h178v-65l-20 -20h-158zM4 -35q56 -78 116.5 -107t115.5 -29q31 0 57.5 10t62.5 39l-48 -56q12 22 21 56.5t14 78t5 91.5v700l84 12h8v-680q0 -117 -33.5 -191t-88 -109.5t-118.5 -35.5q-33 0 -65.5 10.5t-63.5 29.5t-58.5 44.5t-48.5 55.5l32 81h8zM135 768
q-23 0 -38.5 15t-15.5 39t15.5 39t38.5 15t38.5 -15t15.5 -39t-15.5 -39t-38.5 -15zM216 656q-23 0 -38.5 15t-15.5 39t15.5 39t38.5 15t38.5 -15t15.5 -39t-15.5 -39t-38.5 -15zM85 640q-23 0 -38.5 15t-15.5 39t15.5 39t38.5 15t38.5 -15t15.5 -39t-15.5 -39t-38.5 -15z
" />
    <glyph glyph-name="uni06B8.init" unicode="&#x6b8;" horiz-adv-x="316" 
d="M-20 0v65l20 20h174l-34 -21q-4 14 -8 39.5t-4 56.5v588l84 12h8v-588q0 -20 0.5 -46t2 -51t5.5 -43v-8q-30 -12 -75.5 -18t-108.5 -6h-64zM28 354v40h300v-40h-300zM28 454v40h300v-40h-300z" />
    <glyph glyph-name="uni06B8.medi" unicode="&#x6b8;" horiz-adv-x="374" 
d="M-20 0v65l20 20h180l-34 -21q-4 14 -8 39.5t-4 56.5v588l84 12h8v-718l-38 43h186v-65l-20 -20h-374zM30 354v40h300v-40h-300zM30 454v40h300v-40h-300z" />
    <glyph glyph-name="uni06B8.fina" unicode="&#x6b8;" horiz-adv-x="592" 
d="M414 0v85h178v-65l-20 -20h-158zM4 -35q56 -78 116.5 -107t115.5 -29q31 0 57.5 10t62.5 39l-48 -56q12 22 21 56.5t14 78t5 91.5v700l84 12h8v-680q0 -117 -33.5 -191t-88 -109.5t-118.5 -35.5q-33 0 -65.5 10.5t-63.5 29.5t-58.5 44.5t-48.5 55.5l32 81h8zM241 354v40
h300v-40h-300zM241 454v40h300v-40h-300z" />
    <glyph glyph-name="uni06B5.init" unicode="&#x6b5;" horiz-adv-x="316" 
d="M-20 0v65l20 20h174l-34 -21q-4 14 -8 39.5t-4 56.5v588l84 12h8v-588q0 -20 0.5 -46t2 -51t5.5 -43v-8q-30 -12 -75.5 -18t-108.5 -6h-64zM112 960l59 -104l65 104h64v-4l-92 -152h-76l-84 152v4h64z" />
    <glyph glyph-name="uni06B5.medi" unicode="&#x6b5;" horiz-adv-x="374" 
d="M-20 0v65l20 20h180l-34 -21q-4 14 -8 39.5t-4 56.5v588l84 12h8v-718l-38 43h186v-65l-20 -20h-374zM119 966l59 -104l65 104h64v-4l-92 -152h-76l-84 152v4h64z" />
    <glyph glyph-name="uni06B5.fina" unicode="&#x6b5;" horiz-adv-x="592" 
d="M414 0v85h178v-65l-20 -20h-158zM4 -35q56 -78 116.5 -107t115.5 -29q31 0 57.5 10t62.5 39l-48 -56q12 22 21 56.5t14 78t5 91.5v700l84 12h8v-680q0 -117 -33.5 -191t-88 -109.5t-118.5 -35.5q-33 0 -65.5 10.5t-63.5 29.5t-58.5 44.5t-48.5 55.5l32 81h8zM93 760
l59 -104l65 104h64v-4l-92 -152h-76l-84 152v4h64z" />
    <glyph glyph-name="uniFEE3" unicode="&#x645;" horiz-adv-x="672" arabic-form="initial" 
d="M311 476q80 0 146 -31.5t105.5 -90.5t39.5 -142q0 -68 -30.5 -121.5t-83 -84t-118.5 -30.5q-45 0 -86 9t-82 35t-86 76l62 52q41 -33 78.5 -54t76.5 -31t84 -10q12 0 26 1t25 2l-49 -32q51 39 73 89.5t22 98.5q0 54 -31.5 96.5t-90.5 65t-142 16.5l5 31
q-3 -85 -15.5 -161.5t-42 -134.5t-82 -91.5t-135.5 -33.5v65l20 20q56 0 91.5 41t54 121.5t22.5 198.5l16 12q30 9 64.5 13.5t62.5 4.5z" />
    <glyph glyph-name="uniFEE4" unicode="&#x645;" horiz-adv-x="704" arabic-form="medial" 
d="M173 85l41 -85h-234v65l20 20h173zM684 0q-60 0 -98.5 17.5t-62.5 53t-43 90.5l-87 257l53 -21q-78 -4 -131.5 -26t-86 -52.5t-46.5 -64t-14 -62.5q0 -47 22.5 -77t58 -44t73.5 -14q65 0 121.5 21t91.5 45l3 -8l-10 -80q-54 -33 -112 -48t-108 -15q-32 0 -65 8t-63 24.5
t-53.5 41.5t-37 59.5t-13.5 78.5q0 71 32.5 127t87 95t121 59.5t135.5 20.5l16 -8l86 -269q21 -67 55 -95.5t95 -28.5v-65z" />
    <glyph glyph-name="uniFEE2" unicode="&#x645;" horiz-adv-x="724" arabic-form="final" 
d="M213 40l-129 -208h-104v8l178 249zM704 0q-60 0 -98.5 17.5t-62.5 53t-43 90.5l-87 257l53 -21q-78 -4 -131.5 -26t-86 -52.5t-46.5 -64t-14 -62.5q0 -47 22.5 -77t58 -44t73.5 -14q65 0 121.5 21t91.5 45l3 -8l-10 -80q-54 -33 -112 -48t-108 -15q-32 0 -65 8t-63 24.5
t-53.5 41.5t-37 59.5t-13.5 78.5q0 71 32.5 127t87 95t121 59.5t135.5 20.5l16 -8l86 -269q21 -67 55 -95.5t95 -28.5v-65z" />
    <glyph glyph-name="uniFBD4" unicode="&#x6ad;" horiz-adv-x="1216" arabic-form="final" 
d="M810 0v85h406v-65l-20 -20h-386zM972 -1l-464 1q-91 0 -184 5.5t-177 29.5q-19 6 -37 11.5t-33.5 11t-28.5 11.5l18 81h8q11 -5 31 -12t40 -13t31 -10q36 -11 80.5 -17t94 -9t101.5 -3.5t104 -0.5h352l-28 -16v679l100 12v-8q-4 -18 -5.5 -45t-2 -55t-0.5 -48v-605z
M636 450q23 -10 36.5 -24.5t13.5 -41.5q0 -40 -33 -63.5t-97 -23.5h-95v12l19 59h103q22 0 22 15q0 6 -5 9.5t-16 8.5l-35 17q-24 11 -35.5 26t-11.5 37q0 32 25 53t74 37l54 18l4 -7l-4 -58l-54 -18q-17 -6 -29 -11t-21 -14l8 15q1 -8 10.5 -14t26.5 -14zM554 785
q-23 0 -38.5 15t-15.5 39t15.5 39t38.5 15t38.5 -15t15.5 -39t-15.5 -39t-38.5 -15zM635 673q-23 0 -38.5 15t-15.5 39t15.5 39t38.5 15t38.5 -15t15.5 -39t-15.5 -39t-38.5 -15zM504 657q-23 0 -38.5 15t-15.5 39t15.5 39t38.5 15t38.5 -15t15.5 -39t-15.5 -39t-38.5 -15z
" />
    <glyph glyph-name="uniFBD5" unicode="&#x6ad;" horiz-adv-x="1196" arabic-form="initial" 
d="M-20 0v65l20 20h925q60 0 89.5 19t29.5 69q0 38 -21 85t-61 84l49 -20q-30 -6 -50.5 -8.5t-42.5 -3.5t-58 -1h-708q-22 0 -42 15t-22 58l372 358h8l41 -62l-327 -310l-16 26h694q39 0 80.5 2t71.5 10h12q25 -23 50.5 -58.5t43.5 -78.5t18 -90q0 -39 -12.5 -71.5
t-40.5 -57t-72 -37.5t-107 -13h-924zM85 774q-23 0 -38.5 15t-15.5 39t15.5 39t38.5 15t38.5 -15t15.5 -39t-15.5 -39t-38.5 -15zM166 662q-23 0 -38.5 15t-15.5 39t15.5 39t38.5 15t38.5 -15t15.5 -39t-15.5 -39t-38.5 -15zM35 646q-23 0 -38.5 15t-15.5 39t15.5 39
t38.5 15t38.5 -15t15.5 -39t-15.5 -39t-38.5 -15z" />
    <glyph glyph-name="uniFBD6" unicode="&#x6ad;" horiz-adv-x="1262" arabic-form="medial" 
d="M925 0l108 85h229v-65l-20 -20h-317zM-20 0v65l20 20h925q60 0 89.5 19.5t29.5 68.5q0 38 -21 85t-61 84l49 -20q-30 -6 -50.5 -8.5t-42.5 -3.5t-58 -1h-708q-22 0 -42 15t-22 58l372 358h8l41 -62l-327 -310l-16 26h694q39 0 80.5 2t71.5 10h12q25 -23 50.5 -58.5
t43.5 -78.5t18 -90q0 -37 -11.5 -69.5t-37.5 -55.5l-62 -36q-24 -9 -54 -13.5t-67 -4.5h-924zM85 774q-23 0 -38.5 15t-15.5 39t15.5 39t38.5 15t38.5 -15t15.5 -39t-15.5 -39t-38.5 -15zM166 662q-23 0 -38.5 15t-15.5 39t15.5 39t38.5 15t38.5 -15t15.5 -39t-15.5 -39
t-38.5 -15zM35 646q-23 0 -38.5 15t-15.5 39t15.5 39t38.5 15t38.5 -15t15.5 -39t-15.5 -39t-38.5 -15z" />
    <glyph glyph-name="uniFB9B" unicode="&#x6b1;" horiz-adv-x="1460" arabic-form="final" 
d="M1125 0l108 85h229v-65l-20 -20h-317zM482 368l-16 26h594q39 0 80.5 2t71.5 10h12q25 -23 50.5 -58.5t43.5 -78.5t18 -90q0 -37 -11.5 -69.5t-37.5 -55.5l-62 -36q-24 -9 -54 -13.5t-67 -4.5h-600q-91 0 -184 6t-177 29q-19 6 -37 11.5t-33.5 11t-28.5 11.5l18 81h8
q11 -5 31 -12t40 -13t31 -10q36 -10 80.5 -16.5t94 -9t101.5 -3.5t104 -1h573q60 0 89.5 19.5t29.5 68.5q0 38 -21 85t-61 84l49 -20q-30 -6 -50.5 -8.5t-42.5 -3.5t-58 -1h-608q-22 0 -42 15t-22 58l372 358h8l41 -62zM374 524l334 327h12l24 -36l-354 -339h-12zM468 672
q-23 0 -38.5 15t-15.5 39t15.5 39t38.5 15t38.5 -15t15.5 -39t-15.5 -39t-38.5 -15zM337 654q-23 0 -38.5 15t-15.5 39t15.5 39t38.5 15t38.5 -15t15.5 -39t-15.5 -39t-38.5 -15z" />
    <glyph glyph-name="uniFB9C" unicode="&#x6b1;" horiz-adv-x="1196" arabic-form="initial" 
d="M-20 0v65l20 20h925q50 0 84.5 19t34.5 69q0 38 -21 85t-61 84l49 -20q-30 -6 -50.5 -8.5t-42.5 -3.5t-58 -1h-708q-22 0 -42 15t-22 58l372 358h8l41 -62l-327 -310l-16 26h694q39 0 80.5 2t71.5 10h12q25 -23 50.5 -58.5t43.5 -78.5t18 -90q0 -39 -14 -71.5t-42.5 -57
t-72.5 -37.5t-103 -13h-924zM74 524l334 327h12l24 -36l-354 -339h-12zM168 672q-23 0 -38.5 15t-15.5 39t15.5 39t38.5 15t38.5 -15t15.5 -39t-15.5 -39t-38.5 -15zM37 654q-23 0 -38.5 15t-15.5 39t15.5 39t38.5 15t38.5 -15t15.5 -39t-15.5 -39t-38.5 -15z" />
    <glyph glyph-name="uniFB9D" unicode="&#x6b1;" horiz-adv-x="1262" arabic-form="medial" 
d="M925 0l108 85h229v-65l-20 -20h-317zM182 368l-16 26h696q39 0 80.5 2t71.5 10h12q25 -23 50.5 -58.5t43.5 -78.5t18 -90q0 -37 -11.5 -69.5t-37.5 -55.5l-62 -36q-24 -9 -54 -13.5t-67 -4.5h-926v65l20 20h927q60 0 89.5 19.5t29.5 68.5q0 38 -21 85t-61 84l49 -20
q-30 -6 -50.5 -8.5t-42.5 -3.5t-58 -1h-710q-22 0 -42 15t-22 58l372 358h8l41 -62zM74 524l334 327h12l24 -36l-354 -339h-12zM168 672q-23 0 -38.5 15t-15.5 39t15.5 39t38.5 15t38.5 -15t15.5 -39t-15.5 -39t-38.5 -15zM37 654q-23 0 -38.5 15t-15.5 39t15.5 39t38.5 15
t38.5 -15t15.5 -39t-15.5 -39t-38.5 -15z" />
    <glyph glyph-name="uniFEE7" unicode="&#x646;" horiz-adv-x="316" arabic-form="initial" 
d="M-20 0v65l20 20h174l-34 -21q-4 14 -8 39.5t-4 56.5v332l84 12h8v-332q0 -20 0.5 -46t2 -51t5.5 -43v-8q-30 -12 -75.5 -18t-108.5 -6h-64zM171 600q-23 0 -38.5 15t-15.5 39t15.5 39t38.5 15t38.5 -15t15.5 -39t-15.5 -39t-38.5 -15z" />
    <glyph glyph-name="uniFEE8" unicode="&#x646;" horiz-adv-x="367" arabic-form="medial" 
d="M0 85h173l-34 -21q-4 14 -8 39.5t-4 56.5v332l84 12h8v-457l-38 38h186v-65l-20 -20h-367v65zM171 600q-23 0 -38.5 15t-15.5 39t15.5 39t38.5 15t38.5 -15t15.5 -39t-15.5 -39t-38.5 -15z" />
    <glyph glyph-name="uniFEE6" unicode="&#x646;" horiz-adv-x="613" arabic-form="final" 
d="M435 0v85h178v-65l-20 -20h-158zM0 -68q37 -43 72 -66.5t71 -32t75 -8.5q28 0 60 10t66 37l-36 -40q21 34 34 76t19.5 95.5t6.5 120.5q0 51 -4 98t-11 97t-17 109l84 12h8q12 -67 22 -145t10 -147q0 -103 -17 -180t-51 -127.5t-84.5 -75.5t-117.5 -25q-37 0 -70 10
t-62 27t-52.5 38.5t-41.5 44.5l28 72h8zM148 123q-23 0 -38.5 15t-15.5 39t15.5 39t38.5 15t38.5 -15t15.5 -39t-15.5 -39t-38.5 -15z" />
    <glyph glyph-name="uni06B9.init" unicode="&#x6b9;" horiz-adv-x="316" 
d="M-20 0v65l20 20h174l-34 -21q-4 14 -8 39.5t-4 56.5v332l84 12h8v-332q0 -20 0.5 -46t2 -51t5.5 -43v-8q-30 -12 -75.5 -18t-108.5 -6h-64zM171 600q-23 0 -38.5 15t-15.5 39t15.5 39t38.5 15t38.5 -15t15.5 -39t-15.5 -39t-38.5 -15zM97 -162q0 24 15.5 39t38.5 15
t38.5 -15t15.5 -39t-15.5 -39t-38.5 -15t-38.5 15t-15.5 39z" />
    <glyph glyph-name="uni06B9.medi" unicode="&#x6b9;" horiz-adv-x="367" 
d="M0 85h173l-34 -21q-4 14 -8 39.5t-4 56.5v332l84 12h8v-457l-38 38h186v-65l-20 -20h-367v65zM171 600q-23 0 -38.5 15t-15.5 39t15.5 39t38.5 15t38.5 -15t15.5 -39t-15.5 -39t-38.5 -15zM116 -162q0 24 15.5 39t38.5 15t38.5 -15t15.5 -39t-15.5 -39t-38.5 -15
t-38.5 15t-15.5 39z" />
    <glyph glyph-name="uni06B9.fina" unicode="&#x6b9;" horiz-adv-x="613" 
d="M435 0v85h178v-65l-20 -20h-158zM0 -68q37 -43 72 -66.5t71 -32t75 -8.5q28 0 60 10t66 37l-36 -40q21 34 34 76t19.5 95.5t6.5 120.5q0 51 -4 98t-11 97t-17 109l84 12h8q12 -67 22 -145t10 -147q0 -103 -17 -180t-51 -127.5t-84.5 -75.5t-117.5 -25q-37 0 -70 10
t-62 27t-52.5 38.5t-41.5 44.5l28 72h8zM148 123q-23 0 -38.5 15t-15.5 39t15.5 39t38.5 15t38.5 -15t15.5 -39t-15.5 -39t-38.5 -15zM135 -422q0 24 15.5 39t38.5 15t38.5 -15t15.5 -39t-15.5 -39t-38.5 -15t-38.5 15t-15.5 39z" />
    <glyph glyph-name="uni06BC.init" unicode="&#x6bc;" horiz-adv-x="316" 
d="M-20 0v65l20 20h174l-34 -21q-4 14 -8 39.5t-4 56.5v332l84 12h8v-332q0 -20 0.5 -46t2 -51t5.5 -43v-8q-30 -12 -75.5 -18t-108.5 -6h-64zM171 600q-23 0 -38.5 15t-15.5 39t15.5 39t38.5 15t38.5 -15t15.5 -39t-15.5 -39t-38.5 -15zM142 30q32 0 58.5 -24.5t26.5 -68.5
q0 -25 -12.5 -47t-33.5 -35.5t-49 -13.5q-43 0 -66.5 26.5t-23.5 60.5q0 27 13 50.5t36 37.5t51 14zM174 -1q-28 2 -46.5 -9.5t-27.5 -29t-9 -33.5q0 -21 12 -35t31 -14q15 0 28.5 10t21 23.5t2.5 24.5l-3 -49q5 21 1 40t-13 35t-22 27t-27 16z" />
    <glyph glyph-name="uni06BC.medi" unicode="&#x6bc;" horiz-adv-x="367" 
d="M0 85h173l-34 -21q-4 14 -8 39.5t-4 56.5v332l84 12h8v-457l-38 38h186v-65l-20 -20h-367v65zM171 600q-23 0 -38.5 15t-15.5 39t15.5 39t38.5 15t38.5 -15t15.5 -39t-15.5 -39t-38.5 -15zM183 30q32 0 58.5 -24.5t26.5 -68.5q0 -25 -12.5 -47t-33.5 -35.5t-49 -13.5
q-43 0 -66.5 26.5t-23.5 60.5q0 27 13 50.5t36 37.5t51 14zM215 -1q-28 2 -46.5 -9.5t-27.5 -29t-9 -33.5q0 -21 12 -35t31 -14q15 0 28.5 10t21 23.5t2.5 24.5l-3 -49q5 21 1 40t-13 35t-22 27t-27 16z" />
    <glyph glyph-name="uni06BC.fina" unicode="&#x6bc;" horiz-adv-x="613" 
d="M435 0v85h178v-65l-20 -20h-158zM0 -68q37 -43 72 -66.5t71 -32t75 -8.5q28 0 60 10t66 37l-36 -40q21 34 34 76t19.5 95.5t6.5 120.5q0 51 -4 98t-11 97t-17 109l84 12h8q12 -67 22 -145t10 -147q0 -103 -17 -180t-51 -127.5t-84.5 -75.5t-117.5 -25q-37 0 -70 10
t-62 27t-52.5 38.5t-41.5 44.5l28 72h8zM148 123q-23 0 -38.5 15t-15.5 39t15.5 39t38.5 15t38.5 -15t15.5 -39t-15.5 -39t-38.5 -15zM402 -819q32 0 58.5 -24.5t26.5 -68.5q0 -25 -12.5 -47t-33.5 -35.5t-49 -13.5q-43 0 -66.5 26.5t-23.5 60.5q0 27 13 50.5t36 37.5t51 14
zM434 -850q-28 2 -46.5 -9.5t-27.5 -29t-9 -33.5q0 -21 12 -35t31 -14q15 0 28.5 10t21 23.5t2.5 24.5l-3 -49q5 21 1 40t-13 35t-22 27t-27 16z" />
    <glyph glyph-name="uni06BD.fina" unicode="&#x6bd;" horiz-adv-x="613" 
d="M435 0v85h178v-65l-20 -20h-158zM0 -68q37 -43 72 -66.5t71 -32t75 -8.5q28 0 60 10t66 37l-36 -40q21 34 34 76t19.5 95.5t6.5 120.5q0 51 -4 98t-11 97t-17 109l84 12h8q12 -67 22 -145t10 -147q0 -103 -17 -180t-51 -127.5t-84.5 -75.5t-117.5 -25q-37 0 -70 10
t-62 27t-52.5 38.5t-41.5 44.5l28 72h8zM131 235q-23 0 -38.5 15t-15.5 39t15.5 39t38.5 15t38.5 -15t15.5 -39t-15.5 -39t-38.5 -15zM212 123q-23 0 -38.5 15t-15.5 39t15.5 39t38.5 15t38.5 -15t15.5 -39t-15.5 -39t-38.5 -15zM81 107q-23 0 -38.5 15t-15.5 39t15.5 39
t38.5 15t38.5 -15t15.5 -39t-15.5 -39t-38.5 -15z" />
    <glyph glyph-name="uni06BA.init" unicode="&#x6ba;" horiz-adv-x="316" 
d="M-20 0v65l20 20h174l-34 -21q-4 14 -8 39.5t-4 56.5v332l84 12h8v-332q0 -20 0.5 -46t2 -51t5.5 -43v-8q-30 -12 -75.5 -18t-108.5 -6h-64z" />
    <glyph glyph-name="uni06BA.medi" unicode="&#x6ba;" horiz-adv-x="367" 
d="M0 85h173l-34 -21q-4 14 -8 39.5t-4 56.5v332l84 12h8v-457l-38 38h186v-65l-20 -20h-367v65z" />
    <glyph glyph-name="uniFB9F" unicode="&#x6ba;" horiz-adv-x="613" arabic-form="final" 
d="M435 0v85h178v-65l-20 -20h-158zM0 -68q37 -43 72 -66.5t71 -32t75 -8.5q28 0 60 10t66 37l-36 -40q21 34 34 76t19.5 95.5t6.5 120.5q0 51 -4 98t-11 97t-17 109l84 12h8q12 -67 22 -145t10 -147q0 -103 -17 -180t-51 -127.5t-84.5 -75.5t-117.5 -25q-37 0 -70 10
t-62 27t-52.5 38.5t-41.5 44.5l28 72h8z" />
    <glyph glyph-name="uniFB77" unicode="&#x683;" horiz-adv-x="672" arabic-form="final" 
d="M284 0q-67 0 -109 -15.5t-63 -44t-27 -66.5l-12 42q14 -53 69 -70t146 -17h44v-8l-28 -77h-68q-52 0 -102 17.5t-82 51.5t-32 83q0 28 13.5 60.5t45 62t86.5 48t139 18.5h244l-26 -12q-46 26 -105.5 83.5t-130 143t-150.5 196.5l64 60h8q97 -139 174 -230t133.5 -144
t94.5 -75t57 -22h25v-65l-20 -20h-388zM504 -162q0 24 15.5 39t38.5 15t38.5 -15t15.5 -39t-15.5 -39t-38.5 -15t-38.5 15t-15.5 39zM373 -180q0 24 15.5 39t38.5 15t38.5 -15t15.5 -39t-15.5 -39t-38.5 -15t-38.5 15t-15.5 39z" />
    <glyph glyph-name="uniFB78" unicode="&#x683;" horiz-adv-x="724" arabic-form="initial" 
d="M-20 0v66l20 20h495l-25 -13q-48 26 -108.5 83.5t-131 143.5t-150.5 196l64 60h8q95 -135 170.5 -226t133 -144.5t97.5 -77t64 -23.5l95 1v-8l-24 -78h-708zM233 -149q0 24 15.5 39t38.5 15t38.5 -15t15.5 -39t-15.5 -39t-38.5 -15t-38.5 15t-15.5 39zM102 -167
q0 24 15.5 39t38.5 15t38.5 -15t15.5 -39t-15.5 -39t-38.5 -15t-38.5 15t-15.5 39z" />
    <glyph glyph-name="uniFB79" unicode="&#x683;" arabic-form="medial" 
d="M-20 0v66l20 20h495l-25 -13q-48 26 -108.5 83.5t-131 143.5t-150.5 196l64 60h8q95 -135 170.5 -225.5t133 -144.5t97.5 -77t63 -23h20v-66l-20 -20h-636zM238 -148q0 24 15.5 39t38.5 15t38.5 -15t15.5 -39t-15.5 -39t-38.5 -15t-38.5 15t-15.5 39zM107 -166
q0 24 15.5 39t38.5 15t38.5 -15t15.5 -39t-15.5 -39t-38.5 -15t-38.5 15t-15.5 39z" />
    <glyph glyph-name="uniFBDA" unicode="&#x6c6;" horiz-adv-x="648" arabic-form="final" 
d="M60 224q0 53 20.5 98.5t55 80t76.5 54t84 19.5q50 0 96.5 -25.5t83.5 -70t58.5 -102t21.5 -122.5q0 -130 -34.5 -223.5t-102 -143t-167.5 -49.5q-54 0 -96.5 12t-67 24l-24.5 12l32 72h8q38 -21 81.5 -30.5t82.5 -9.5q49 0 81 5.5t63 16.5l-36 -26q35 41 54 90.5
t26.5 106t7.5 119.5q0 42 -11 86.5t-35 84.5t-63 70t-96 43l58 12q-86 -31 -125.5 -87.5t-39.5 -114.5q0 -44 23.5 -75.5t67.5 -48.5t105 -17h157h24h139v-65l-20 -20h-320q-72 0 -133 24t-98 74t-37 126zM237 682l59 -104l65 104h64v-4l-92 -152h-76l-84 152v4h64z" />
    <glyph glyph-name="uniFB58" unicode="&#x67e;" horiz-adv-x="316" arabic-form="initial" 
d="M-20 0v65l20 20h174l-34 -21q-4 14 -8 39.5t-4 56.5v332l84 12h8v-332q0 -20 0.5 -46t2 -51t5.5 -43v-8q-30 -12 -75.5 -18t-108.5 -6h-64zM168 -122q0 24 15.5 39t38.5 15t38.5 -15t15.5 -39t-15.5 -39t-38.5 -15t-38.5 15t-15.5 39zM37 -138q0 24 15.5 39t38.5 15
t38.5 -15t15.5 -39t-15.5 -39t-38.5 -15t-38.5 15t-15.5 39zM118 -250q0 24 15.5 39t38.5 15t38.5 -15t15.5 -39t-15.5 -39t-38.5 -15t-38.5 15t-15.5 39z" />
    <glyph glyph-name="uniFB59" unicode="&#x67e;" horiz-adv-x="367" arabic-form="medial" 
d="M0 85h173l-34 -21q-4 14 -8 39.5t-4 56.5v332l84 12h8v-457l-38 38h186v-65l-20 -20h-367v65zM187 -122q0 24 15.5 39t38.5 15t38.5 -15t15.5 -39t-15.5 -39t-38.5 -15t-38.5 15t-15.5 39zM56 -138q0 24 15.5 39t38.5 15t38.5 -15t15.5 -39t-15.5 -39t-38.5 -15t-38.5 15
t-15.5 39zM137 -250q0 24 15.5 39t38.5 15t38.5 -15t15.5 -39t-15.5 -39t-38.5 -15t-38.5 15t-15.5 39z" />
    <glyph glyph-name="uniFB57" unicode="&#x67e;" horiz-adv-x="1184" arabic-form="final" 
d="M778 0v85h406v-65l-20 -20h-386zM66 150h8q11 -5 31 -12t40 -13t31 -10q53 -15 117.5 -21t126 -7.5t104.5 -1.5h462l-34 -21q-4 14 -8 39.5t-4 56.5v332l84 12h8v-332q0 -20 0.5 -46t2 -51t5.5 -43v-8q-30 -12 -79.5 -18t-112.5 -6h-324q-90 0 -179 5t-198 30
q-19 5 -37 10.5t-33.5 11.5t-28.5 12zM590 -122q0 24 15.5 39t38.5 15t38.5 -15t15.5 -39t-15.5 -39t-38.5 -15t-38.5 15t-15.5 39zM459 -138q0 24 15.5 39t38.5 15t38.5 -15t15.5 -39t-15.5 -39t-38.5 -15t-38.5 15t-15.5 39zM540 -250q0 24 15.5 39t38.5 15t38.5 -15
t15.5 -39t-15.5 -39t-38.5 -15t-38.5 15t-15.5 39z" />
    <glyph glyph-name="uniFB6F" unicode="&#x6a6;" horiz-adv-x="1168" arabic-form="final" 
d="M862 516q70 0 122.5 -28.5t82 -76.5t29.5 -107q0 -76 -39.5 -137t-98.5 -102l-18 20h247l1 -65l-20 -20h-195q-30 0 -62.5 8t-64.5 21h50q-31 -13 -63 -21t-61 -8h-216q-101 0 -207.5 4.5t-201.5 30.5q-19 6 -37 11.5t-33.5 11t-28.5 11.5l18 81h8q11 -5 31 -12t40 -13
t31 -10q49 -14 110.5 -20.5t131 -8t138.5 -1.5h240l-17 -20q-64 43 -109.5 108t-45.5 145q0 38 16.5 73.5t48 63.5t75.5 44.5t98 16.5zM688 325l11 58q-3 -65 16 -115t50.5 -86t66.5 -59t62 -34l-36 -2q36 13 69.5 41.5t55 68t21.5 83.5q0 37 -17 72.5t-50.5 59.5t-82.5 24
q-33 0 -66.5 -13t-60 -38t-39.5 -60zM842 757q0 24 15.5 39t38.5 15t38.5 -15t15.5 -39t-15.5 -39t-38.5 -15t-38.5 15t-15.5 39zM711 739q0 24 15.5 39t38.5 15t38.5 -15t15.5 -39t-15.5 -39t-38.5 -15t-38.5 15t-15.5 39zM874 625q0 24 15.5 39t38.5 15t38.5 -15t15.5 -39
t-15.5 -39t-38.5 -15t-38.5 15t-15.5 39zM743 607q0 24 15.5 39t38.5 15t38.5 -15t15.5 -39t-15.5 -39t-38.5 -15t-38.5 15t-15.5 39z" />
    <glyph glyph-name="uniFB70" unicode="&#x6a6;" arabic-form="initial" 
d="M0 85h214l-17 -18q-55 32 -92 87.5t-37 125.5q0 69 32 122t92 83.5t144 30.5q44 0 85.5 -6.5t102.5 -25.5l4 -8q-4 -18 -5.5 -48t-2 -61t-0.5 -51v-284l-4 -8q-30 -12 -75.5 -18t-108.5 -6h-352v65zM160 287q0 -58 35.5 -105.5t103 -74t163.5 -21.5l-34 -44v310
q0 27 2 49t6 38l16 -25q-20 6 -36 11t-35.5 8t-51.5 3q-78 0 -123.5 -41.5t-45.5 -107.5zM326 763q0 24 15.5 39t38.5 15t38.5 -15t15.5 -39t-15.5 -39t-38.5 -15t-38.5 15t-15.5 39zM195 745q0 24 15.5 39t38.5 15t38.5 -15t15.5 -39t-15.5 -39t-38.5 -15t-38.5 15
t-15.5 39zM358 631q0 24 15.5 39t38.5 15t38.5 -15t15.5 -39t-15.5 -39t-38.5 -15t-38.5 15t-15.5 39zM227 613q0 24 15.5 39t38.5 15t38.5 -15t15.5 -39t-15.5 -39t-38.5 -15t-38.5 15t-15.5 39z" />
    <glyph glyph-name="uniFB71" unicode="&#x6a6;" arabic-form="medial" 
d="M310 516q70 0 122.5 -28.5t82 -76.5t29.5 -107q0 -76 -39.5 -137t-98.5 -102l-18 20h247l1 -65l-20 -20h-195q-30 0 -62.5 8t-64.5 21h50q-31 -13 -63 -21t-61 -8h-240v65l20 20h244l-17 -20q-64 43 -109.5 108t-45.5 145q0 38 16.5 73.5t48 63.5t75.5 44.5t98 16.5z
M136 325l11 58q-3 -65 16 -115t50.5 -86t66.5 -59t62 -34l-36 -2q36 13 69.5 41.5t55 68t21.5 83.5q0 37 -17 72.5t-50.5 59.5t-82.5 24q-33 0 -66.5 -13t-60 -38t-39.5 -60zM300 763q0 24 15.5 39t38.5 15t38.5 -15t15.5 -39t-15.5 -39t-38.5 -15t-38.5 15t-15.5 39z
M169 745q0 24 15.5 39t38.5 15t38.5 -15t15.5 -39t-15.5 -39t-38.5 -15t-38.5 15t-15.5 39zM332 631q0 24 15.5 39t38.5 15t38.5 -15t15.5 -39t-15.5 -39t-38.5 -15t-38.5 15t-15.5 39zM201 613q0 24 15.5 39t38.5 15t38.5 -15t15.5 -39t-15.5 -39t-38.5 -15t-38.5 15
t-15.5 39z" />
    <glyph glyph-name="uniFED7" unicode="&#x642;" arabic-form="initial" 
d="M0 85h214l-17 -18q-55 32 -92 87.5t-37 125.5q0 69 32 122t92 83.5t144 30.5q44 0 85.5 -6.5t102.5 -25.5l4 -8q-4 -18 -5.5 -48t-2 -61t-0.5 -51v-284l-4 -8q-30 -12 -75.5 -18t-108.5 -6h-352v65zM160 287q0 -58 35.5 -105.5t103 -74t163.5 -21.5l-34 -44v310
q0 27 2 49t6 38l16 -25q-20 6 -36 11t-35.5 8t-51.5 3q-78 0 -123.5 -41.5t-45.5 -107.5zM402 628q-23 0 -38.5 15t-15.5 39t15.5 39t38.5 15t38.5 -15t15.5 -39t-15.5 -39t-38.5 -15zM271 610q-23 0 -38.5 15t-15.5 39t15.5 39t38.5 15t38.5 -15t15.5 -39t-15.5 -39
t-38.5 -15z" />
    <glyph glyph-name="uniFED8" unicode="&#x642;" arabic-form="medial" 
d="M310 516q70 0 122.5 -28.5t82 -76.5t29.5 -107q0 -76 -39.5 -137t-98.5 -102l-18 20h247l1 -65l-20 -20h-195q-30 0 -62.5 8t-64.5 21h50q-31 -13 -63 -21t-61 -8h-240v65l20 20h244l-17 -20q-64 43 -109.5 108t-45.5 145q0 38 16.5 73.5t48 63.5t75.5 44.5t98 16.5z
M136 325l11 58q-3 -65 16 -115t50.5 -86t66.5 -59t62 -34l-36 -2q36 13 69.5 41.5t55 68t21.5 83.5q0 37 -17 72.5t-50.5 59.5t-82.5 24q-33 0 -66.5 -13t-60 -38t-39.5 -60zM376 628q-23 0 -38.5 15t-15.5 39t15.5 39t38.5 15t38.5 -15t15.5 -39t-15.5 -39t-38.5 -15z
M245 610q-23 0 -38.5 15t-15.5 39t15.5 39t38.5 15t38.5 -15t15.5 -39t-15.5 -39t-38.5 -15z" />
    <glyph glyph-name="uniFED6" unicode="&#x642;" horiz-adv-x="735" arabic-form="final" 
d="M338 -260q-55 0 -105 16t-89 36.5t-61.5 37.5t-22.5 18l32 72h8q68 -54 139.5 -77t134.5 -23q49 0 81 8t63 24l-46 -36q40 41 61 90.5t29 106t8 119.5q0 42 -11 86.5t-35 84.5t-63 70t-96 43l58 2q-86 -21 -125.5 -72.5t-39.5 -109.5q0 -49 24 -82.5t70 -51t112 -17.5
h291v-65l-20 -20h-291q-77 0 -140 24t-100.5 74t-37.5 126q0 53 20.5 98.5t55 80t76.5 54t84 19.5q50 0 96.5 -25.5t83.5 -70t58.5 -102t21.5 -122.5q0 -80 -18 -154.5t-56.5 -133.5t-100.5 -93.5t-149 -34.5zM468 588q-23 0 -38.5 15t-15.5 39t15.5 39t38.5 15t38.5 -15
t15.5 -39t-15.5 -39t-38.5 -15zM337 570q-23 0 -38.5 15t-15.5 39t15.5 39t38.5 15t38.5 -15t15.5 -39t-15.5 -39t-38.5 -15z" />
    <glyph glyph-name="uni06A7.fina" unicode="&#x6a7;" horiz-adv-x="735" 
d="M338 -260q-55 0 -105 16t-89 36.5t-61.5 37.5t-22.5 18l32 72h8q68 -54 139.5 -77t134.5 -23q49 0 81 8t63 24l-46 -36q40 41 61 90.5t29 106t8 119.5q0 42 -11 86.5t-35 84.5t-63 70t-96 43l58 2q-86 -21 -125.5 -72.5t-39.5 -109.5q0 -49 24 -82.5t70 -51t112 -17.5
h291v-65l-20 -20h-291q-77 0 -140 24t-100.5 74t-37.5 126q0 53 20.5 98.5t55 80t76.5 54t84 19.5q50 0 96.5 -25.5t83.5 -70t58.5 -102t21.5 -122.5q0 -80 -18 -154.5t-56.5 -133.5t-100.5 -93.5t-149 -34.5zM402 578q-23 0 -38.5 15t-15.5 39t15.5 39t38.5 15t38.5 -15
t15.5 -39t-15.5 -39t-38.5 -15z" />
    <glyph glyph-name="uni066F.init" unicode="&#x66f;" 
d="M0 85h214l-17 -18q-55 32 -92 87.5t-37 125.5q0 69 32 122t92 83.5t144 30.5q44 0 85.5 -6.5t102.5 -25.5l4 -8q-4 -18 -5.5 -48t-2 -61t-0.5 -51v-284l-4 -8q-30 -12 -75.5 -18t-108.5 -6h-352v65zM160 287q0 -58 35.5 -105.5t103 -74t163.5 -21.5l-34 -44v310
q0 27 2 49t6 38l16 -25q-20 6 -36 11t-35.5 8t-51.5 3q-78 0 -123.5 -41.5t-45.5 -107.5z" />
    <glyph glyph-name="uni066F.medi" unicode="&#x66f;" 
d="M310 516q70 0 122.5 -28.5t82 -76.5t29.5 -107q0 -76 -39.5 -137t-98.5 -102l-18 20h247l1 -65l-20 -20h-195q-30 0 -62.5 8t-64.5 21h50q-31 -13 -63 -21t-61 -8h-240v65l20 20h244l-17 -20q-64 43 -109.5 108t-45.5 145q0 38 16.5 73.5t48 63.5t75.5 44.5t98 16.5z
M136 325l11 58q-3 -65 16 -115t50.5 -86t66.5 -59t62 -34l-36 -2q36 13 69.5 41.5t55 68t21.5 83.5q0 37 -17 72.5t-50.5 59.5t-82.5 24q-33 0 -66.5 -13t-60 -38t-39.5 -60z" />
    <glyph glyph-name="uni066F.fina" unicode="&#x66f;" horiz-adv-x="735" 
d="M338 -260q-55 0 -105 16t-89 36.5t-61.5 37.5t-22.5 18l32 72h8q68 -54 139.5 -77t134.5 -23q49 0 81 8t63 24l-46 -36q40 41 61 90.5t29 106t8 119.5q0 42 -11 86.5t-35 84.5t-63 70t-96 43l58 2q-86 -21 -125.5 -72.5t-39.5 -109.5q0 -49 24 -82.5t70 -51t112 -17.5
h291v-65l-20 -20h-291q-77 0 -140 24t-100.5 74t-37.5 126q0 53 20.5 98.5t55 80t76.5 54t84 19.5q50 0 96.5 -25.5t83.5 -70t58.5 -102t21.5 -122.5q0 -80 -18 -154.5t-56.5 -133.5t-100.5 -93.5t-149 -34.5z" />
    <glyph glyph-name="uni06A8.init" unicode="&#x6a8;" 
d="M0 85h214l-17 -18q-55 32 -92 87.5t-37 125.5q0 69 32 122t92 83.5t144 30.5q44 0 85.5 -6.5t102.5 -25.5l4 -8q-4 -18 -5.5 -48t-2 -61t-0.5 -51v-284l-4 -8q-30 -12 -75.5 -18t-108.5 -6h-352v65zM160 287q0 -58 35.5 -105.5t103 -74t163.5 -21.5l-34 -44v310
q0 27 2 49t6 38l16 -25q-20 6 -36 11t-35.5 8t-51.5 3q-78 0 -123.5 -41.5t-45.5 -107.5zM319 730q-23 0 -38.5 15t-15.5 39t15.5 39t38.5 15t38.5 -15t15.5 -39t-15.5 -39t-38.5 -15zM400 618q-23 0 -38.5 15t-15.5 39t15.5 39t38.5 15t38.5 -15t15.5 -39t-15.5 -39
t-38.5 -15zM269 602q-23 0 -38.5 15t-15.5 39t15.5 39t38.5 15t38.5 -15t15.5 -39t-15.5 -39t-38.5 -15z" />
    <glyph glyph-name="uni06A8.medi" unicode="&#x6a8;" 
d="M310 516q70 0 122.5 -28.5t82 -76.5t29.5 -107q0 -76 -39.5 -137t-98.5 -102l-18 20h247l1 -65l-20 -20h-195q-30 0 -62.5 8t-64.5 21h50q-31 -13 -63 -21t-61 -8h-240v65l20 20h244l-17 -20q-64 43 -109.5 108t-45.5 145q0 38 16.5 73.5t48 63.5t75.5 44.5t98 16.5z
M136 325l11 58q-3 -65 16 -115t50.5 -86t66.5 -59t62 -34l-36 -2q36 13 69.5 41.5t55 68t21.5 83.5q0 37 -17 72.5t-50.5 59.5t-82.5 24q-33 0 -66.5 -13t-60 -38t-39.5 -60zM293 730q-23 0 -38.5 15t-15.5 39t15.5 39t38.5 15t38.5 -15t15.5 -39t-15.5 -39t-38.5 -15z
M374 618q-23 0 -38.5 15t-15.5 39t15.5 39t38.5 15t38.5 -15t15.5 -39t-15.5 -39t-38.5 -15zM243 602q-23 0 -38.5 15t-15.5 39t15.5 39t38.5 15t38.5 -15t15.5 -39t-15.5 -39t-38.5 -15z" />
    <glyph glyph-name="uni06A8.fina" unicode="&#x6a8;" horiz-adv-x="735" 
d="M338 -260q-55 0 -105 16t-89 36.5t-61.5 37.5t-22.5 18l32 72h8q68 -54 139.5 -77t134.5 -23q49 0 81 8t63 24l-46 -36q40 41 61 90.5t29 106t8 119.5q0 42 -11 86.5t-35 84.5t-63 70t-96 43l58 2q-86 -21 -125.5 -72.5t-39.5 -109.5q0 -49 24 -82.5t70 -51t112 -17.5
h291v-65l-20 -20h-291q-77 0 -140 24t-100.5 74t-37.5 126q0 53 20.5 98.5t55 80t76.5 54t84 19.5q50 0 96.5 -25.5t83.5 -70t58.5 -102t21.5 -122.5q0 -80 -18 -154.5t-56.5 -133.5t-100.5 -93.5t-149 -34.5zM385 690q-23 0 -38.5 15t-15.5 39t15.5 39t38.5 15t38.5 -15
t15.5 -39t-15.5 -39t-38.5 -15zM466 578q-23 0 -38.5 15t-15.5 39t15.5 39t38.5 15t38.5 -15t15.5 -39t-15.5 -39t-38.5 -15zM335 562q-23 0 -38.5 15t-15.5 39t15.5 39t38.5 15t38.5 -15t15.5 -39t-15.5 -39t-38.5 -15z" />
    <glyph glyph-name="uniFEAE" unicode="&#x631;" horiz-adv-x="504" arabic-form="final" 
d="M326 0v85h178v-65l-20 -20h-158zM-32 -168q19 -5 43.5 -8.5t52.5 -3.5q41 0 83 7t78 25l-31 -24q19 31 33.5 72.5t23.5 100.5t9 143q0 81 -5.5 150t-13.5 134l88 12h8q8 -64 11.5 -132t3.5 -160q0 -105 -17.5 -181.5t-53.5 -127t-92 -75t-133 -24.5q-26 0 -51 2t-41 4
l-16 2v8z" />
    <glyph glyph-name="uniFC5C" unicode="&#xfc5c;" horiz-adv-x="440" arabic-form="isolated" 
d="M-32 -168q19 -5 43.5 -8.5t52.5 -3.5q41 0 83 7t78 25l-31 -24q19 31 33.5 72.5t23.5 100.5t9 143q0 81 -5.5 150t-13.5 134l88 12h8q8 -64 11.5 -132t3.5 -160q0 -105 -17.5 -181.5t-53.5 -127t-92 -75t-133 -24.5q-26 0 -51 2t-41 4l-16 2v8zM255 673l50 6l2 -8
q-4 -18 -5.5 -44.5t-2 -54t-0.5 -47.5v-24h-44v172z" />
    <glyph glyph-name="uni0694.fina" unicode="&#x694;" horiz-adv-x="504" 
d="M326 0v85h178v-65l-20 -20h-158zM-32 -168q19 -5 43.5 -8.5t52.5 -3.5q41 0 83 7t78 25l-31 -24q19 31 33.5 72.5t23.5 100.5t9 143q0 81 -5.5 150t-13.5 134l88 12h8q8 -64 11.5 -132t3.5 -160q0 -105 -17.5 -181.5t-53.5 -127t-92 -75t-133 -24.5q-26 0 -51 2t-41 4
l-16 2v8zM1 -422q0 24 15.5 39t38.5 15t38.5 -15t15.5 -39t-15.5 -39t-38.5 -15t-38.5 15t-15.5 39z" />
    <glyph glyph-name="uni0696.fina" unicode="&#x696;" horiz-adv-x="504" 
d="M326 0v85h178v-65l-20 -20h-158zM-32 -168q19 -5 43.5 -8.5t52.5 -3.5q41 0 83 7t78 25l-31 -24q19 31 33.5 72.5t23.5 100.5t9 143q0 81 -5.5 150t-13.5 134l88 12h8q8 -64 11.5 -132t3.5 -160q0 -105 -17.5 -181.5t-53.5 -127t-92 -75t-133 -24.5q-26 0 -51 2t-41 4
l-16 2v8zM278 542q-23 0 -38.5 15t-15.5 39t15.5 39t38.5 15t38.5 -15t15.5 -39t-15.5 -39t-38.5 -15zM1 -422q0 24 15.5 39t38.5 15t38.5 -15t15.5 -39t-15.5 -39t-38.5 -15t-38.5 15t-15.5 39z" />
    <glyph glyph-name="uni0699.fina" unicode="&#x699;" horiz-adv-x="504" 
d="M326 0v85h178v-65l-20 -20h-158zM-32 -168q19 -5 43.5 -8.5t52.5 -3.5q41 0 83 7t78 25l-31 -24q19 31 33.5 72.5t23.5 100.5t9 143q0 81 -5.5 150t-13.5 134l88 12h8q8 -64 11.5 -132t3.5 -160q0 -105 -17.5 -181.5t-53.5 -127t-92 -75t-133 -24.5q-26 0 -51 2t-41 4
l-16 2v8zM268 687q0 24 15.5 39t38.5 15t38.5 -15t15.5 -39t-15.5 -39t-38.5 -15t-38.5 15t-15.5 39zM137 669q0 24 15.5 39t38.5 15t38.5 -15t15.5 -39t-15.5 -39t-38.5 -15t-38.5 15t-15.5 39zM300 555q0 24 15.5 39t38.5 15t38.5 -15t15.5 -39t-15.5 -39t-38.5 -15
t-38.5 15t-15.5 39zM169 537q0 24 15.5 39t38.5 15t38.5 -15t15.5 -39t-15.5 -39t-38.5 -15t-38.5 15t-15.5 39z" />
    <glyph glyph-name="uni0693.fina" unicode="&#x693;" horiz-adv-x="504" 
d="M326 0v85h178v-65l-20 -20h-158zM-32 -168q19 -5 43.5 -8.5t52.5 -3.5q41 0 83 7t78 25l-31 -24q19 31 33.5 72.5t23.5 100.5t9 143q0 81 -5.5 150t-13.5 134l88 12h8q8 -64 11.5 -132t3.5 -160q0 -105 -17.5 -181.5t-53.5 -127t-92 -75t-133 -24.5q-26 0 -51 2t-41 4
l-16 2v8zM76 -230q32 0 58.5 -24.5t26.5 -68.5q0 -25 -12.5 -47t-33.5 -35.5t-49 -13.5q-43 0 -66.5 26.5t-23.5 60.5q0 27 13 50.5t36 37.5t51 14zM108 -261q-28 2 -46.5 -9.5t-27.5 -29t-9 -33.5q0 -21 12 -35t31 -14q15 0 28.5 10t21 23.5t2.5 24.5l-3 -49q5 21 1 40
t-13 35t-22 27t-27 16z" />
    <glyph glyph-name="uni0697.fina" unicode="&#x697;" horiz-adv-x="504" 
d="M326 0v85h178v-65l-20 -20h-158zM-32 -168q19 -5 43.5 -8.5t52.5 -3.5q41 0 83 7t78 25l-31 -24q19 31 33.5 72.5t23.5 100.5t9 143q0 81 -5.5 150t-13.5 134l88 12h8q8 -64 11.5 -132t3.5 -160q0 -105 -17.5 -181.5t-53.5 -127t-92 -75t-133 -24.5q-26 0 -51 2t-41 4
l-16 2v8zM344 552q-23 0 -38.5 15t-15.5 39t15.5 39t38.5 15t38.5 -15t15.5 -39t-15.5 -39t-38.5 -15zM213 534q-23 0 -38.5 15t-15.5 39t15.5 39t38.5 15t38.5 -15t15.5 -39t-15.5 -39t-38.5 -15z" />
    <glyph glyph-name="uni0695.fina" unicode="&#x695;" horiz-adv-x="504" 
d="M326 0v85h178v-65l-20 -20h-158zM-32 -168q19 -5 43.5 -8.5t52.5 -3.5q41 0 83 7t78 25l-31 -24q19 31 33.5 72.5t23.5 100.5t9 143q0 81 -5.5 150t-13.5 134l88 12h8q8 -64 11.5 -132t3.5 -160q0 -105 -17.5 -181.5t-53.5 -127t-92 -75t-133 -24.5q-26 0 -51 2t-41 4
l-16 2v8zM-3 -334l59 -104l65 104h64v-4l-92 -152h-76l-84 152v4h64z" />
    <glyph glyph-name="uni06EF.fina" unicode="&#x6ef;" horiz-adv-x="504" 
d="M326 0v85h178v-65l-20 -20h-158zM-32 -168q19 -5 43.5 -8.5t52.5 -3.5q41 0 83 7t78 25l-31 -24q19 31 33.5 72.5t23.5 100.5t9 143q0 81 -5.5 150t-13.5 134l88 12h8q8 -64 11.5 -132t3.5 -160q0 -105 -17.5 -181.5t-53.5 -127t-92 -75t-133 -24.5q-26 0 -51 2t-41 4
l-16 2v8zM337 480l-59 104l-65 -104h-64v4l92 152h76l84 -152v-4h-64z" />
    <glyph glyph-name="uni0692.fina" unicode="&#x692;" horiz-adv-x="504" 
d="M326 0v85h178v-65l-20 -20h-158zM-32 -168q19 -5 43.5 -8.5t52.5 -3.5q41 0 83 7t78 25l-31 -24q19 31 33.5 72.5t23.5 100.5t9 143q0 81 -5.5 150t-13.5 134l88 12h8q8 -64 11.5 -132t3.5 -160q0 -105 -17.5 -181.5t-53.5 -127t-92 -75t-133 -24.5q-26 0 -51 2t-41 4
l-16 2v8zM219 646l59 -104l65 104h64v-4l-92 -152h-76l-84 152v4h64z" />
    <glyph glyph-name="uniFBA1" unicode="&#x6bb;" horiz-adv-x="613" arabic-form="final" 
d="M435 0v85h178v-65l-20 -20h-158zM0 -68q37 -43 72 -66.5t71 -32t75 -8.5q28 0 60 10t66 37l-36 -40q21 34 34 76t19.5 95.5t6.5 120.5q0 51 -4 98t-11 97t-17 109l84 12h8q12 -67 22 -145t10 -147q0 -103 -17 -180t-51 -127.5t-84.5 -75.5t-117.5 -25q-37 0 -70 10
t-62 27t-52.5 38.5t-41.5 44.5l28 72h8zM118 121l-9 15h96q17 0 28 5t11 20q0 11 -4 20t-11 16q-10 -1 -23 -1.5t-27 -0.5h-69l20 46h49q17 0 34.5 0.5t28.5 2.5h8q16 -13 31.5 -34t15.5 -45q0 -20 -7.5 -37t-29.5 -27t-64 -10h-187v2l16 43h50l-10 -15v196l53 7v-203z" />
    <glyph glyph-name="uniFB8D" unicode="&#x691;" horiz-adv-x="504" arabic-form="final" 
d="M326 0v85h178v-65l-20 -20h-158zM-32 -168q19 -5 43.5 -8.5t52.5 -3.5q41 0 83 7t78 25l-31 -24q19 31 33.5 72.5t23.5 100.5t9 143q0 81 -5.5 150t-13.5 134l88 12h8q8 -64 11.5 -132t3.5 -160q0 -105 -17.5 -181.5t-53.5 -127t-92 -75t-133 -24.5q-26 0 -51 2t-41 4
l-16 2v8zM248 540l-9 15h96q17 0 28 5t11 20q0 11 -4 20t-11 16q-10 -1 -23 -1.5t-27 -0.5h-69l20 46h49q17 0 34.5 0.5t28.5 2.5h8q16 -13 31.5 -34t15.5 -45q0 -20 -7.5 -37t-29.5 -27t-64 -10h-187v2l16 43h50l-10 -15v196l53 7v-203z" />
    <glyph glyph-name="uniFEBB" unicode="&#x635;" horiz-adv-x="1161" arabic-form="initial" 
d="M183 85h737q25 0 45 8t32 27.5t12 52.5q0 38 -21 85t-61 84l49 -20q-30 -6 -50.5 -8.5t-42.5 -3.5t-58 -1h-614l34 85h580q39 0 80.5 2t71.5 10h12q25 -23 50.5 -58.5t43.5 -78.5t18 -90q0 -39 -12 -71.5t-37 -57t-63 -37.5t-90 -13h-716v85zM0 85h173l-34 -21
q-4 14 -8 39.5t-4 56.5v268l84 12h8v-398l-38 43h186v-65l-20 -20h-367v65z" />
    <glyph glyph-name="uniFEBC" unicode="&#x635;" horiz-adv-x="1214" arabic-form="medial" 
d="M808 0v85h406v-65l-20 -20h-386zM183 85h727q38 0 63.5 19t25.5 69q0 38 -21 85t-61 84l49 -20q-30 -6 -50.5 -8.5t-42.5 -3.5t-58 -1h-604l34 85h570q39 0 80.5 2t71.5 10h12q25 -23 50.5 -58.5t43.5 -78.5t18 -90q0 -38 -10.5 -70t-32.5 -57l-36 -26q-23 -13 -54 -19.5
t-69 -6.5h-706v85zM0 85h173l-34 -21q-4 14 -8 39.5t-4 56.5v268l84 12h8v-398l-38 43h186v-65l-20 -20h-367v65z" />
    <glyph glyph-name="uniFEBA" unicode="&#x635;" horiz-adv-x="1446" arabic-form="final" 
d="M1040 0v85h406v-65l-20 -20h-386zM415 85h727q38 0 63.5 19t25.5 69q0 38 -21 85t-61 84l49 -20q-30 -6 -50.5 -8.5t-42.5 -3.5t-58 -1h-604l34 85h570q39 0 80.5 2t71.5 10h12q25 -23 50.5 -58.5t43.5 -78.5t18 -90q0 -38 -10.5 -70t-32.5 -57l-36 -26
q-23 -13 -54 -19.5t-69 -6.5h-706v85zM0 -68q37 -43 72 -66.5t71 -32t75 -8.5q28 0 60 10t66 37l-36 -40q21 34 34 76t19.5 95.5t6.5 120.5q0 51 -4 98t-11 97t-17 109l84 12h8q12 -67 22 -145t10 -147q0 -103 -17 -180t-51 -127.5t-84.5 -75.5t-117.5 -25q-37 0 -70 10
t-62 27t-52.5 38.5t-41.5 44.5l28 72h8z" />
    <glyph glyph-name="uni069E.init" unicode="&#x69e;" horiz-adv-x="1161" 
d="M183 85h737q25 0 45 8t32 27.5t12 52.5q0 38 -21 85t-61 84l49 -20q-30 -6 -50.5 -8.5t-42.5 -3.5t-58 -1h-614l34 85h580q39 0 80.5 2t71.5 10h12q25 -23 50.5 -58.5t43.5 -78.5t18 -90q0 -39 -12 -71.5t-37 -57t-63 -37.5t-90 -13h-716v85zM0 85h173l-34 -21
q-4 14 -8 39.5t-4 56.5v268l84 12h8v-398l-38 43h186v-65l-20 -20h-367v65zM557 619q-23 0 -38.5 15t-15.5 39t15.5 39t38.5 15t38.5 -15t15.5 -39t-15.5 -39t-38.5 -15zM638 507q-23 0 -38.5 15t-15.5 39t15.5 39t38.5 15t38.5 -15t15.5 -39t-15.5 -39t-38.5 -15zM507 491
q-23 0 -38.5 15t-15.5 39t15.5 39t38.5 15t38.5 -15t15.5 -39t-15.5 -39t-38.5 -15z" />
    <glyph glyph-name="uni069E.medi" unicode="&#x69e;" horiz-adv-x="1214" 
d="M808 0v85h406v-65l-20 -20h-386zM183 85h727q38 0 63.5 19t25.5 69q0 38 -21 85t-61 84l49 -20q-30 -6 -50.5 -8.5t-42.5 -3.5t-58 -1h-604l34 85h570q39 0 80.5 2t71.5 10h12q25 -23 50.5 -58.5t43.5 -78.5t18 -90q0 -38 -10.5 -70t-32.5 -57l-36 -26q-23 -13 -54 -19.5
t-69 -6.5h-706v85zM0 85h173l-34 -21q-4 14 -8 39.5t-4 56.5v268l84 12h8v-398l-38 43h186v-65l-20 -20h-367v65zM557 619q-23 0 -38.5 15t-15.5 39t15.5 39t38.5 15t38.5 -15t15.5 -39t-15.5 -39t-38.5 -15zM638 507q-23 0 -38.5 15t-15.5 39t15.5 39t38.5 15t38.5 -15
t15.5 -39t-15.5 -39t-38.5 -15zM507 491q-23 0 -38.5 15t-15.5 39t15.5 39t38.5 15t38.5 -15t15.5 -39t-15.5 -39t-38.5 -15z" />
    <glyph glyph-name="uni069E.fina" unicode="&#x69e;" horiz-adv-x="1446" 
d="M1040 0v85h406v-65l-20 -20h-386zM415 85h727q38 0 63.5 19t25.5 69q0 38 -21 85t-61 84l49 -20q-30 -6 -50.5 -8.5t-42.5 -3.5t-58 -1h-604l34 85h570q39 0 80.5 2t71.5 10h12q25 -23 50.5 -58.5t43.5 -78.5t18 -90q0 -38 -10.5 -70t-32.5 -57l-36 -26
q-23 -13 -54 -19.5t-69 -6.5h-706v85zM789 619q-23 0 -38.5 15t-15.5 39t15.5 39t38.5 15t38.5 -15t15.5 -39t-15.5 -39t-38.5 -15zM870 507q-23 0 -38.5 15t-15.5 39t15.5 39t38.5 15t38.5 -15t15.5 -39t-15.5 -39t-38.5 -15zM739 491q-23 0 -38.5 15t-15.5 39t15.5 39
t38.5 15t38.5 -15t15.5 -39t-15.5 -39t-38.5 -15zM0 -68q37 -43 72 -66.5t71 -32t75 -8.5q28 0 60 10t66 37l-36 -40q21 34 34 76t19.5 95.5t6.5 120.5q0 51 -4 98t-11 97t-17 109l84 12h8q12 -67 22 -145t10 -147q0 -103 -17 -180t-51 -127.5t-84.5 -75.5t-117.5 -25
q-37 0 -70 10t-62 27t-52.5 38.5t-41.5 44.5l28 72h8z" />
    <glyph glyph-name="uni069D.init" unicode="&#x69d;" horiz-adv-x="1161" 
d="M183 85h737q25 0 45 8t32 27.5t12 52.5q0 38 -21 85t-61 84l49 -20q-30 -6 -50.5 -8.5t-42.5 -3.5t-58 -1h-614l34 85h580q39 0 80.5 2t71.5 10h12q25 -23 50.5 -58.5t43.5 -78.5t18 -90q0 -39 -12 -71.5t-37 -57t-63 -37.5t-90 -13h-716v85zM540 -148q0 24 15.5 39
t38.5 15t38.5 -15t15.5 -39t-15.5 -39t-38.5 -15t-38.5 15t-15.5 39zM409 -166q0 24 15.5 39t38.5 15t38.5 -15t15.5 -39t-15.5 -39t-38.5 -15t-38.5 15t-15.5 39zM0 85h173l-34 -21q-4 14 -8 39.5t-4 56.5v268l84 12h8v-398l-38 43h186v-65l-20 -20h-367v65z" />
    <glyph glyph-name="uni069D.medi" unicode="&#x69d;" horiz-adv-x="1214" 
d="M808 0v85h406v-65l-20 -20h-386zM183 85h727q38 0 63.5 19t25.5 69q0 38 -21 85t-61 84l49 -20q-30 -6 -50.5 -8.5t-42.5 -3.5t-58 -1h-604l34 85h570q39 0 80.5 2t71.5 10h12q25 -23 50.5 -58.5t43.5 -78.5t18 -90q0 -38 -10.5 -70t-32.5 -57l-36 -26q-23 -13 -54 -19.5
t-69 -6.5h-706v85zM540 -148q0 24 15.5 39t38.5 15t38.5 -15t15.5 -39t-15.5 -39t-38.5 -15t-38.5 15t-15.5 39zM409 -166q0 24 15.5 39t38.5 15t38.5 -15t15.5 -39t-15.5 -39t-38.5 -15t-38.5 15t-15.5 39zM0 85h173l-34 -21q-4 14 -8 39.5t-4 56.5v268l84 12h8v-398
l-38 43h186v-65l-20 -20h-367v65z" />
    <glyph glyph-name="uni069D.fina" unicode="&#x69d;" horiz-adv-x="1446" 
d="M1040 0v85h406v-65l-20 -20h-386zM415 85h727q38 0 63.5 19t25.5 69q0 38 -21 85t-61 84l49 -20q-30 -6 -50.5 -8.5t-42.5 -3.5t-58 -1h-604l34 85h570q39 0 80.5 2t71.5 10h12q25 -23 50.5 -58.5t43.5 -78.5t18 -90q0 -38 -10.5 -70t-32.5 -57l-36 -26
q-23 -13 -54 -19.5t-69 -6.5h-706v85zM772 -148q0 24 15.5 39t38.5 15t38.5 -15t15.5 -39t-15.5 -39t-38.5 -15t-38.5 15t-15.5 39zM641 -166q0 24 15.5 39t38.5 15t38.5 -15t15.5 -39t-15.5 -39t-38.5 -15t-38.5 15t-15.5 39zM0 -68q37 -43 72 -66.5t71 -32t75 -8.5
q28 0 60 10t66 37l-36 -40q21 34 34 76t19.5 95.5t6.5 120.5q0 51 -4 98t-11 97t-17 109l84 12h8q12 -67 22 -145t10 -147q0 -103 -17 -180t-51 -127.5t-84.5 -75.5t-117.5 -25q-37 0 -70 10t-62 27t-52.5 38.5t-41.5 44.5l28 72h8z" />
    <glyph glyph-name="uniFEB3" unicode="&#x633;" horiz-adv-x="860" arabic-form="initial" 
d="M488 -52q-33 22 -73 33t-85.5 15t-97.5 4h-256v65l20 20h171l-36 -25q-2 14 -2.5 34t-0.5 42v288l84 12h8v-394l-38 43h82q54 0 90 -8.5t64 -28.5l-18 -32v444l84 12h8v-479l-16 47q36 3 76 17t77 38.5t64 59.5l-21 -70v407l84 12h8v-300q0 -68 -31 -119t-92 -85
t-153 -52z" />
    <glyph glyph-name="uniFEB4" unicode="&#x633;" horiz-adv-x="892" arabic-form="medial" 
d="M-20 0v65l20 20h167l-35 -25q-3 12 -3.5 28.5t-0.5 35.5v300l84 12h8v-394l-38 43h257l-35 -25q-3 16 -3.5 32.5t-0.5 31.5v336l84 12h8v-430l-38 43h262l-34 -21q-5 18 -7.5 43t-2.5 53v332l84 12h8v-462l-38 43h186v-65l-20 -20h-912z" />
    <glyph glyph-name="uniFEB2" unicode="&#x633;" horiz-adv-x="1112" arabic-form="final" 
d="M437 0l-35 85h257l-35 -25q-3 16 -3.5 30.5t-0.5 33.5v336l84 12h8v-430l-38 43h262l-34 -21q-5 18 -7.5 41.5t-2.5 54.5v332l84 12h8v-462l-38 43h186v-65l-20 -20h-675zM0 -64q37 -45 72 -69.5t71 -33.5t75 -9q28 0 60 10t66 37l-36 -35q21 34 34 76t19.5 95.5
t6.5 120.5q0 45 -3.5 96t-8.5 96.5t-8.5 74.5l-3.5 29l84 12h8q5 -45 10.5 -88.5t9.5 -90.5t4 -105q0 -103 -17 -180t-51 -127.5t-84.5 -75.5t-117.5 -25q-37 0 -70 10t-62 27t-52.5 38.5t-41.5 44.5l28 72h8z" />
    <glyph glyph-name="uni069A.init" unicode="&#x69a;" horiz-adv-x="860" 
d="M488 -52q-33 22 -73 33t-85.5 15t-97.5 4h-256v65l20 20h171l-36 -25q-2 14 -2.5 34t-0.5 42v288l84 12h8v-394l-38 43h82q54 0 90 -8.5t64 -28.5l-18 -32v444l84 12h8v-479l-16 47q36 3 76 17t77 38.5t64 59.5l-21 -70v407l84 12h8v-300q0 -68 -31 -119t-92 -85
t-153 -52zM345 -182q0 24 15.5 39t38.5 15t38.5 -15t15.5 -39t-15.5 -39t-38.5 -15t-38.5 15t-15.5 39zM444 579q-23 0 -38.5 15t-15.5 39t15.5 39t38.5 15t38.5 -15t15.5 -39t-15.5 -39t-38.5 -15z" />
    <glyph glyph-name="uni069A.medi" unicode="&#x69a;" horiz-adv-x="892" 
d="M-20 0v65l20 20h167l-35 -25q-3 12 -3.5 28.5t-0.5 35.5v300l84 12h8v-394l-38 43h257l-35 -25q-3 16 -3.5 32.5t-0.5 31.5v336l84 12h8v-430l-38 43h262l-34 -21q-5 18 -7.5 43t-2.5 53v332l84 12h8v-462l-38 43h186v-65l-20 -20h-912zM381 -162q0 24 15.5 39t38.5 15
t38.5 -15t15.5 -39t-15.5 -39t-38.5 -15t-38.5 15t-15.5 39zM448 579q-23 0 -38.5 15t-15.5 39t15.5 39t38.5 15t38.5 -15t15.5 -39t-15.5 -39t-38.5 -15z" />
    <glyph glyph-name="uni069A.fina" unicode="&#x69a;" horiz-adv-x="1112" 
d="M437 0l-35 85h257l-35 -25q-3 16 -3.5 30.5t-0.5 33.5v336l84 12h8v-430l-38 43h262l-34 -21q-5 18 -7.5 41.5t-2.5 54.5v332l84 12h8v-462l-38 43h186v-65l-20 -20h-675zM0 -64q37 -45 72 -69.5t71 -33.5t75 -9q28 0 60 10t66 37l-36 -35q21 34 34 76t19.5 95.5
t6.5 120.5q0 45 -3.5 96t-8.5 96.5t-8.5 74.5l-3.5 29l84 12h8q5 -45 10.5 -88.5t9.5 -90.5t4 -105q0 -103 -17 -180t-51 -127.5t-84.5 -75.5t-117.5 -25q-37 0 -70 10t-62 27t-52.5 38.5t-41.5 44.5l28 72h8zM668 579q-23 0 -38.5 15t-15.5 39t15.5 39t38.5 15t38.5 -15
t15.5 -39t-15.5 -39t-38.5 -15zM607 -195q0 24 15.5 39t38.5 15t38.5 -15t15.5 -39t-15.5 -39t-38.5 -15t-38.5 15t-15.5 39z" />
    <glyph glyph-name="uni069B.init" unicode="&#x69b;" horiz-adv-x="860" 
d="M488 -52q-33 22 -73 33t-85.5 15t-97.5 4h-256v65l20 20h171l-36 -25q-2 14 -2.5 34t-0.5 42v288l84 12h8v-394l-38 43h82q54 0 90 -8.5t64 -28.5l-18 -32v444l84 12h8v-479l-16 47q36 3 76 17t77 38.5t64 59.5l-21 -70v407l84 12h8v-300q0 -68 -31 -119t-92 -85
t-153 -52zM416 -142q0 24 15.5 39t38.5 15t38.5 -15t15.5 -39t-15.5 -39t-38.5 -15t-38.5 15t-15.5 39zM285 -158q0 24 15.5 39t38.5 15t38.5 -15t15.5 -39t-15.5 -39t-38.5 -15t-38.5 15t-15.5 39zM366 -270q0 24 15.5 39t38.5 15t38.5 -15t15.5 -39t-15.5 -39t-38.5 -15
t-38.5 15t-15.5 39z" />
    <glyph glyph-name="uni069B.medi" unicode="&#x69b;" horiz-adv-x="892" 
d="M-20 0v65l20 20h167l-35 -25q-3 12 -3.5 28.5t-0.5 35.5v300l84 12h8v-394l-38 43h257l-35 -25q-3 16 -3.5 32.5t-0.5 31.5v336l84 12h8v-430l-38 43h262l-34 -21q-5 18 -7.5 43t-2.5 53v332l84 12h8v-462l-38 43h186v-65l-20 -20h-912zM452 -122q0 24 15.5 39t38.5 15
t38.5 -15t15.5 -39t-15.5 -39t-38.5 -15t-38.5 15t-15.5 39zM321 -138q0 24 15.5 39t38.5 15t38.5 -15t15.5 -39t-15.5 -39t-38.5 -15t-38.5 15t-15.5 39zM402 -250q0 24 15.5 39t38.5 15t38.5 -15t15.5 -39t-15.5 -39t-38.5 -15t-38.5 15t-15.5 39z" />
    <glyph glyph-name="uni069B.fina" unicode="&#x69b;" horiz-adv-x="1112" 
d="M437 0l-35 85h257l-35 -25q-3 16 -3.5 30.5t-0.5 33.5v336l84 12h8v-430l-38 43h262l-34 -21q-5 18 -7.5 41.5t-2.5 54.5v332l84 12h8v-462l-38 43h186v-65l-20 -20h-675zM0 -64q37 -45 72 -69.5t71 -33.5t75 -9q28 0 60 10t66 37l-36 -35q21 34 34 76t19.5 95.5
t6.5 120.5q0 45 -3.5 96t-8.5 96.5t-8.5 74.5l-3.5 29l84 12h8q5 -45 10.5 -88.5t9.5 -90.5t4 -105q0 -103 -17 -180t-51 -127.5t-84.5 -75.5t-117.5 -25q-37 0 -70 10t-62 27t-52.5 38.5t-41.5 44.5l28 72h8zM206 -378q0 24 15.5 39t38.5 15t38.5 -15t15.5 -39t-15.5 -39
t-38.5 -15t-38.5 15t-15.5 39zM75 -394q0 24 15.5 39t38.5 15t38.5 -15t15.5 -39t-15.5 -39t-38.5 -15t-38.5 15t-15.5 39zM156 -506q0 24 15.5 39t38.5 15t38.5 -15t15.5 -39t-15.5 -39t-38.5 -15t-38.5 15t-15.5 39z" />
    <glyph glyph-name="uniFE7D" unicode="&#xfe7d;" horiz-adv-x="292" arabic-form="medial" 
d="M-10 0v75l10 10h292v-75l-10 -10h-292zM85 336q-20 0 -41 12t-34.5 40.5t-13.5 77.5v42l51 8h7v-37q0 -47 9.5 -69t25 -26.5t32.5 -2.5l-25 -14q12 13 17 43t5 71v20l51 8h7v-12q0 -28 -2.5 -49t-6.5 -37l-13 46q12 -26 27 -36t34.5 -10.5t42.5 0.5l-31 -11q3 7 8 23.5
t9 43t4 61.5v20l51 8h7v-12q0 -77 -15 -117.5t-38 -54.5t-48 -14q-23 0 -40 11t-23 19l19 2q-13 -33 -33 -43.5t-43 -10.5z" />
    <glyph glyph-name="uniFCF3" unicode="&#xfcf3;" horiz-adv-x="292" arabic-form="medial" 
d="M-10 0v75l10 10h292v-75l-10 -10h-292zM85 336q-20 0 -41 12t-34.5 40.5t-13.5 77.5v42l51 8h7v-37q0 -47 9.5 -69t25 -26.5t32.5 -2.5l-25 -14q12 13 17 43t5 71v20l51 8h7v-12q0 -28 -2.5 -49t-6.5 -37l-13 46q12 -26 27 -36t34.5 -10.5t42.5 0.5l-31 -11q3 7 8 23.5
t9 43t4 61.5v20l51 8h7v-12q0 -77 -15 -117.5t-38 -54.5t-48 -14q-23 0 -40 11t-23 19l19 2q-13 -33 -33 -43.5t-43 -10.5zM119 624l56 2q-10 8 -16 18.5t-6 29.5q0 23 12 43t40 30l-24 -4q21 0 36.5 -9t15.5 -29q0 -14 -10 -29t-29 -25t-48 -10q-28 0 -53 14t-48 36h-7
l-30 -31q35 -36 64 -50.5t69 -14.5q32 0 64 13.5t54 39.5t22 64q0 28 -21 48t-54 20q-25 0 -49 -15t-39 -39.5t-15 -54.5q0 -18 5.5 -29.5t10.5 -17.5z" />
    <glyph glyph-name="uniFCF2" unicode="&#xfcf2;" horiz-adv-x="292" arabic-form="medial" 
d="M-10 0v75l10 10h292v-75l-10 -10h-292zM85 336q-20 0 -41 12t-34.5 40.5t-13.5 77.5v42l51 8h7v-37q0 -47 9.5 -69t25 -26.5t32.5 -2.5l-25 -14q12 13 17 43t5 71v20l51 8h7v-12q0 -28 -2.5 -49t-6.5 -37l-13 46q12 -26 27 -36t34.5 -10.5t42.5 0.5l-31 -11q3 7 8 23.5
t9 43t4 61.5v20l51 8h7v-12q0 -77 -15 -117.5t-38 -54.5t-48 -14q-23 0 -40 11t-23 19l19 2q-13 -33 -33 -43.5t-43 -10.5zM14 614v56l258 84h8v-56l-258 -84h-8z" />
    <glyph glyph-name="uniFCF4" unicode="&#xfcf4;" horiz-adv-x="292" arabic-form="medial" 
d="M-10 0v75l10 10h292v-75l-10 -10h-292zM14 352v56l258 84h8v-56l-258 -84h-8zM75 524q-20 0 -41 12t-34.5 40.5t-13.5 77.5v42l51 8h7v-37q0 -47 9.5 -69t25 -26.5t32.5 -2.5l-25 -14q12 13 17 43t5 71v20l51 8h7v-12q0 -28 -2.5 -49t-6.5 -37l-13 46q12 -26 27 -36
t34.5 -10.5t42.5 0.5l-31 -11q3 7 8 23.5t9 43t4 61.5v20l51 8h7v-12q0 -77 -15 -117.5t-38 -54.5t-48 -14q-23 0 -40 11t-23 19l19 2q-13 -33 -33 -43.5t-43 -10.5z" />
    <glyph glyph-name="uniFEB7" unicode="&#x634;" horiz-adv-x="860" arabic-form="initial" 
d="M488 -52q-33 22 -73 33t-85.5 15t-97.5 4h-256v65l20 20h171l-36 -25q-2 14 -2.5 34t-0.5 42v288l84 12h8v-394l-38 43h82q54 0 90 -8.5t64 -28.5l-18 -32v444l84 12h8v-479l-16 47q36 3 76 17t77 38.5t64 59.5l-21 -70v407l84 12h8v-300q0 -68 -31 -119t-92 -85
t-153 -52zM427 691q-23 0 -38.5 15t-15.5 39t15.5 39t38.5 15t38.5 -15t15.5 -39t-15.5 -39t-38.5 -15zM508 579q-23 0 -38.5 15t-15.5 39t15.5 39t38.5 15t38.5 -15t15.5 -39t-15.5 -39t-38.5 -15zM377 563q-23 0 -38.5 15t-15.5 39t15.5 39t38.5 15t38.5 -15t15.5 -39
t-15.5 -39t-38.5 -15z" />
    <glyph glyph-name="uniFEB8" unicode="&#x634;" horiz-adv-x="892" arabic-form="medial" 
d="M-20 0v65l20 20h167l-35 -25q-3 12 -3.5 28.5t-0.5 35.5v300l84 12h8v-394l-38 43h257l-35 -25q-3 16 -3.5 32.5t-0.5 31.5v336l84 12h8v-430l-38 43h262l-34 -21q-5 18 -7.5 43t-2.5 53v332l84 12h8v-462l-38 43h186v-65l-20 -20h-912zM431 691q-23 0 -38.5 15t-15.5 39
t15.5 39t38.5 15t38.5 -15t15.5 -39t-15.5 -39t-38.5 -15zM512 579q-23 0 -38.5 15t-15.5 39t15.5 39t38.5 15t38.5 -15t15.5 -39t-15.5 -39t-38.5 -15zM381 563q-23 0 -38.5 15t-15.5 39t15.5 39t38.5 15t38.5 -15t15.5 -39t-15.5 -39t-38.5 -15z" />
    <glyph glyph-name="uniFEB6" unicode="&#x634;" horiz-adv-x="1112" arabic-form="final" 
d="M437 0l-35 85h257l-35 -25q-3 16 -3.5 30.5t-0.5 33.5v336l84 12h8v-430l-38 43h262l-34 -21q-5 18 -7.5 41.5t-2.5 54.5v332l84 12h8v-462l-38 43h186v-65l-20 -20h-675zM0 -64q37 -45 72 -69.5t71 -33.5t75 -9q28 0 60 10t66 37l-36 -35q21 34 34 76t19.5 95.5
t6.5 120.5q0 45 -3.5 96t-8.5 96.5t-8.5 74.5l-3.5 29l84 12h8q5 -45 10.5 -88.5t9.5 -90.5t4 -105q0 -103 -17 -180t-51 -127.5t-84.5 -75.5t-117.5 -25q-37 0 -70 10t-62 27t-52.5 38.5t-41.5 44.5l28 72h8zM651 691q-23 0 -38.5 15t-15.5 39t15.5 39t38.5 15t38.5 -15
t15.5 -39t-15.5 -39t-38.5 -15zM732 579q-23 0 -38.5 15t-15.5 39t15.5 39t38.5 15t38.5 -15t15.5 -39t-15.5 -39t-38.5 -15zM601 563q-23 0 -38.5 15t-15.5 39t15.5 39t38.5 15t38.5 -15t15.5 -39t-15.5 -39t-38.5 -15z" />
    <glyph glyph-name="uniFE7F" unicode="&#xfe7f;" horiz-adv-x="292" arabic-form="medial" 
d="M-10 0v75l10 10h292v-75l-10 -10h-292zM140 324q-43 0 -66.5 26.5t-23.5 60.5q0 27 13 50.5t36 37.5t51 14q22 0 41 -11t31.5 -32t12.5 -50q0 -25 -12.5 -47t-33.5 -35.5t-49 -13.5zM142 367q15 0 28.5 10.5t18.5 23.5q-1 20 -9.5 36t-21 28t-26.5 18l47 -6
q-26 1 -43 -9.5t-25 -26t-8 -30.5q0 -19 11.5 -31.5t27.5 -12.5z" />
    <glyph glyph-name="uniFEC3" unicode="&#x637;" horiz-adv-x="1168" arabic-form="initial" 
d="M190 85h737q25 0 45 8t32 27.5t12 52.5q0 38 -21 85t-61 84l49 -20q-30 -6 -50.5 -8.5t-42.5 -3.5t-58 -1h-614l34 85h580q39 0 80.5 2t71.5 10h12q25 -23 50.5 -58.5t43.5 -78.5t18 -90q0 -39 -12 -71.5t-37 -57t-63 -37.5t-90 -13h-716v85zM-20 0v65l20 20h180l-34 -21
q-4 14 -8 39.5t-4 56.5v588l84 12h8v-718l-38 43h186v-65l-20 -20h-374z" />
    <glyph glyph-name="uniFEC4" unicode="&#x637;" horiz-adv-x="1237" arabic-form="medial" 
d="M831 0v85h406v-65l-20 -20h-386zM190 85h737q25 0 45 8t32 27.5t12 52.5q0 38 -21 85t-61 84l49 -20q-30 -6 -50.5 -8.5t-42.5 -3.5t-58 -1h-614l34 85h580q39 0 80.5 2t71.5 10h12q25 -23 50.5 -58.5t43.5 -78.5t18 -90q0 -39 -12 -71.5t-37 -57t-63 -37.5t-90 -13h-716
v85zM-20 0v65l20 20h180l-34 -21q-4 14 -8 39.5t-4 56.5v588l84 12h8v-718l-38 43h186v-65l-20 -20h-374z" />
    <glyph glyph-name="uniFEC2" unicode="&#x637;" horiz-adv-x="1331" arabic-form="final" 
d="M925 0v85h406v-65l-20 -20h-386zM284 85h737q25 0 45 8t32 27.5t12 52.5q0 38 -21 85t-61 84l49 -20q-30 -6 -50.5 -8.5t-42.5 -3.5t-58 -1h-614l34 85h580q39 0 80.5 2t71.5 10h12q25 -23 50.5 -58.5t43.5 -78.5t18 -90q0 -39 -12 -71.5t-37 -57t-63 -37.5t-90 -13h-716
v85zM12 0v8l28 77h234l-34 -21q-4 14 -8 39.5t-4 56.5v588l84 12h8v-718l-38 43h186v-65l-20 -20h-436z" />
    <glyph glyph-name="uni069F.init" unicode="&#x69f;" horiz-adv-x="1168" 
d="M190 85h737q25 0 45 8t32 27.5t12 52.5q0 38 -21 85t-61 84l49 -20q-30 -6 -50.5 -8.5t-42.5 -3.5t-58 -1h-614l34 85h580q39 0 80.5 2t71.5 10h12q25 -23 50.5 -58.5t43.5 -78.5t18 -90q0 -39 -12 -71.5t-37 -57t-63 -37.5t-90 -13h-716v85zM564 619q-23 0 -38.5 15
t-15.5 39t15.5 39t38.5 15t38.5 -15t15.5 -39t-15.5 -39t-38.5 -15zM645 507q-23 0 -38.5 15t-15.5 39t15.5 39t38.5 15t38.5 -15t15.5 -39t-15.5 -39t-38.5 -15zM514 491q-23 0 -38.5 15t-15.5 39t15.5 39t38.5 15t38.5 -15t15.5 -39t-15.5 -39t-38.5 -15zM-20 0v65l20 20
h180l-34 -21q-4 14 -8 39.5t-4 56.5v588l84 12h8v-718l-38 43h186v-65l-20 -20h-374z" />
    <glyph glyph-name="uni069F.medi" unicode="&#x69f;" horiz-adv-x="1237" 
d="M831 0v85h406v-65l-20 -20h-386zM190 85h737q25 0 45 8t32 27.5t12 52.5q0 38 -21 85t-61 84l49 -20q-30 -6 -50.5 -8.5t-42.5 -3.5t-58 -1h-614l34 85h580q39 0 80.5 2t71.5 10h12q25 -23 50.5 -58.5t43.5 -78.5t18 -90q0 -39 -12 -71.5t-37 -57t-63 -37.5t-90 -13h-716
v85zM564 619q-23 0 -38.5 15t-15.5 39t15.5 39t38.5 15t38.5 -15t15.5 -39t-15.5 -39t-38.5 -15zM645 507q-23 0 -38.5 15t-15.5 39t15.5 39t38.5 15t38.5 -15t15.5 -39t-15.5 -39t-38.5 -15zM514 491q-23 0 -38.5 15t-15.5 39t15.5 39t38.5 15t38.5 -15t15.5 -39t-15.5 -39
t-38.5 -15zM-20 0v65l20 20h180l-34 -21q-4 14 -8 39.5t-4 56.5v588l84 12h8v-718l-38 43h186v-65l-20 -20h-374z" />
    <glyph glyph-name="uni069F.fina" unicode="&#x69f;" horiz-adv-x="1331" 
d="M925 0v85h406v-65l-20 -20h-386zM284 85h737q25 0 45 8t32 27.5t12 52.5q0 38 -21 85t-61 84l49 -20q-30 -6 -50.5 -8.5t-42.5 -3.5t-58 -1h-614l34 85h580q39 0 80.5 2t71.5 10h12q25 -23 50.5 -58.5t43.5 -78.5t18 -90q0 -39 -12 -71.5t-37 -57t-63 -37.5t-90 -13h-716
v85zM12 0v8l28 77h234l-34 -21q-4 14 -8 39.5t-4 56.5v588l84 12h8v-718l-38 43h186v-65l-20 -20h-436zM658 619q-23 0 -38.5 15t-15.5 39t15.5 39t38.5 15t38.5 -15t15.5 -39t-15.5 -39t-38.5 -15zM739 507q-23 0 -38.5 15t-15.5 39t15.5 39t38.5 15t38.5 -15t15.5 -39
t-15.5 -39t-38.5 -15zM608 491q-23 0 -38.5 15t-15.5 39t15.5 39t38.5 15t38.5 -15t15.5 -39t-15.5 -39t-38.5 -15z" />
    <glyph glyph-name="uniFB7C" unicode="&#x686;" horiz-adv-x="724" arabic-form="initial" 
d="M-20 0v66l20 20h495l-25 -13q-48 26 -108.5 83.5t-131 143.5t-150.5 196l64 60h8q95 -135 170.5 -226t133 -144.5t97.5 -77t64 -23.5l95 1v-8l-24 -78h-708zM284 -123q0 24 15.5 39t38.5 15t38.5 -15t15.5 -39t-15.5 -39t-38.5 -15t-38.5 15t-15.5 39zM153 -139
q0 24 15.5 39t38.5 15t38.5 -15t15.5 -39t-15.5 -39t-38.5 -15t-38.5 15t-15.5 39zM234 -251q0 24 15.5 39t38.5 15t38.5 -15t15.5 -39t-15.5 -39t-38.5 -15t-38.5 15t-15.5 39z" />
    <glyph glyph-name="uniFB7D" unicode="&#x686;" arabic-form="medial" 
d="M-20 0v66l20 20h495l-25 -13q-48 26 -108.5 83.5t-131 143.5t-150.5 196l64 60h8q95 -135 170.5 -225.5t133 -144.5t97.5 -77t63 -23h20v-66l-20 -20h-636zM289 -122q0 24 15.5 39t38.5 15t38.5 -15t15.5 -39t-15.5 -39t-38.5 -15t-38.5 15t-15.5 39zM158 -138
q0 24 15.5 39t38.5 15t38.5 -15t15.5 -39t-15.5 -39t-38.5 -15t-38.5 15t-15.5 39zM239 -250q0 24 15.5 39t38.5 15t38.5 -15t15.5 -39t-15.5 -39t-38.5 -15t-38.5 15t-15.5 39z" />
    <glyph glyph-name="uniFB7B" unicode="&#x686;" horiz-adv-x="672" arabic-form="final" 
d="M284 0q-67 0 -109 -15.5t-63 -44t-27 -66.5l-12 42q14 -53 69 -70t146 -17h44v-8l-28 -77h-68q-52 0 -102 17.5t-82 51.5t-32 83q0 28 13.5 60.5t45 62t86.5 48t139 18.5h244l-26 -12q-46 26 -105.5 83.5t-130 143t-150.5 196.5l64 60h8q97 -139 174 -230t133.5 -144
t94.5 -75t57 -22h25v-65l-20 -20h-388zM500 -122q0 24 15.5 39t38.5 15t38.5 -15t15.5 -39t-15.5 -39t-38.5 -15t-38.5 15t-15.5 39zM369 -138q0 24 15.5 39t38.5 15t38.5 -15t15.5 -39t-15.5 -39t-38.5 -15t-38.5 15t-15.5 39zM450 -250q0 24 15.5 39t38.5 15t38.5 -15
t15.5 -39t-15.5 -39t-38.5 -15t-38.5 15t-15.5 39z" />
    <glyph glyph-name="uni06BF.init" unicode="&#x6bf;" horiz-adv-x="724" 
d="M-20 0v66l20 20h495l-25 -13q-48 26 -108.5 83.5t-131 143.5t-150.5 196l64 60h8q95 -135 170.5 -226t133 -144.5t97.5 -77t64 -23.5l95 1v-8l-24 -78h-708zM284 -123q0 24 15.5 39t38.5 15t38.5 -15t15.5 -39t-15.5 -39t-38.5 -15t-38.5 15t-15.5 39zM153 -139
q0 24 15.5 39t38.5 15t38.5 -15t15.5 -39t-15.5 -39t-38.5 -15t-38.5 15t-15.5 39zM234 -251q0 24 15.5 39t38.5 15t38.5 -15t15.5 -39t-15.5 -39t-38.5 -15t-38.5 15t-15.5 39zM464 451q-23 0 -38.5 15t-15.5 39t15.5 39t38.5 15t38.5 -15t15.5 -39t-15.5 -39t-38.5 -15z
" />
    <glyph glyph-name="uni06BF.medi" unicode="&#x6bf;" 
d="M-20 0v66l20 20h495l-25 -13q-48 26 -108.5 83.5t-131 143.5t-150.5 196l64 60h8q95 -135 170.5 -225.5t133 -144.5t97.5 -77t63 -23h20v-66l-20 -20h-636zM289 -122q0 24 15.5 39t38.5 15t38.5 -15t15.5 -39t-15.5 -39t-38.5 -15t-38.5 15t-15.5 39zM158 -138
q0 24 15.5 39t38.5 15t38.5 -15t15.5 -39t-15.5 -39t-38.5 -15t-38.5 15t-15.5 39zM239 -250q0 24 15.5 39t38.5 15t38.5 -15t15.5 -39t-15.5 -39t-38.5 -15t-38.5 15t-15.5 39zM464 451q-23 0 -38.5 15t-15.5 39t15.5 39t38.5 15t38.5 -15t15.5 -39t-15.5 -39t-38.5 -15z
" />
    <glyph glyph-name="uni06BF.fina" unicode="&#x6bf;" horiz-adv-x="672" 
d="M284 0q-67 0 -109 -15.5t-63 -44t-27 -66.5l-12 42q14 -53 69 -70t146 -17h44v-8l-28 -77h-68q-52 0 -102 17.5t-82 51.5t-32 83q0 28 13.5 60.5t45 62t86.5 48t139 18.5h244l-26 -12q-46 26 -105.5 83.5t-130 143t-150.5 196.5l64 60h8q97 -139 174 -230t133.5 -144
t94.5 -75t57 -22h25v-65l-20 -20h-388zM500 -122q0 24 15.5 39t38.5 15t38.5 -15t15.5 -39t-15.5 -39t-38.5 -15t-38.5 15t-15.5 39zM369 -138q0 24 15.5 39t38.5 15t38.5 -15t15.5 -39t-15.5 -39t-38.5 -15t-38.5 15t-15.5 39zM450 -250q0 24 15.5 39t38.5 15t38.5 -15
t15.5 -39t-15.5 -39t-38.5 -15t-38.5 15t-15.5 39zM520 451q-23 0 -38.5 15t-15.5 39t15.5 39t38.5 15t38.5 -15t15.5 -39t-15.5 -39t-38.5 -15z" />
    <glyph glyph-name="uniFB7F" unicode="&#x687;" horiz-adv-x="672" arabic-form="final" 
d="M284 0q-67 0 -109 -15.5t-63 -44t-27 -66.5l-12 42q14 -53 69 -70t146 -17h44v-8l-28 -77h-68q-52 0 -102 17.5t-82 51.5t-32 83q0 28 13.5 60.5t45 62t86.5 48t139 18.5h244l-26 -12q-46 26 -105.5 83.5t-130 143t-150.5 196.5l64 60h8q97 -139 174 -230t133.5 -144
t94.5 -75t57 -22h25v-65l-20 -20h-388zM490 -102q0 24 15.5 39t38.5 15t38.5 -15t15.5 -39t-15.5 -39t-38.5 -15t-38.5 15t-15.5 39zM359 -120q0 24 15.5 39t38.5 15t38.5 -15t15.5 -39t-15.5 -39t-38.5 -15t-38.5 15t-15.5 39zM522 -234q0 24 15.5 39t38.5 15t38.5 -15
t15.5 -39t-15.5 -39t-38.5 -15t-38.5 15t-15.5 39zM391 -252q0 24 15.5 39t38.5 15t38.5 -15t15.5 -39t-15.5 -39t-38.5 -15t-38.5 15t-15.5 39z" />
    <glyph glyph-name="uniFB80" unicode="&#x687;" horiz-adv-x="724" arabic-form="initial" 
d="M-20 0v66l20 20h495l-25 -13q-48 26 -108.5 83.5t-131 143.5t-150.5 196l64 60h8q95 -135 170.5 -226t133 -144.5t97.5 -77t64 -23.5l95 1v-8l-24 -78h-708zM279 -105q0 24 15.5 39t38.5 15t38.5 -15t15.5 -39t-15.5 -39t-38.5 -15t-38.5 15t-15.5 39zM148 -123
q0 24 15.5 39t38.5 15t38.5 -15t15.5 -39t-15.5 -39t-38.5 -15t-38.5 15t-15.5 39zM311 -237q0 24 15.5 39t38.5 15t38.5 -15t15.5 -39t-15.5 -39t-38.5 -15t-38.5 15t-15.5 39zM180 -255q0 24 15.5 39t38.5 15t38.5 -15t15.5 -39t-15.5 -39t-38.5 -15t-38.5 15t-15.5 39z
" />
    <glyph glyph-name="uniFB81" unicode="&#x687;" arabic-form="medial" 
d="M-20 0v66l20 20h495l-25 -13q-48 26 -108.5 83.5t-131 143.5t-150.5 196l64 60h8q95 -135 170.5 -225.5t133 -144.5t97.5 -77t63 -23h20v-66l-20 -20h-636zM284 -104q0 24 15.5 39t38.5 15t38.5 -15t15.5 -39t-15.5 -39t-38.5 -15t-38.5 15t-15.5 39zM153 -122
q0 24 15.5 39t38.5 15t38.5 -15t15.5 -39t-15.5 -39t-38.5 -15t-38.5 15t-15.5 39zM316 -236q0 24 15.5 39t38.5 15t38.5 -15t15.5 -39t-15.5 -39t-38.5 -15t-38.5 15t-15.5 39zM185 -254q0 24 15.5 39t38.5 15t38.5 -15t15.5 -39t-15.5 -39t-38.5 -15t-38.5 15t-15.5 39z
" />
    <glyph glyph-name="uniFE97" unicode="&#x62a;" horiz-adv-x="316" arabic-form="initial" 
d="M-20 0v65l20 20h174l-34 -21q-4 14 -8 39.5t-4 56.5v332l84 12h8v-332q0 -20 0.5 -46t2 -51t5.5 -43v-8q-30 -12 -75.5 -18t-108.5 -6h-64zM237 610q-23 0 -38.5 15t-15.5 39t15.5 39t38.5 15t38.5 -15t15.5 -39t-15.5 -39t-38.5 -15zM106 592q-23 0 -38.5 15t-15.5 39
t15.5 39t38.5 15t38.5 -15t15.5 -39t-15.5 -39t-38.5 -15z" />
    <glyph glyph-name="uniFE98" unicode="&#x62a;" horiz-adv-x="367" arabic-form="medial" 
d="M0 85h173l-34 -21q-4 14 -8 39.5t-4 56.5v332l84 12h8v-457l-38 38h186v-65l-20 -20h-367v65zM237 610q-23 0 -38.5 15t-15.5 39t15.5 39t38.5 15t38.5 -15t15.5 -39t-15.5 -39t-38.5 -15zM106 592q-23 0 -38.5 15t-15.5 39t15.5 39t38.5 15t38.5 -15t15.5 -39t-15.5 -39
t-38.5 -15z" />
    <glyph glyph-name="uniFE96" unicode="&#x62a;" horiz-adv-x="1184" arabic-form="final" 
d="M778 0v85h406v-65l-20 -20h-386zM66 150h8q11 -5 31 -12t40 -13t31 -10q53 -15 117.5 -21t126 -7.5t104.5 -1.5h462l-34 -21q-4 14 -8 39.5t-4 56.5v332l84 12h8v-332q0 -20 0.5 -46t2 -51t5.5 -43v-8q-30 -12 -79.5 -18t-112.5 -6h-324q-90 0 -179 5t-198 30
q-19 5 -37 10.5t-33.5 11.5t-28.5 12zM640 448q-23 0 -38.5 15t-15.5 39t15.5 39t38.5 15t38.5 -15t15.5 -39t-15.5 -39t-38.5 -15zM509 430q-23 0 -38.5 15t-15.5 39t15.5 39t38.5 15t38.5 -15t15.5 -39t-15.5 -39t-38.5 -15z" />
    <glyph glyph-name="uniFE94" unicode="&#x629;" arabic-form="final" 
d="M415 162q-33 -28 -72 -52.5t-83 -24.5t-78 29t-34 86q0 26 5.5 51t19.5 53l-34 -37q44 34 86 59t90 47.5t109 46.5l20 90q-104 -37 -174 -72.5t-112 -69.5t-63 -66.5t-28 -62.5t-7 -58q0 -55 22.5 -95.5t62.5 -63t91 -22.5q44 0 79.5 14.5t62 36t42.5 40.5zM616 0l20 20
v65h-186l38 -38v497h-8l-84 -12v-429l12 12v-115h208zM362 644q-23 0 -38.5 15t-15.5 39t15.5 39t38.5 15t38.5 -15t15.5 -39t-15.5 -39t-38.5 -15zM231 626q-23 0 -38.5 15t-15.5 39t15.5 39t38.5 15t38.5 -15t15.5 -39t-15.5 -39t-38.5 -15z" />
    <glyph glyph-name="uni06C3.fina" unicode="&#x6c3;" horiz-adv-x="642" 
d="M622 0q-64 0 -109 24t-74 68.5t-44 106t-19 136.5l13 -33q-22 -2 -59 -13t-82.5 -27.5t-92.5 -37t-88 -42.5h-8l-19 82q49 27 108.5 52t118 44.5t104.5 29.5l74 -60q15 -96 41 -149.5t64.5 -74.5t91.5 -21v-65zM437 502q-23 0 -38.5 15t-15.5 39t15.5 39t38.5 15
t38.5 -15t15.5 -39t-15.5 -39t-38.5 -15zM306 484q-23 0 -38.5 15t-15.5 39t15.5 39t38.5 15t38.5 -15t15.5 -39t-15.5 -39t-38.5 -15z" />
    <glyph glyph-name="uni067C.init" unicode="&#x67c;" horiz-adv-x="316" 
d="M-20 0v65l20 20h174l-34 -21q-4 14 -8 39.5t-4 56.5v332l84 12h8v-332q0 -20 0.5 -46t2 -51t5.5 -43v-8q-30 -12 -75.5 -18t-108.5 -6h-64zM237 610q-23 0 -38.5 15t-15.5 39t15.5 39t38.5 15t38.5 -15t15.5 -39t-15.5 -39t-38.5 -15zM106 592q-23 0 -38.5 15t-15.5 39
t15.5 39t38.5 15t38.5 -15t15.5 -39t-15.5 -39t-38.5 -15zM142 30q32 0 58.5 -24.5t26.5 -68.5q0 -25 -12.5 -47t-33.5 -35.5t-49 -13.5q-43 0 -66.5 26.5t-23.5 60.5q0 27 13 50.5t36 37.5t51 14zM174 -1q-28 2 -46.5 -9.5t-27.5 -29t-9 -33.5q0 -21 12 -35t31 -14
q15 0 28.5 10t21 23.5t2.5 24.5l-3 -49q5 21 1 40t-13 35t-22 27t-27 16z" />
    <glyph glyph-name="uni067C.medi" unicode="&#x67c;" horiz-adv-x="367" 
d="M0 85h173l-34 -21q-4 14 -8 39.5t-4 56.5v332l84 12h8v-457l-38 38h186v-65l-20 -20h-367v65zM237 610q-23 0 -38.5 15t-15.5 39t15.5 39t38.5 15t38.5 -15t15.5 -39t-15.5 -39t-38.5 -15zM106 592q-23 0 -38.5 15t-15.5 39t15.5 39t38.5 15t38.5 -15t15.5 -39t-15.5 -39
t-38.5 -15zM183 30q32 0 58.5 -24.5t26.5 -68.5q0 -25 -12.5 -47t-33.5 -35.5t-49 -13.5q-43 0 -66.5 26.5t-23.5 60.5q0 27 13 50.5t36 37.5t51 14zM215 -1q-28 2 -46.5 -9.5t-27.5 -29t-9 -33.5q0 -21 12 -35t31 -14q15 0 28.5 10t21 23.5t2.5 24.5l-3 -49q5 21 1 40
t-13 35t-22 27t-27 16z" />
    <glyph glyph-name="uni067C.fina" unicode="&#x67c;" horiz-adv-x="1184" 
d="M778 0v85h406v-65l-20 -20h-386zM66 150h8q11 -5 31 -12t40 -13t31 -10q53 -15 117.5 -21t126 -7.5t104.5 -1.5h462l-34 -21q-4 14 -8 39.5t-4 56.5v332l84 12h8v-332q0 -20 0.5 -46t2 -51t5.5 -43v-8q-30 -12 -79.5 -18t-112.5 -6h-324q-90 0 -179 5t-198 30
q-19 5 -37 10.5t-33.5 11.5t-28.5 12zM640 448q-23 0 -38.5 15t-15.5 39t15.5 39t38.5 15t38.5 -15t15.5 -39t-15.5 -39t-38.5 -15zM509 430q-23 0 -38.5 15t-15.5 39t15.5 39t38.5 15t38.5 -15t15.5 -39t-15.5 -39t-38.5 -15zM584 30q32 0 58.5 -24.5t26.5 -68.5
q0 -25 -12.5 -47t-33.5 -35.5t-49 -13.5q-43 0 -66.5 26.5t-23.5 60.5q0 27 13 50.5t36 37.5t51 14zM616 -1q-28 2 -46.5 -9.5t-27.5 -29t-9 -33.5q0 -21 12 -35t31 -14q15 0 28.5 10t21 23.5t2.5 24.5l-3 -49q5 21 1 40t-13 35t-22 27t-27 16z" />
    <glyph glyph-name="uni067D.init" unicode="&#x67d;" horiz-adv-x="316" 
d="M-20 0v65l20 20h174l-34 -21q-4 14 -8 39.5t-4 56.5v332l84 12h8v-332q0 -20 0.5 -46t2 -51t5.5 -43v-8q-30 -12 -75.5 -18t-108.5 -6h-64zM216 691q-23 0 -38.5 15t-15.5 39t15.5 39t38.5 15t38.5 -15t15.5 -39t-15.5 -39t-38.5 -15zM85 675q-23 0 -38.5 15t-15.5 39
t15.5 39t38.5 15t38.5 -15t15.5 -39t-15.5 -39t-38.5 -15zM166 563q-23 0 -38.5 15t-15.5 39t15.5 39t38.5 15t38.5 -15t15.5 -39t-15.5 -39t-38.5 -15z" />
    <glyph glyph-name="uni067D.medi" unicode="&#x67d;" horiz-adv-x="367" 
d="M0 85h173l-34 -21q-4 14 -8 39.5t-4 56.5v332l84 12h8v-457l-38 38h186v-65l-20 -20h-367v65zM216 691q-23 0 -38.5 15t-15.5 39t15.5 39t38.5 15t38.5 -15t15.5 -39t-15.5 -39t-38.5 -15zM85 675q-23 0 -38.5 15t-15.5 39t15.5 39t38.5 15t38.5 -15t15.5 -39t-15.5 -39
t-38.5 -15zM166 563q-23 0 -38.5 15t-15.5 39t15.5 39t38.5 15t38.5 -15t15.5 -39t-15.5 -39t-38.5 -15z" />
    <glyph glyph-name="uni067D.fina" unicode="&#x67d;" horiz-adv-x="1184" 
d="M778 0v85h406v-65l-20 -20h-386zM66 150h8q11 -5 31 -12t40 -13t31 -10q53 -15 117.5 -21t126 -7.5t104.5 -1.5h462l-34 -21q-4 14 -8 39.5t-4 56.5v332l84 12h8v-332q0 -20 0.5 -46t2 -51t5.5 -43v-8q-30 -12 -79.5 -18t-112.5 -6h-324q-90 0 -179 5t-198 30
q-19 5 -37 10.5t-33.5 11.5t-28.5 12zM619 529q-23 0 -38.5 15t-15.5 39t15.5 39t38.5 15t38.5 -15t15.5 -39t-15.5 -39t-38.5 -15zM488 513q-23 0 -38.5 15t-15.5 39t15.5 39t38.5 15t38.5 -15t15.5 -39t-15.5 -39t-38.5 -15zM569 401q-23 0 -38.5 15t-15.5 39t15.5 39
t38.5 15t38.5 -15t15.5 -39t-15.5 -39t-38.5 -15z" />
    <glyph glyph-name="uniFB63" unicode="&#x67f;" horiz-adv-x="1184" arabic-form="final" 
d="M778 0v85h406v-65l-20 -20h-386zM66 150h8q11 -5 31 -12t40 -13t31 -10q53 -15 117.5 -21t126 -7.5t104.5 -1.5h462l-34 -21q-4 14 -8 39.5t-4 56.5v332l84 12h8v-332q0 -20 0.5 -46t2 -51t5.5 -43v-8q-30 -12 -79.5 -18t-112.5 -6h-324q-90 0 -179 5t-198 30
q-19 5 -37 10.5t-33.5 11.5t-28.5 12zM564 583q0 24 15.5 39t38.5 15t38.5 -15t15.5 -39t-15.5 -39t-38.5 -15t-38.5 15t-15.5 39zM433 565q0 24 15.5 39t38.5 15t38.5 -15t15.5 -39t-15.5 -39t-38.5 -15t-38.5 15t-15.5 39zM596 451q0 24 15.5 39t38.5 15t38.5 -15
t15.5 -39t-15.5 -39t-38.5 -15t-38.5 15t-15.5 39zM465 433q0 24 15.5 39t38.5 15t38.5 -15t15.5 -39t-15.5 -39t-38.5 -15t-38.5 15t-15.5 39z" />
    <glyph glyph-name="uniFB64" unicode="&#x67f;" horiz-adv-x="316" arabic-form="initial" 
d="M-20 0v65l20 20h174l-34 -21q-4 14 -8 39.5t-4 56.5v332l84 12h8v-332q0 -20 0.5 -46t2 -51t5.5 -43v-8q-30 -12 -75.5 -18t-108.5 -6h-64zM161 745q0 24 15.5 39t38.5 15t38.5 -15t15.5 -39t-15.5 -39t-38.5 -15t-38.5 15t-15.5 39zM30 727q0 24 15.5 39t38.5 15
t38.5 -15t15.5 -39t-15.5 -39t-38.5 -15t-38.5 15t-15.5 39zM193 613q0 24 15.5 39t38.5 15t38.5 -15t15.5 -39t-15.5 -39t-38.5 -15t-38.5 15t-15.5 39zM62 595q0 24 15.5 39t38.5 15t38.5 -15t15.5 -39t-15.5 -39t-38.5 -15t-38.5 15t-15.5 39z" />
    <glyph glyph-name="uniFB65" unicode="&#x67f;" horiz-adv-x="367" arabic-form="medial" 
d="M0 85h173l-34 -21q-4 14 -8 39.5t-4 56.5v332l84 12h8v-457l-38 38h186v-65l-20 -20h-367v65zM161 745q0 24 15.5 39t38.5 15t38.5 -15t15.5 -39t-15.5 -39t-38.5 -15t-38.5 15t-15.5 39zM30 727q0 24 15.5 39t38.5 15t38.5 -15t15.5 -39t-15.5 -39t-38.5 -15t-38.5 15
t-15.5 39zM193 613q0 24 15.5 39t38.5 15t38.5 -15t15.5 -39t-15.5 -39t-38.5 -15t-38.5 15t-15.5 39zM62 595q0 24 15.5 39t38.5 15t38.5 -15t15.5 -39t-15.5 -39t-38.5 -15t-38.5 15t-15.5 39z" />
    <glyph glyph-name="uniFEAC" unicode="&#x630;" horiz-adv-x="816" arabic-form="final" 
d="M410 0v85h406v-65l-20 -20h-386zM44 8l28 77h439q38 0 63.5 19t25.5 69q0 38 -21 85t-61 84l49 -15q-30 -6 -50.5 -8.5t-42.5 -3.5t-58 -1h-36q-40 0 -80 3t-78.5 10t-77.5 19l20 76h8q47 -16 104 -22t108 -6h32q39 0 80.5 2t71.5 10h12q25 -23 50.5 -58.5t43.5 -78.5
t18 -90q0 -52 -21.5 -93t-65.5 -64l-44 -15q-16 -4 -33.5 -5.5t-37.5 -1.5h-446v8zM384 538q-23 0 -38.5 15t-15.5 39t15.5 39t38.5 15t38.5 -15t15.5 -39t-15.5 -39t-38.5 -15z" />
    <glyph glyph-name="uniFC5B" unicode="&#xfc5b;" horiz-adv-x="752" arabic-form="isolated" 
d="M44 8l28 77h439q25 0 45 8t32 27t12 51q0 38 -21 85.5t-61 85.5l49 -15q-30 -6 -50.5 -8.5t-42.5 -3.5t-58 -1h-36q-40 0 -80 3t-78.5 10t-77.5 19l20 76h8q47 -16 104 -22t108 -6h32q39 0 80.5 2t71.5 10h12q25 -24 50.5 -59.5t43.5 -78.5t18 -91q0 -39 -12 -71t-37 -56
t-63 -37t-90 -13h-446v8zM384 538q-23 0 -38.5 15t-15.5 39t15.5 39t38.5 15t38.5 -15t15.5 -39t-15.5 -39t-38.5 -15zM361 879l50 6l2 -8q-4 -18 -5.5 -44.5t-2 -54t-0.5 -47.5v-24h-44v172z" />
    <glyph glyph-name="uniFE9B" unicode="&#x62b;" horiz-adv-x="316" arabic-form="initial" 
d="M-20 0v65l20 20h174l-34 -21q-4 14 -8 39.5t-4 56.5v332l84 12h8v-332q0 -20 0.5 -46t2 -51t5.5 -43v-8q-30 -12 -75.5 -18t-108.5 -6h-64zM154 712q-23 0 -38.5 15t-15.5 39t15.5 39t38.5 15t38.5 -15t15.5 -39t-15.5 -39t-38.5 -15zM235 600q-23 0 -38.5 15t-15.5 39
t15.5 39t38.5 15t38.5 -15t15.5 -39t-15.5 -39t-38.5 -15zM104 584q-23 0 -38.5 15t-15.5 39t15.5 39t38.5 15t38.5 -15t15.5 -39t-15.5 -39t-38.5 -15z" />
    <glyph glyph-name="uniFE9C" unicode="&#x62b;" horiz-adv-x="367" arabic-form="medial" 
d="M0 85h173l-34 -21q-4 14 -8 39.5t-4 56.5v332l84 12h8v-457l-38 38h186v-65l-20 -20h-367v65zM154 712q-23 0 -38.5 15t-15.5 39t15.5 39t38.5 15t38.5 -15t15.5 -39t-15.5 -39t-38.5 -15zM235 600q-23 0 -38.5 15t-15.5 39t15.5 39t38.5 15t38.5 -15t15.5 -39t-15.5 -39
t-38.5 -15zM104 584q-23 0 -38.5 15t-15.5 39t15.5 39t38.5 15t38.5 -15t15.5 -39t-15.5 -39t-38.5 -15z" />
    <glyph glyph-name="uniFE9A" unicode="&#x62b;" horiz-adv-x="1184" arabic-form="final" 
d="M778 0v85h406v-65l-20 -20h-386zM66 150h8q11 -5 31 -12t40 -13t31 -10q53 -15 117.5 -21t126 -7.5t104.5 -1.5h462l-34 -21q-4 14 -8 39.5t-4 56.5v332l84 12h8v-332q0 -20 0.5 -46t2 -51t5.5 -43v-8q-30 -12 -79.5 -18t-112.5 -6h-324q-90 0 -179 5t-198 30
q-19 5 -37 10.5t-33.5 11.5t-28.5 12zM557 550q-23 0 -38.5 15t-15.5 39t15.5 39t38.5 15t38.5 -15t15.5 -39t-15.5 -39t-38.5 -15zM638 438q-23 0 -38.5 15t-15.5 39t15.5 39t38.5 15t38.5 -15t15.5 -39t-15.5 -39t-38.5 -15zM507 422q-23 0 -38.5 15t-15.5 39t15.5 39
t38.5 15t38.5 -15t15.5 -39t-15.5 -39t-38.5 -15z" />
    <glyph glyph-name="uniFB68" unicode="&#x679;" horiz-adv-x="316" arabic-form="initial" 
d="M-20 0v65l20 20h174l-34 -21q-4 14 -8 39.5t-4 56.5v332l84 12h8v-332q0 -20 0.5 -46t2 -51t5.5 -43v-8q-30 -12 -75.5 -18t-108.5 -6h-64zM141 598l-9 15h96q17 0 28 5t11 20q0 11 -4 20t-11 16q-10 -1 -23 -1.5t-27 -0.5h-69l20 46h49q17 0 34.5 0.5t28.5 2.5h8
q16 -13 31.5 -34t15.5 -45q0 -20 -7.5 -37t-29.5 -27t-64 -10h-187v2l16 43h50l-10 -15v196l53 7v-203z" />
    <glyph glyph-name="uniFB69" unicode="&#x679;" horiz-adv-x="367" arabic-form="medial" 
d="M0 85h173l-34 -21q-4 14 -8 39.5t-4 56.5v332l84 12h8v-457l-38 38h186v-65l-20 -20h-367v65zM141 598l-9 15h96q17 0 28 5t11 20q0 11 -4 20t-11 16q-10 -1 -23 -1.5t-27 -0.5h-69l20 46h49q17 0 34.5 0.5t28.5 2.5h8q16 -13 31.5 -34t15.5 -45q0 -20 -7.5 -37
t-29.5 -27t-64 -10h-187v2l16 43h50l-10 -15v196l53 7v-203z" />
    <glyph glyph-name="uniFB67" unicode="&#x679;" horiz-adv-x="1184" arabic-form="final" 
d="M778 0v85h406v-65l-20 -20h-386zM66 150h8q11 -5 31 -12t40 -13t31 -10q53 -15 117.5 -21t126 -7.5t104.5 -1.5h462l-34 -21q-4 14 -8 39.5t-4 56.5v332l84 12h8v-332q0 -20 0.5 -46t2 -51t5.5 -43v-8q-30 -12 -79.5 -18t-112.5 -6h-324q-90 0 -179 5t-198 30
q-19 5 -37 10.5t-33.5 11.5t-28.5 12zM544 436l-9 15h96q17 0 28 5t11 20q0 11 -4 20t-11 16q-10 -1 -23 -1.5t-27 -0.5h-69l20 46h49q17 0 34.5 0.5t28.5 2.5h8q16 -13 31.5 -34t15.5 -45q0 -20 -7.5 -37t-29.5 -27t-64 -10h-187v2l16 43h50l-10 -15v196l53 7v-203z" />
    <glyph glyph-name="uniFB5F" unicode="&#x67a;" horiz-adv-x="1184" arabic-form="final" 
d="M778 0v85h406v-65l-20 -20h-386zM66 150h8q11 -5 31 -12t40 -13t31 -10q53 -15 117.5 -21t126 -7.5t104.5 -1.5h462l-34 -21q-4 14 -8 39.5t-4 56.5v332l84 12h8v-332q0 -20 0.5 -46t2 -51t5.5 -43v-8q-30 -12 -79.5 -18t-112.5 -6h-324q-90 0 -179 5t-198 30
q-19 5 -37 10.5t-33.5 11.5t-28.5 12zM574 523q-23 0 -38.5 15t-15.5 39t15.5 39t38.5 15t38.5 -15t15.5 -39t-15.5 -39t-38.5 -15zM574 383q-23 0 -38.5 15t-15.5 39t15.5 39t38.5 15t38.5 -15t15.5 -39t-15.5 -39t-38.5 -15z" />
    <glyph glyph-name="uniFB60" unicode="&#x67a;" horiz-adv-x="316" arabic-form="initial" 
d="M-20 0v65l20 20h174l-34 -21q-4 14 -8 39.5t-4 56.5v332l84 12h8v-332q0 -20 0.5 -46t2 -51t5.5 -43v-8q-30 -12 -75.5 -18t-108.5 -6h-64zM171 685q-23 0 -38.5 15t-15.5 39t15.5 39t38.5 15t38.5 -15t15.5 -39t-15.5 -39t-38.5 -15zM171 545q-23 0 -38.5 15t-15.5 39
t15.5 39t38.5 15t38.5 -15t15.5 -39t-15.5 -39t-38.5 -15z" />
    <glyph glyph-name="uniFB61" unicode="&#x67a;" horiz-adv-x="367" arabic-form="medial" 
d="M0 85h173l-34 -21q-4 14 -8 39.5t-4 56.5v332l84 12h8v-457l-38 38h186v-65l-20 -20h-367v65zM171 685q-23 0 -38.5 15t-15.5 39t15.5 39t38.5 15t38.5 -15t15.5 -39t-15.5 -39t-38.5 -15zM171 545q-23 0 -38.5 15t-15.5 39t15.5 39t38.5 15t38.5 -15t15.5 -39t-15.5 -39
t-38.5 -15z" />
    <glyph glyph-name="uniFBD8" unicode="&#x6c7;" horiz-adv-x="648" arabic-form="final" 
d="M60 224q0 53 20.5 98.5t55 80t76.5 54t84 19.5q50 0 96.5 -25.5t83.5 -70t58.5 -102t21.5 -122.5q0 -130 -34.5 -223.5t-102 -143t-167.5 -49.5q-54 0 -96.5 12t-67 24l-24.5 12l32 72h8q38 -21 81.5 -30.5t82.5 -9.5q49 0 81 5.5t63 16.5l-36 -26q35 41 54 90.5
t26.5 106t7.5 119.5q0 42 -11 86.5t-35 84.5t-63 70t-96 43l58 12q-86 -31 -125.5 -87.5t-39.5 -114.5q0 -44 23.5 -75.5t67.5 -48.5t105 -17h157h24h139v-65l-20 -20h-320q-72 0 -133 24t-98 74t-37 126zM269 589l56 2q-10 8 -16 18.5t-6 29.5q0 23 12 43t40 30l-24 -4
q21 0 36.5 -9t15.5 -29q0 -14 -10 -29t-29 -25t-48 -10q-28 0 -53 14t-48 36h-7l-30 -31q35 -36 64 -50.5t69 -14.5q32 0 64 13.5t54 39.5t22 64q0 28 -21 48t-54 20q-25 0 -49 -15t-39 -39.5t-15 -54.5q0 -18 5.5 -29.5t10.5 -17.5z" />
    <glyph glyph-name="uni0677.fina" unicode="&#x677;" horiz-adv-x="648" 
d="M339 609q0 32 18 59t51.5 43.5t79.5 16.5h40v-8l-13 -62h-38q-37 0 -58 -16.5t-25 -45.5l-5 19q15 -27 39 -33t49 -6h49v-7l-11 -63h-54q-40 0 -67.5 15.5t-41 39t-13.5 48.5zM123 557l56 2q-10 8 -16 18.5t-6 29.5q0 23 12 43t40 30l-24 -4q21 0 36.5 -9t15.5 -29
q0 -14 -10 -29t-29 -25t-48 -10q-28 0 -53 14t-48 36h-7l-30 -31q35 -36 64 -50.5t69 -14.5q32 0 64 13.5t54 39.5t22 64q0 28 -21 48t-54 20q-25 0 -49 -15t-39 -39.5t-15 -54.5q0 -18 5.5 -29.5t10.5 -17.5zM60 224q0 53 20.5 98.5t55 80t76.5 54t84 19.5q50 0 96.5 -25.5
t83.5 -70t58.5 -102t21.5 -122.5q0 -130 -34.5 -223.5t-102 -143t-167.5 -49.5q-54 0 -96.5 12t-67 24l-24.5 12l32 72h8q38 -21 81.5 -30.5t82.5 -9.5q49 0 81 5.5t63 16.5l-36 -26q35 41 54 90.5t26.5 106t7.5 119.5q0 42 -11 86.5t-35 84.5t-63 70t-96 43l58 12
q-86 -31 -125.5 -87.5t-39.5 -114.5q0 -44 23.5 -75.5t67.5 -48.5t105 -17h157h24h139v-65l-20 -20h-320q-72 0 -133 24t-98 74t-37 126z" />
    <glyph glyph-name="uniFBDF" unicode="&#x6cb;" horiz-adv-x="648" arabic-form="final" 
d="M60 224q0 53 20.5 98.5t55 80t76.5 54t84 19.5q50 0 96.5 -25.5t83.5 -70t58.5 -102t21.5 -122.5q0 -130 -34.5 -223.5t-102 -143t-167.5 -49.5q-54 0 -96.5 12t-67 24l-24.5 12l32 72h8q38 -21 81.5 -30.5t82.5 -9.5q49 0 81 5.5t63 16.5l-36 -26q35 41 54 90.5
t26.5 106t7.5 119.5q0 42 -11 86.5t-35 84.5t-63 70t-96 43l58 12q-86 -31 -125.5 -87.5t-39.5 -114.5q0 -44 23.5 -75.5t67.5 -48.5t105 -17h157h24h139v-65l-20 -20h-320q-72 0 -133 24t-98 74t-37 126zM279 690q-23 0 -38.5 15t-15.5 39t15.5 39t38.5 15t38.5 -15
t15.5 -39t-15.5 -39t-38.5 -15zM360 578q-23 0 -38.5 15t-15.5 39t15.5 39t38.5 15t38.5 -15t15.5 -39t-15.5 -39t-38.5 -15zM229 562q-23 0 -38.5 15t-15.5 39t15.5 39t38.5 15t38.5 -15t15.5 -39t-15.5 -39t-38.5 -15z" />
    <glyph glyph-name="uniFB6C" unicode="&#x6a4;" arabic-form="initial" 
d="M0 85h214l-17 -18q-55 32 -92 87.5t-37 125.5q0 69 32 122t92 83.5t144 30.5q44 0 85.5 -6.5t102.5 -25.5l4 -8q-4 -18 -5.5 -48t-2 -61t-0.5 -51v-284l-4 -8q-30 -12 -75.5 -18t-108.5 -6h-352v65zM160 287q0 -58 35.5 -105.5t103 -74t163.5 -21.5l-34 -44v310
q0 27 2 49t6 38l16 -25q-20 6 -36 11t-35.5 8t-51.5 3q-78 0 -123.5 -41.5t-45.5 -107.5zM319 730q-23 0 -38.5 15t-15.5 39t15.5 39t38.5 15t38.5 -15t15.5 -39t-15.5 -39t-38.5 -15zM400 618q-23 0 -38.5 15t-15.5 39t15.5 39t38.5 15t38.5 -15t15.5 -39t-15.5 -39
t-38.5 -15zM269 602q-23 0 -38.5 15t-15.5 39t15.5 39t38.5 15t38.5 -15t15.5 -39t-15.5 -39t-38.5 -15z" />
    <glyph glyph-name="uniFB6D" unicode="&#x6a4;" arabic-form="medial" 
d="M310 516q70 0 122.5 -28.5t82 -76.5t29.5 -107q0 -76 -39.5 -137t-98.5 -102l-18 20h247l1 -65l-20 -20h-195q-30 0 -62.5 8t-64.5 21h50q-31 -13 -63 -21t-61 -8h-240v65l20 20h244l-17 -20q-64 43 -109.5 108t-45.5 145q0 38 16.5 73.5t48 63.5t75.5 44.5t98 16.5z
M136 325l11 58q-3 -65 16 -115t50.5 -86t66.5 -59t62 -34l-36 -2q36 13 69.5 41.5t55 68t21.5 83.5q0 37 -17 72.5t-50.5 59.5t-82.5 24q-33 0 -66.5 -13t-60 -38t-39.5 -60zM293 730q-23 0 -38.5 15t-15.5 39t15.5 39t38.5 15t38.5 -15t15.5 -39t-15.5 -39t-38.5 -15z
M374 618q-23 0 -38.5 15t-15.5 39t15.5 39t38.5 15t38.5 -15t15.5 -39t-15.5 -39t-38.5 -15zM243 602q-23 0 -38.5 15t-15.5 39t15.5 39t38.5 15t38.5 -15t15.5 -39t-15.5 -39t-38.5 -15z" />
    <glyph glyph-name="uniFB6B" unicode="&#x6a4;" horiz-adv-x="1168" arabic-form="final" 
d="M862 516q70 0 122.5 -28.5t82 -76.5t29.5 -107q0 -76 -39.5 -137t-98.5 -102l-18 20h247l1 -65l-20 -20h-195q-30 0 -62.5 8t-64.5 21h50q-31 -13 -63 -21t-61 -8h-216q-101 0 -207.5 4.5t-201.5 30.5q-19 6 -37 11.5t-33.5 11t-28.5 11.5l18 81h8q11 -5 31 -12t40 -13
t31 -10q49 -14 110.5 -20.5t131 -8t138.5 -1.5h240l-17 -20q-64 43 -109.5 108t-45.5 145q0 38 16.5 73.5t48 63.5t75.5 44.5t98 16.5zM688 325l11 58q-3 -65 16 -115t50.5 -86t66.5 -59t62 -34l-36 -2q36 13 69.5 41.5t55 68t21.5 83.5q0 37 -17 72.5t-50.5 59.5t-82.5 24
q-33 0 -66.5 -13t-60 -38t-39.5 -60zM835 724q-23 0 -38.5 15t-15.5 39t15.5 39t38.5 15t38.5 -15t15.5 -39t-15.5 -39t-38.5 -15zM916 612q-23 0 -38.5 15t-15.5 39t15.5 39t38.5 15t38.5 -15t15.5 -39t-15.5 -39t-38.5 -15zM785 596q-23 0 -38.5 15t-15.5 39t15.5 39
t38.5 15t38.5 -15t15.5 -39t-15.5 -39t-38.5 -15z" />
    <glyph glyph-name="uniFEEE" unicode="&#x648;" horiz-adv-x="648" arabic-form="final" 
d="M60 224q0 53 20.5 98.5t55 80t76.5 54t84 19.5q50 0 96.5 -25.5t83.5 -70t58.5 -102t21.5 -122.5q0 -130 -34.5 -223.5t-102 -143t-167.5 -49.5q-54 0 -96.5 12t-67 24l-24.5 12l32 72h8q38 -21 81.5 -30.5t82.5 -9.5q49 0 81 5.5t63 16.5l-36 -26q35 41 54 90.5
t26.5 106t7.5 119.5q0 42 -11 86.5t-35 84.5t-63 70t-96 43l58 12q-86 -31 -125.5 -87.5t-39.5 -114.5q0 -44 23.5 -75.5t67.5 -48.5t105 -17h157h24h139v-65l-20 -20h-320q-72 0 -133 24t-98 74t-37 126z" />
    <glyph glyph-name="uni06CF.fina" unicode="&#x6cf;" horiz-adv-x="648" 
d="M60 224q0 53 20.5 98.5t55 80t76.5 54t84 19.5q50 0 96.5 -25.5t83.5 -70t58.5 -102t21.5 -122.5q0 -130 -34.5 -223.5t-102 -143t-167.5 -49.5q-54 0 -96.5 12t-67 24l-24.5 12l32 72h8q38 -21 81.5 -30.5t82.5 -9.5q49 0 81 5.5t63 16.5l-36 -26q35 41 54 90.5
t26.5 106t7.5 119.5q0 42 -11 86.5t-35 84.5t-63 70t-96 43l58 12q-86 -31 -125.5 -87.5t-39.5 -114.5q0 -44 23.5 -75.5t67.5 -48.5t105 -17h157h24h139v-65l-20 -20h-320q-72 0 -133 24t-98 74t-37 126zM296 578q-23 0 -38.5 15t-15.5 39t15.5 39t38.5 15t38.5 -15
t15.5 -39t-15.5 -39t-38.5 -15z" />
    <glyph glyph-name="uniFE86" unicode="&#x624;" horiz-adv-x="648" arabic-form="final" 
d="M60 224q0 53 20.5 98.5t55 80t76.5 54t84 19.5q50 0 96.5 -25.5t83.5 -70t58.5 -102t21.5 -122.5q0 -130 -34.5 -223.5t-102 -143t-167.5 -49.5q-54 0 -96.5 12t-67 24l-24.5 12l32 72h8q38 -21 81.5 -30.5t82.5 -9.5q49 0 81 5.5t63 16.5l-36 -26q35 41 54 90.5
t26.5 106t7.5 119.5q0 42 -11 86.5t-35 84.5t-63 70t-96 43l58 12q-86 -31 -125.5 -87.5t-39.5 -114.5q0 -44 23.5 -75.5t67.5 -48.5t105 -17h157h24h139v-65l-20 -20h-320q-72 0 -133 24t-98 74t-37 126zM186 649q0 32 18 59t51.5 43.5t79.5 16.5h40v-8l-13 -62h-38
q-37 0 -58 -16.5t-25 -45.5l-5 19q15 -27 39 -33t49 -6h49v-7l-11 -63h-54q-40 0 -67.5 15.5t-41 39t-13.5 48.5z" />
    <glyph glyph-name="uni06CA.fina" unicode="&#x6ca;" horiz-adv-x="648" 
d="M60 224q0 53 20.5 98.5t55 80t76.5 54t84 19.5q50 0 96.5 -25.5t83.5 -70t58.5 -102t21.5 -122.5q0 -130 -34.5 -223.5t-102 -143t-167.5 -49.5q-54 0 -96.5 12t-67 24l-24.5 12l32 72h8q38 -21 81.5 -30.5t82.5 -9.5q49 0 81 5.5t63 16.5l-36 -26q35 41 54 90.5
t26.5 106t7.5 119.5q0 42 -11 86.5t-35 84.5t-63 70t-96 43l58 12q-86 -31 -125.5 -87.5t-39.5 -114.5q0 -44 23.5 -75.5t67.5 -48.5t105 -17h157h24h139v-65l-20 -20h-320q-72 0 -133 24t-98 74t-37 126zM362 588q-23 0 -38.5 15t-15.5 39t15.5 39t38.5 15t38.5 -15
t15.5 -39t-15.5 -39t-38.5 -15zM231 570q-23 0 -38.5 15t-15.5 39t15.5 39t38.5 15t38.5 -15t15.5 -39t-15.5 -39t-38.5 -15z" />
    <glyph glyph-name="uni06C4.fina" unicode="&#x6c4;" horiz-adv-x="648" 
d="M60 224q0 53 20.5 98.5t55 80t76.5 54t84 19.5q50 0 96.5 -25.5t83.5 -70t58.5 -102t21.5 -122.5q0 -130 -34.5 -223.5t-102 -143t-167.5 -49.5q-54 0 -96.5 12t-67 24l-24.5 12l32 72h8q38 -21 81.5 -30.5t82.5 -9.5q49 0 81 5.5t63 16.5l-36 -26q35 41 54 90.5
t26.5 106t7.5 119.5q0 42 -11 86.5t-35 84.5t-63 70t-96 43l58 12q-86 -31 -125.5 -87.5t-39.5 -114.5q0 -44 23.5 -75.5t67.5 -48.5t105 -17h157h24h139v-65l-20 -20h-320q-72 0 -133 24t-98 74t-37 126zM272 -230q32 0 58.5 -24.5t26.5 -68.5q0 -25 -12.5 -47t-33.5 -35.5
t-49 -13.5q-43 0 -66.5 26.5t-23.5 60.5q0 27 13 50.5t36 37.5t51 14zM304 -261q-28 2 -46.5 -9.5t-27.5 -29t-9 -33.5q0 -21 12 -35t31 -14q15 0 28.5 10t21 23.5t2.5 24.5l-3 -49q5 21 1 40t-13 35t-22 27t-27 16z" />
    <glyph glyph-name="uniFEF3" unicode="&#x64a;" horiz-adv-x="316" arabic-form="initial" 
d="M-20 0v65l20 20h174l-34 -21q-4 14 -8 39.5t-4 56.5v332l84 12h8v-332q0 -20 0.5 -46t2 -51t5.5 -43v-8q-30 -12 -75.5 -18t-108.5 -6h-64zM117 -148q0 24 15.5 39t38.5 15t38.5 -15t15.5 -39t-15.5 -39t-38.5 -15t-38.5 15t-15.5 39zM-14 -166q0 24 15.5 39t38.5 15
t38.5 -15t15.5 -39t-15.5 -39t-38.5 -15t-38.5 15t-15.5 39z" />
    <glyph glyph-name="uniFEF4" unicode="&#x64a;" horiz-adv-x="367" arabic-form="medial" 
d="M0 85h173l-34 -21q-4 14 -8 39.5t-4 56.5v332l84 12h8v-457l-38 38h186v-65l-20 -20h-367v65zM136 -148q0 24 15.5 39t38.5 15t38.5 -15t15.5 -39t-15.5 -39t-38.5 -15t-38.5 15t-15.5 39zM5 -166q0 24 15.5 39t38.5 15t38.5 -15t15.5 -39t-15.5 -39t-38.5 -15t-38.5 15
t-15.5 39z" />
    <glyph glyph-name="uniFEF2" unicode="&#x64a;" horiz-adv-x="751" arabic-form="final" 
d="M731 0q-54 0 -87.5 22.5t-53.5 58t-36 72.5l-81 194l19 -11q-27 -3 -60.5 -16.5t-58 -35t-24.5 -48.5q0 -26 16 -55t40 -59t48 -58.5t40 -53t16 -42.5q0 -58 -39 -111.5t-112.5 -87t-176.5 -33.5q-65 0 -110 10t-68 20l-23 10l21 77h8q19 -6 44.5 -13.5t62.5 -13t89 -5.5
q87 0 151 36t99 94l-2 -36q-18 27 -49.5 64t-64.5 78t-55.5 83t-22.5 80q0 52 26.5 89.5t67 62.5t86 40.5t84.5 23.5h8l83 -209q19 -47 35 -78.5t39 -47.5t61 -16v-65zM138 64q-23 0 -38.5 15t-15.5 39t15.5 39t38.5 15t38.5 -15t15.5 -39t-15.5 -39t-38.5 -15zM138 -76
q-23 0 -38.5 15t-15.5 39t15.5 39t38.5 15t38.5 -15t15.5 -39t-15.5 -39t-38.5 -15z" />
    <glyph glyph-name="uniFBFE" unicode="&#x6cc;" horiz-adv-x="316" arabic-form="initial" 
d="M-20 0v65l20 20h174l-34 -21q-4 14 -8 39.5t-4 56.5v332l84 12h8v-332q0 -20 0.5 -46t2 -51t5.5 -43v-8q-30 -12 -75.5 -18t-108.5 -6h-64zM117 -148q0 24 15.5 39t38.5 15t38.5 -15t15.5 -39t-15.5 -39t-38.5 -15t-38.5 15t-15.5 39zM-14 -166q0 24 15.5 39t38.5 15
t38.5 -15t15.5 -39t-15.5 -39t-38.5 -15t-38.5 15t-15.5 39z" />
    <glyph glyph-name="uniFBFF" unicode="&#x6cc;" horiz-adv-x="367" arabic-form="medial" 
d="M0 85h173l-34 -21q-4 14 -8 39.5t-4 56.5v332l84 12h8v-457l-38 38h186v-65l-20 -20h-367v65zM136 -148q0 24 15.5 39t38.5 15t38.5 -15t15.5 -39t-15.5 -39t-38.5 -15t-38.5 15t-15.5 39zM5 -166q0 24 15.5 39t38.5 15t38.5 -15t15.5 -39t-15.5 -39t-38.5 -15t-38.5 15
t-15.5 39z" />
    <glyph glyph-name="uniFBFD" unicode="&#x6cc;" horiz-adv-x="751" arabic-form="final" 
d="M731 0q-54 0 -87.5 22.5t-53.5 58t-36 72.5l-81 194l19 -11q-27 -3 -60.5 -16.5t-58 -35t-24.5 -48.5q0 -26 16 -55t40 -59t48 -58.5t40 -53t16 -42.5q0 -58 -39 -111.5t-112.5 -87t-176.5 -33.5q-65 0 -110 10t-68 20l-23 10l21 77h8q19 -6 44.5 -13.5t62.5 -13t89 -5.5
q87 0 151 36t99 94l-2 -36q-18 27 -49.5 64t-64.5 78t-55.5 83t-22.5 80q0 52 26.5 89.5t67 62.5t86 40.5t84.5 23.5h8l83 -209q19 -47 35 -78.5t39 -47.5t61 -16v-65z" />
    <glyph glyph-name="uniFE8B" unicode="&#x626;" horiz-adv-x="316" arabic-form="initial" 
d="M-20 0v65l20 20h174l-34 -21q-4 14 -8 39.5t-4 56.5v332l84 12h8v-332q0 -20 0.5 -46t2 -51t5.5 -43v-8q-30 -12 -75.5 -18t-108.5 -6h-64zM61 671q0 32 18 59t51.5 43.5t79.5 16.5h40v-8l-13 -62h-38q-37 0 -58 -16.5t-25 -45.5l-5 19q15 -27 39 -33t49 -6h49v-7
l-11 -63h-54q-40 0 -67.5 15.5t-41 39t-13.5 48.5z" />
    <glyph glyph-name="uniFE8C" unicode="&#x626;" horiz-adv-x="367" arabic-form="medial" 
d="M0 85h173l-34 -21q-4 14 -8 39.5t-4 56.5v332l84 12h8v-457l-38 38h186v-65l-20 -20h-367v65zM61 671q0 32 18 59t51.5 43.5t79.5 16.5h40v-8l-13 -62h-38q-37 0 -58 -16.5t-25 -45.5l-5 19q15 -27 39 -33t49 -6h49v-7l-11 -63h-54q-40 0 -67.5 15.5t-41 39t-13.5 48.5z
" />
    <glyph glyph-name="uniFE8A" unicode="&#x626;" horiz-adv-x="751" arabic-form="final" 
d="M731 0q-54 0 -87.5 22.5t-53.5 58t-36 72.5l-81 194l19 -11q-27 -3 -60.5 -16.5t-58 -35t-24.5 -48.5q0 -26 16 -55t40 -59t48 -58.5t40 -53t16 -42.5q0 -58 -39 -111.5t-112.5 -87t-176.5 -33.5q-65 0 -110 10t-68 20l-23 10l21 77h8q19 -6 44.5 -13.5t62.5 -13t89 -5.5
q87 0 151 36t99 94l-2 -36q-18 27 -49.5 64t-64.5 78t-55.5 83t-22.5 80q0 52 26.5 89.5t67 62.5t86 40.5t84.5 23.5h8l83 -209q19 -47 35 -78.5t39 -47.5t61 -16v-65zM-49 110q0 32 18 59t51.5 43.5t79.5 16.5h40v-8l-13 -62h-38q-37 0 -58 -16.5t-25 -45.5l-5 19
q15 -27 39 -33t49 -6h49v-7l-11 -63h-54q-40 0 -67.5 15.5t-41 39t-13.5 48.5z" />
    <glyph glyph-name="uni0620.init" unicode="&#x620;" horiz-adv-x="316" 
d="M-20 0v65l20 20h174l-34 -21q-4 14 -8 39.5t-4 56.5v332l84 12h8v-332q0 -20 0.5 -46t2 -51t5.5 -43v-8q-30 -12 -75.5 -18t-108.5 -6h-64zM142 30q32 0 58.5 -24.5t26.5 -68.5q0 -25 -12.5 -47t-33.5 -35.5t-49 -13.5q-43 0 -66.5 26.5t-23.5 60.5q0 27 13 50.5t36 37.5
t51 14zM174 -1q-28 2 -46.5 -9.5t-27.5 -29t-9 -33.5q0 -21 12 -35t31 -14q15 0 28.5 10t21 23.5t2.5 24.5l-3 -49q5 21 1 40t-13 35t-22 27t-27 16z" />
    <glyph glyph-name="uni0620.medi" unicode="&#x620;" horiz-adv-x="367" 
d="M0 85h173l-34 -21q-4 14 -8 39.5t-4 56.5v332l84 12h8v-457l-38 38h186v-65l-20 -20h-367v65zM183 30q32 0 58.5 -24.5t26.5 -68.5q0 -25 -12.5 -47t-33.5 -35.5t-49 -13.5q-43 0 -66.5 26.5t-23.5 60.5q0 27 13 50.5t36 37.5t51 14zM215 -1q-28 2 -46.5 -9.5t-27.5 -29
t-9 -33.5q0 -21 12 -35t31 -14q15 0 28.5 10t21 23.5t2.5 24.5l-3 -49q5 21 1 40t-13 35t-22 27t-27 16z" />
    <glyph glyph-name="uni0620.fina" unicode="&#x620;" horiz-adv-x="751" 
d="M731 0q-54 0 -87.5 22.5t-53.5 58t-36 72.5l-81 194l19 -11q-27 -3 -60.5 -16.5t-58 -35t-24.5 -48.5q0 -26 16 -55t40 -59t48 -58.5t40 -53t16 -42.5q0 -58 -39 -111.5t-112.5 -87t-176.5 -33.5q-65 0 -110 10t-68 20l-23 10l21 77h8q19 -6 44.5 -13.5t62.5 -13t89 -5.5
q87 0 151 36t99 94l-2 -36q-18 27 -49.5 64t-64.5 78t-55.5 83t-22.5 80q0 52 26.5 89.5t67 62.5t86 40.5t84.5 23.5h8l83 -209q19 -47 35 -78.5t39 -47.5t61 -16v-65zM201 -234q32 0 58.5 -24.5t26.5 -68.5q0 -25 -12.5 -47t-33.5 -35.5t-49 -13.5q-43 0 -66.5 26.5
t-23.5 60.5q0 27 13 50.5t36 37.5t51 14zM233 -265q-28 2 -46.5 -9.5t-27.5 -29t-9 -33.5q0 -21 12 -35t31 -14q15 0 28.5 10t21 23.5t2.5 24.5l-3 -49q5 21 1 40t-13 35t-22 27t-27 16z" />
    <glyph glyph-name="uni06CD.fina" unicode="&#x6cd;" horiz-adv-x="751" 
d="M31 -185l-39 9l61 243l39 -10zM731 0q-54 0 -87.5 22.5t-53.5 58t-36 72.5l-81 194l19 -11q-27 -3 -60.5 -16.5t-58 -35t-24.5 -48.5q0 -26 16 -55t40 -59t48 -58.5t40 -53t16 -42.5q0 -58 -39 -111.5t-112.5 -87t-176.5 -33.5q-65 0 -110 10t-68 20l-23 10l21 77h8
q19 -6 44.5 -13.5t62.5 -13t89 -5.5q87 0 151 36t99 94l-2 -36q-18 27 -49.5 64t-64.5 78t-55.5 83t-22.5 80q0 52 26.5 89.5t67 62.5t86 40.5t84.5 23.5h8l83 -209q19 -47 35 -78.5t39 -47.5t61 -16v-65z" />
    <glyph glyph-name="uni063F.init" unicode="&#x63f;" horiz-adv-x="316" 
d="M-20 0v65l20 20h174l-34 -21q-4 14 -8 39.5t-4 56.5v332l84 12h8v-332q0 -20 0.5 -46t2 -51t5.5 -43v-8q-30 -12 -75.5 -18t-108.5 -6h-64zM117 -148q0 24 15.5 39t38.5 15t38.5 -15t15.5 -39t-15.5 -39t-38.5 -15t-38.5 15t-15.5 39zM-14 -166q0 24 15.5 39t38.5 15
t38.5 -15t15.5 -39t-15.5 -39t-38.5 -15t-38.5 15t-15.5 39zM154 712q-23 0 -38.5 15t-15.5 39t15.5 39t38.5 15t38.5 -15t15.5 -39t-15.5 -39t-38.5 -15zM235 600q-23 0 -38.5 15t-15.5 39t15.5 39t38.5 15t38.5 -15t15.5 -39t-15.5 -39t-38.5 -15zM104 584q-23 0 -38.5 15
t-15.5 39t15.5 39t38.5 15t38.5 -15t15.5 -39t-15.5 -39t-38.5 -15z" />
    <glyph glyph-name="uni063F.medi" unicode="&#x63f;" horiz-adv-x="367" 
d="M0 85h173l-34 -21q-4 14 -8 39.5t-4 56.5v332l84 12h8v-457l-38 38h186v-65l-20 -20h-367v65zM136 -148q0 24 15.5 39t38.5 15t38.5 -15t15.5 -39t-15.5 -39t-38.5 -15t-38.5 15t-15.5 39zM5 -166q0 24 15.5 39t38.5 15t38.5 -15t15.5 -39t-15.5 -39t-38.5 -15t-38.5 15
t-15.5 39zM154 712q-23 0 -38.5 15t-15.5 39t15.5 39t38.5 15t38.5 -15t15.5 -39t-15.5 -39t-38.5 -15zM235 600q-23 0 -38.5 15t-15.5 39t15.5 39t38.5 15t38.5 -15t15.5 -39t-15.5 -39t-38.5 -15zM104 584q-23 0 -38.5 15t-15.5 39t15.5 39t38.5 15t38.5 -15t15.5 -39
t-15.5 -39t-38.5 -15z" />
    <glyph glyph-name="uni063F.fina" unicode="&#x63f;" horiz-adv-x="751" 
d="M731 0q-54 0 -87.5 22.5t-53.5 58t-36 72.5l-81 194l19 -11q-27 -3 -60.5 -16.5t-58 -35t-24.5 -48.5q0 -26 16 -55t40 -59t48 -58.5t40 -53t16 -42.5q0 -58 -39 -111.5t-112.5 -87t-176.5 -33.5q-65 0 -110 10t-68 20l-23 10l21 77h8q19 -6 44.5 -13.5t62.5 -13t89 -5.5
q87 0 151 36t99 94l-2 -36q-18 27 -49.5 64t-64.5 78t-55.5 83t-22.5 80q0 52 26.5 89.5t67 62.5t86 40.5t84.5 23.5h8l83 -209q19 -47 35 -78.5t39 -47.5t61 -16v-65zM44 151q-23 0 -38.5 15t-15.5 39t15.5 39t38.5 15t38.5 -15t15.5 -39t-15.5 -39t-38.5 -15zM125 39
q-23 0 -38.5 15t-15.5 39t15.5 39t38.5 15t38.5 -15t15.5 -39t-15.5 -39t-38.5 -15zM-6 23q-23 0 -38.5 15t-15.5 39t15.5 39t38.5 15t38.5 -15t15.5 -39t-15.5 -39t-38.5 -15z" />
    <glyph glyph-name="uni06D1.fina" unicode="&#x6d1;" horiz-adv-x="751" 
d="M731 0q-54 0 -87.5 22.5t-53.5 58t-36 72.5l-81 194l19 -11q-27 -3 -60.5 -16.5t-58 -35t-24.5 -48.5q0 -26 16 -55t40 -59t48 -58.5t40 -53t16 -42.5q0 -58 -39 -111.5t-112.5 -87t-176.5 -33.5q-65 0 -110 10t-68 20l-23 10l21 77h8q19 -6 44.5 -13.5t62.5 -13t89 -5.5
q87 0 151 36t99 94l-2 -36q-18 27 -49.5 64t-64.5 78t-55.5 83t-22.5 80q0 52 26.5 89.5t67 62.5t86 40.5t84.5 23.5h8l83 -209q19 -47 35 -78.5t39 -47.5t61 -16v-65zM197 -386q0 24 15.5 39t38.5 15t38.5 -15t15.5 -39t-15.5 -39t-38.5 -15t-38.5 15t-15.5 39zM66 -402
q0 24 15.5 39t38.5 15t38.5 -15t15.5 -39t-15.5 -39t-38.5 -15t-38.5 15t-15.5 39zM147 -514q0 24 15.5 39t38.5 15t38.5 -15t15.5 -39t-15.5 -39t-38.5 -15t-38.5 15t-15.5 39z" />
    <glyph glyph-name="uni063E.init" unicode="&#x63e;" horiz-adv-x="316" 
d="M-20 0v65l20 20h174l-34 -21q-4 14 -8 39.5t-4 56.5v332l84 12h8v-332q0 -20 0.5 -46t2 -51t5.5 -43v-8q-30 -12 -75.5 -18t-108.5 -6h-64zM117 -148q0 24 15.5 39t38.5 15t38.5 -15t15.5 -39t-15.5 -39t-38.5 -15t-38.5 15t-15.5 39zM-14 -166q0 24 15.5 39t38.5 15
t38.5 -15t15.5 -39t-15.5 -39t-38.5 -15t-38.5 15t-15.5 39zM237 610q-23 0 -38.5 15t-15.5 39t15.5 39t38.5 15t38.5 -15t15.5 -39t-15.5 -39t-38.5 -15zM106 592q-23 0 -38.5 15t-15.5 39t15.5 39t38.5 15t38.5 -15t15.5 -39t-15.5 -39t-38.5 -15z" />
    <glyph glyph-name="uni063E.medi" unicode="&#x63e;" horiz-adv-x="367" 
d="M0 85h173l-34 -21q-4 14 -8 39.5t-4 56.5v332l84 12h8v-457l-38 38h186v-65l-20 -20h-367v65zM136 -148q0 24 15.5 39t38.5 15t38.5 -15t15.5 -39t-15.5 -39t-38.5 -15t-38.5 15t-15.5 39zM5 -166q0 24 15.5 39t38.5 15t38.5 -15t15.5 -39t-15.5 -39t-38.5 -15t-38.5 15
t-15.5 39zM237 610q-23 0 -38.5 15t-15.5 39t15.5 39t38.5 15t38.5 -15t15.5 -39t-15.5 -39t-38.5 -15zM106 592q-23 0 -38.5 15t-15.5 39t15.5 39t38.5 15t38.5 -15t15.5 -39t-15.5 -39t-38.5 -15z" />
    <glyph glyph-name="uni063E.fina" unicode="&#x63e;" horiz-adv-x="751" 
d="M731 0q-54 0 -87.5 22.5t-53.5 58t-36 72.5l-81 194l19 -11q-27 -3 -60.5 -16.5t-58 -35t-24.5 -48.5q0 -26 16 -55t40 -59t48 -58.5t40 -53t16 -42.5q0 -58 -39 -111.5t-112.5 -87t-176.5 -33.5q-65 0 -110 10t-68 20l-23 10l21 77h8q19 -6 44.5 -13.5t62.5 -13t89 -5.5
q87 0 151 36t99 94l-2 -36q-18 27 -49.5 64t-64.5 78t-55.5 83t-22.5 80q0 52 26.5 89.5t67 62.5t86 40.5t84.5 23.5h8l83 -209q19 -47 35 -78.5t39 -47.5t61 -16v-65zM138 64q-23 0 -38.5 15t-15.5 39t15.5 39t38.5 15t38.5 -15t15.5 -39t-15.5 -39t-38.5 -15zM138 -76
q-23 0 -38.5 15t-15.5 39t15.5 39t38.5 15t38.5 -15t15.5 -39t-15.5 -39t-38.5 -15z" />
    <glyph glyph-name="uni06CE.init" unicode="&#x6ce;" horiz-adv-x="316" 
d="M-20 0v65l20 20h174l-34 -21q-4 14 -8 39.5t-4 56.5v332l84 12h8v-332q0 -20 0.5 -46t2 -51t5.5 -43v-8q-30 -12 -75.5 -18t-108.5 -6h-64zM117 -148q0 24 15.5 39t38.5 15t38.5 -15t15.5 -39t-15.5 -39t-38.5 -15t-38.5 15t-15.5 39zM-14 -166q0 24 15.5 39t38.5 15
t38.5 -15t15.5 -39t-15.5 -39t-38.5 -15t-38.5 15t-15.5 39zM112 704l59 -104l65 104h64v-4l-92 -152h-76l-84 152v4h64z" />
    <glyph glyph-name="uni06CE.medi" unicode="&#x6ce;" horiz-adv-x="367" 
d="M0 85h173l-34 -21q-4 14 -8 39.5t-4 56.5v332l84 12h8v-457l-38 38h186v-65l-20 -20h-367v65zM136 -148q0 24 15.5 39t38.5 15t38.5 -15t15.5 -39t-15.5 -39t-38.5 -15t-38.5 15t-15.5 39zM5 -166q0 24 15.5 39t38.5 15t38.5 -15t15.5 -39t-15.5 -39t-38.5 -15t-38.5 15
t-15.5 39zM112 704l59 -104l65 104h64v-4l-92 -152h-76l-84 152v4h64z" />
    <glyph glyph-name="uni06CE.fina" unicode="&#x6ce;" horiz-adv-x="751" 
d="M731 0q-54 0 -87.5 22.5t-53.5 58t-36 72.5l-81 194l19 -11q-27 -3 -60.5 -16.5t-58 -35t-24.5 -48.5q0 -26 16 -55t40 -59t48 -58.5t40 -53t16 -42.5q0 -58 -39 -111.5t-112.5 -87t-176.5 -33.5q-65 0 -110 10t-68 20l-23 10l21 77h8q19 -6 44.5 -13.5t62.5 -13t89 -5.5
q87 0 151 36t99 94l-2 -36q-18 27 -49.5 64t-64.5 78t-55.5 83t-22.5 80q0 52 26.5 89.5t67 62.5t86 40.5t84.5 23.5h8l83 -209q19 -47 35 -78.5t39 -47.5t61 -16v-65zM2 143l59 -104l65 104h64v-4l-92 -152h-76l-84 152v4h64z" />
    <glyph glyph-name="uni063D.init" unicode="&#x63d;" horiz-adv-x="316" 
d="M-20 0v65l20 20h174l-34 -21q-4 14 -8 39.5t-4 56.5v332l84 12h8v-332q0 -20 0.5 -46t2 -51t5.5 -43v-8q-30 -12 -75.5 -18t-108.5 -6h-64zM117 -148q0 24 15.5 39t38.5 15t38.5 -15t15.5 -39t-15.5 -39t-38.5 -15t-38.5 15t-15.5 39zM-14 -166q0 24 15.5 39t38.5 15
t38.5 -15t15.5 -39t-15.5 -39t-38.5 -15t-38.5 15t-15.5 39zM230 538l-59 104l-65 -104h-64v4l92 152h76l84 -152v-4h-64z" />
    <glyph glyph-name="uni063D.medi" unicode="&#x63d;" horiz-adv-x="367" 
d="M0 85h173l-34 -21q-4 14 -8 39.5t-4 56.5v332l84 12h8v-457l-38 38h186v-65l-20 -20h-367v65zM136 -148q0 24 15.5 39t38.5 15t38.5 -15t15.5 -39t-15.5 -39t-38.5 -15t-38.5 15t-15.5 39zM5 -166q0 24 15.5 39t38.5 15t38.5 -15t15.5 -39t-15.5 -39t-38.5 -15t-38.5 15
t-15.5 39zM230 538l-59 104l-65 -104h-64v4l92 152h76l84 -152v-4h-64z" />
    <glyph glyph-name="uni063D.fina" unicode="&#x63d;" horiz-adv-x="751" 
d="M731 0q-54 0 -87.5 22.5t-53.5 58t-36 72.5l-81 194l19 -11q-27 -3 -60.5 -16.5t-58 -35t-24.5 -48.5q0 -26 16 -55t40 -59t48 -58.5t40 -53t16 -42.5q0 -58 -39 -111.5t-112.5 -87t-176.5 -33.5q-65 0 -110 10t-68 20l-23 10l21 77h8q19 -6 44.5 -13.5t62.5 -13t89 -5.5
q87 0 151 36t99 94l-2 -36q-18 27 -49.5 64t-64.5 78t-55.5 83t-22.5 80q0 52 26.5 89.5t67 62.5t86 40.5t84.5 23.5h8l83 -209q19 -47 35 -78.5t39 -47.5t61 -16v-65zM120 -23l-59 104l-65 -104h-64v4l92 152h76l84 -152v-4h-64z" />
    <glyph glyph-name="uniFBAF" unicode="&#x6d2;" horiz-adv-x="488" arabic-form="final" 
d="M488 85v-65l-20 -20h-184q-67 0 -111.5 -18t-66.5 -46.5t-24 -61.5l-13 42q17 -53 72.5 -70t146.5 -17h736v-8l-28 -77h-753q-65 0 -115.5 18t-79 52.5t-28.5 85.5q0 30 14.5 62.5t47.5 60t87.5 45t134.5 17.5h184z" />
    <glyph glyph-name="uniFBB1" unicode="&#x6d3;" horiz-adv-x="488" arabic-form="final" 
d="M488 85v-65l-20 -20h-184q-67 0 -111.5 -18t-66.5 -46.5t-24 -61.5l-13 42q17 -53 72.5 -70t146.5 -17h736v-8l-28 -77h-753q-65 0 -115.5 18t-79 52.5t-28.5 85.5q0 30 14.5 62.5t47.5 60t87.5 45t134.5 17.5h184zM50 258q0 32 18 59t51.5 43.5t79.5 16.5h40v-8l-13 -62
h-38q-37 0 -58 -16.5t-25 -45.5l-5 19q15 -27 39 -33t49 -6h49v-7l-11 -63h-54q-40 0 -67.5 15.5t-41 39t-13.5 48.5z" />
    <glyph glyph-name="uniFBDC" unicode="&#x6c8;" horiz-adv-x="648" arabic-form="final" 
d="M60 224q0 53 20.5 98.5t55 80t76.5 54t84 19.5q50 0 96.5 -25.5t83.5 -70t58.5 -102t21.5 -122.5q0 -130 -34.5 -223.5t-102 -143t-167.5 -49.5q-54 0 -96.5 12t-67 24l-24.5 12l32 72h8q38 -21 81.5 -30.5t82.5 -9.5q49 0 81 5.5t63 16.5l-36 -26q35 41 54 90.5
t26.5 106t7.5 119.5q0 42 -11 86.5t-35 84.5t-63 70t-96 43l58 12q-86 -31 -125.5 -87.5t-39.5 -114.5q0 -44 23.5 -75.5t67.5 -48.5t105 -17h157h24h139v-65l-20 -20h-320q-72 0 -133 24t-98 74t-37 126zM273 709l50 6l2 -8q-4 -18 -5.5 -44.5t-2 -54t-0.5 -47.5v-24h-44
v172z" />
    <glyph glyph-name="uniFEC7" unicode="&#x638;" horiz-adv-x="1168" arabic-form="initial" 
d="M190 85h737q25 0 45 8t32 27.5t12 52.5q0 38 -21 85t-61 84l49 -20q-30 -6 -50.5 -8.5t-42.5 -3.5t-58 -1h-614l34 85h580q39 0 80.5 2t71.5 10h12q25 -23 50.5 -58.5t43.5 -78.5t18 -90q0 -39 -12 -71.5t-37 -57t-63 -37.5t-90 -13h-716v85zM581 507q-23 0 -38.5 15
t-15.5 39t15.5 39t38.5 15t38.5 -15t15.5 -39t-15.5 -39t-38.5 -15zM-20 0v65l20 20h180l-34 -21q-4 14 -8 39.5t-4 56.5v588l84 12h8v-718l-38 43h186v-65l-20 -20h-374z" />
    <glyph glyph-name="uniFEC8" unicode="&#x638;" horiz-adv-x="1237" arabic-form="medial" 
d="M831 0v85h406v-65l-20 -20h-386zM190 85h737q25 0 45 8t32 27.5t12 52.5q0 38 -21 85t-61 84l49 -20q-30 -6 -50.5 -8.5t-42.5 -3.5t-58 -1h-614l34 85h580q39 0 80.5 2t71.5 10h12q25 -23 50.5 -58.5t43.5 -78.5t18 -90q0 -39 -12 -71.5t-37 -57t-63 -37.5t-90 -13h-716
v85zM581 507q-23 0 -38.5 15t-15.5 39t15.5 39t38.5 15t38.5 -15t15.5 -39t-15.5 -39t-38.5 -15zM-20 0v65l20 20h180l-34 -21q-4 14 -8 39.5t-4 56.5v588l84 12h8v-718l-38 43h186v-65l-20 -20h-374z" />
    <glyph glyph-name="uniFEC6" unicode="&#x638;" horiz-adv-x="1331" arabic-form="final" 
d="M925 0v85h406v-65l-20 -20h-386zM284 85h737q25 0 45 8t32 27.5t12 52.5q0 38 -21 85t-61 84l49 -20q-30 -6 -50.5 -8.5t-42.5 -3.5t-58 -1h-614l34 85h580q39 0 80.5 2t71.5 10h12q25 -23 50.5 -58.5t43.5 -78.5t18 -90q0 -39 -12 -71.5t-37 -57t-63 -37.5t-90 -13h-716
v85zM12 0v8l28 77h234l-34 -21q-4 14 -8 39.5t-4 56.5v588l84 12h8v-718l-38 43h186v-65l-20 -20h-436zM675 507q-23 0 -38.5 15t-15.5 39t15.5 39t38.5 15t38.5 -15t15.5 -39t-15.5 -39t-38.5 -15z" />
    <glyph glyph-name="uniFEB0" unicode="&#x632;" horiz-adv-x="504" arabic-form="final" 
d="M326 0v85h178v-65l-20 -20h-158zM-32 -168q19 -5 43.5 -8.5t52.5 -3.5q41 0 83 7t78 25l-31 -24q19 31 33.5 72.5t23.5 100.5t9 143q0 81 -5.5 150t-13.5 134l88 12h8q8 -64 11.5 -132t3.5 -160q0 -105 -17.5 -181.5t-53.5 -127t-92 -75t-133 -24.5q-26 0 -51 2t-41 4
l-16 2v8zM278 542q-23 0 -38.5 15t-15.5 39t15.5 39t38.5 15t38.5 -15t15.5 -39t-15.5 -39t-38.5 -15z" />
    <glyph glyph-name=".notdef" horiz-adv-x="856" 
d="M96 720h664v-720h-664v720zM168 64h520v592h-520v-592zM294 538l133 -133l133 133l45 -45l-133 -133l133 -133l-45 -45l-133 133l-133 -133l-45 45l133 133l-133 133z" />
    <glyph glyph-name="space" unicode=" " horiz-adv-x="256" 
 />
    <glyph glyph-name="uni00A0" unicode="&#xa0;" horiz-adv-x="256" 
 />
    <glyph glyph-name="A" unicode="A" horiz-adv-x="662" 
d="M48 0l80 480q10 60 29.5 106t52.5 78t85 48t127 16q36 0 72.5 -3.5t75.5 -12.5l2 -12q-3 -20 -4.5 -50t-1.5 -60v-50v-540h-96v592q0 20 0.5 37.5t3.5 33.5l16 -29q-13 6 -31.5 8t-40.5 2q-66 0 -104.5 -18t-58 -54t-29.5 -92l-80 -480h-98zM148 220v84h362v-84h-362z
" />
    <glyph glyph-name="B" unicode="B" horiz-adv-x="640" 
d="M152 0v84h224q45 0 78.5 21.5t33.5 78.5q0 54 -32 75t-80 21h-224v84h188q46 0 76 22.5t45 59t15 78.5q0 63 -34 87.5t-94 24.5h-196v84h196q111 0 167.5 -48.5t56.5 -147.5q0 -40 -13 -79.5t-39.5 -72t-65.5 -52.5l-5 20q65 -12 100 -53t35 -103q0 -46 -20 -88t-65 -69
t-119 -27h-228zM96 0v720h96v-720h-96z" />
    <glyph glyph-name="C" unicode="C" horiz-adv-x="648" 
d="M56 360q0 112 42.5 195.5t124 130t197.5 46.5q51 0 90.5 -8.5t69.5 -23.5v-92h-8q-30 18 -68.5 27t-83.5 9q-80 0 -139.5 -31t-92 -94t-32.5 -159t32.5 -159t92 -94t139.5 -31q45 0 83.5 9t68.5 27h8v-92q-30 -15 -69.5 -23.5t-90.5 -8.5q-116 0 -197.5 44.5t-124 128
t-42.5 199.5z" />
    <glyph glyph-name="D" unicode="D" horiz-adv-x="720" 
d="M152 0v84h160q74 0 122.5 28.5t77 75.5t40.5 102.5t12 109.5q0 117 -57 176.5t-171 59.5h-184v84h184q159 0 243.5 -80.5t84.5 -239.5q0 -75 -18.5 -146.5t-60 -128.5t-108.5 -91t-165 -34h-160zM96 0v720h96v-720h-96z" />
    <glyph glyph-name="E" unicode="E" 
d="M96 0v720h96v-720h-96zM152 0v84h412v-84h-412zM152 336v84h344v-84h-344zM152 636v84h400v-84h-400z" />
    <glyph glyph-name="F" unicode="F" horiz-adv-x="572" 
d="M96 0v720h96v-720h-96zM152 280v84h332v-84h-332zM152 636v84h388v-84h-388z" />
    <glyph glyph-name="G" unicode="G" horiz-adv-x="684" 
d="M56 360q0 112 44 195.5t127 130t201 46.5q54 0 96 -8.5t72 -23.5v-92h-8q-27 14 -68 25t-92 11q-126 0 -199 -68.5t-73 -215.5q0 -100 32 -163.5t91 -94t141 -30.5q30 0 58 5.5t52 12.5l-22 -44v318h96v-336q-33 -18 -81.5 -29t-102.5 -11q-122 0 -203 46.5t-121 130
t-40 195.5z" />
    <glyph glyph-name="H" unicode="H" horiz-adv-x="736" 
d="M544 0v720h96v-720h-96zM96 0v720h96v-720h-96zM152 332v84h432v-84h-432z" />
    <glyph glyph-name="I" unicode="I" horiz-adv-x="288" 
d="M96 720h96v-720h-96v720z" />
    <glyph glyph-name="J" unicode="J" horiz-adv-x="412" 
d="M12 84h8q12 -4 41.5 -8t50.5 -4q60 0 92 31.5t32 88.5v528h96v-516q0 -66 -25 -114.5t-74 -75t-121 -26.5q-27 0 -54.5 4t-45.5 8v84z" />
    <glyph glyph-name="K" unicode="K" horiz-adv-x="650" 
d="M268 280h-118v84h114q51 0 77.5 24t42.5 60l128 272h100v-8l-140 -292q-18 -39 -45 -71t-65.5 -50.5t-93.5 -18.5zM96 0v720h96v-720h-96zM400 344l214 -336v-8h-108l-182 296z" />
    <glyph glyph-name="L" unicode="L" horiz-adv-x="532" 
d="M96 0v720h96v-636h308v-84h-404z" />
    <glyph glyph-name="M" unicode="M" horiz-adv-x="820" 
d="M96 0v720h80l254 -396h-40l254 396h80v-720h-96v563l21 -6l-201 -309h-76l-201 309l21 6v-563h-96z" />
    <glyph glyph-name="N" unicode="N" horiz-adv-x="736" 
d="M96 0v720h80l414 -437v-135l-424 447l26 11v-606h-96zM544 0v720h96v-720h-96z" />
    <glyph glyph-name="O" unicode="O" horiz-adv-x="784" 
d="M56 360q0 110 40.5 194t116 131t179.5 47t179.5 -47t116 -131t40.5 -194t-40.5 -194t-116 -131t-179.5 -47q-105 0 -180 47t-115.5 131t-40.5 194zM156 360q0 -92 29 -155.5t82 -96t125 -32.5t125 32.5t82 96t29 155.5t-29 155.5t-82 96t-125 32.5t-125 -32.5t-82 -96
t-29 -155.5z" />
    <glyph glyph-name="P" unicode="P" horiz-adv-x="620" 
d="M152 240v84h156q60 0 98 25.5t56 68t18 94.5q0 69 -36 96.5t-96 27.5h-196v84h200q102 0 165 -51.5t63 -156.5q0 -49 -15.5 -97.5t-48.5 -88t-84.5 -63t-123.5 -23.5h-156zM96 0v720h96v-720h-96z" />
    <glyph glyph-name="Q" unicode="Q" horiz-adv-x="784" 
d="M632 -158l-208 178l96 28l244 -198v-8h-132zM56 360q0 110 40.5 194t116 131t179.5 47t179.5 -47t116 -131t40.5 -194t-40.5 -194t-116 -131t-179.5 -47q-105 0 -180 47t-115.5 131t-40.5 194zM156 360q0 -92 29 -155.5t82 -96t125 -32.5t125 32.5t82 96t29 155.5
t-29 155.5t-82 96t-125 32.5t-125 -32.5t-82 -96t-29 -155.5z" />
    <glyph glyph-name="R" unicode="R" horiz-adv-x="660" 
d="M152 216v88h172q56 0 93.5 27t56 71t18.5 94q0 72 -38.5 106t-101.5 34h-200v84h204q72 0 125 -26t82 -76t29 -122q0 -67 -22.5 -119.5t-61 -88t-87 -54t-101.5 -18.5h-168zM96 0v720h96v-720h-96zM524 0l-188 244l100 12l200 -252v-4h-112z" />
    <glyph glyph-name="S" unicode="S" horiz-adv-x="584" 
d="M64 118h8q24 -13 54.5 -22.5t67 -14.5t78.5 -5q48 0 85.5 9.5t59 32t21.5 62.5q0 48 -27.5 69t-82.5 31l-88 16q-50 9 -92 32.5t-67 65.5t-25 106q0 80 37.5 131.5t105 76t157.5 24.5q42 0 83.5 -8t68.5 -20v-92h-8q-24 12 -60.5 22t-87.5 10q-56 0 -101.5 -14t-72 -45
t-26.5 -81q0 -63 33 -88t91 -36l88 -16q51 -9 89 -31t59.5 -58.5t21.5 -90.5q0 -49 -19 -86t-53.5 -61.5t-82.5 -36.5t-107 -12q-42 0 -79.5 5t-70 13t-58.5 18v94z" />
    <glyph glyph-name="T" unicode="T" horiz-adv-x="584" 
d="M12 720h560v-84h-232v-636h-96v636h-232v84z" />
    <glyph glyph-name="U" unicode="U" horiz-adv-x="704" 
d="M88 720h96v-452q0 -105 42 -148.5t126 -43.5t126 43.5t42 148.5v452h96v-452q0 -138 -67.5 -209t-196.5 -71q-132 0 -198 71t-66 209v452z" />
    <glyph glyph-name="V" unicode="V" horiz-adv-x="646" 
d="M90 16q3 20 4 50t1.5 60t0.5 50v544h96v-596q0 -19 -1 -37.5t-2 -32.5l-19 25q14 -4 31 -5.5t39 -1.5q66 0 104.5 19.5t57.5 55.5t26 85l72 488h98l-72 -484q-9 -60 -27.5 -106t-51.5 -78t-84.5 -48t-126.5 -16q-36 0 -70.5 3.5t-73.5 12.5z" />
    <glyph glyph-name="W" unicode="W" horiz-adv-x="1044" 
d="M662 -12q-36 0 -66.5 3.5t-69.5 12.5l-2 12q1 20 0 50t-2.5 60t-3.5 50l-62 544h98l58 -544q2 -23 3 -59t1 -64l-21 29q18 -5 31 -7.5t40 -2.5q48 0 77 19.5t45.5 55.5t25.5 85l96 488h98l-96 -484q-16 -79 -43 -134.5t-76 -84.5t-131 -29zM262 -12q-36 0 -66.5 3.5
t-69.5 12.5l-2 12q1 20 0.5 50t-2 60t-4.5 50l-62 544h98l58 -544q3 -23 3.5 -59t0.5 -64l-21 29q18 -4 31 -7t40 -3q48 0 77 20t45 56t26 84l74 352l26 -264l-18 -84q-17 -79 -41.5 -134.5t-69.5 -84.5t-123 -29z" />
    <glyph glyph-name="X" unicode="X" horiz-adv-x="656" 
d="M516 0l-216 321l-272 391v8h112l216 -321l272 -391v-8h-112zM32 0v8l268 391l216 321h104v-8l-268 -391l-216 -321h-104z" />
    <glyph glyph-name="Y" unicode="Y" horiz-adv-x="612" 
d="M260 0v300l-252 412v8h108l212 -358h-38l210 358h104v-8l-248 -406v-306h-96z" />
    <glyph glyph-name="Z" unicode="Z" horiz-adv-x="586" 
d="M54 0l-8 8q-1 4 -1 7v6q0 17 6.5 32.5t18.5 34.5l356 584l18 -36h-394v84h476l8 -8q1 -3 1.5 -6.5t0.5 -6.5q0 -16 -7.5 -33t-18.5 -34l-357 -584l-18 36h411v-84h-492z" />
    <glyph glyph-name="a" unicode="a" horiz-adv-x="590" 
d="M286 -12q-117 0 -175.5 42.5t-58.5 129.5q0 58 28.5 96t81 57t124.5 19q56 0 93.5 -9.5t64.5 -18.5v-72q-27 9 -67 16.5t-75 7.5q-81 0 -120.5 -21t-39.5 -75q0 -51 38 -73.5t110 -22.5q40 0 77 6.5t69 17.5l-18 -27q-2 8 -3.5 18t-2.5 21t-1.5 23t-0.5 25v180
q0 64 -17.5 95.5t-52 42t-86.5 10.5q-39 0 -79.5 -10t-64.5 -22h-8v82q36 15 80.5 22.5t83.5 7.5q50 0 92.5 -9t75 -32.5t50.5 -67.5t18 -115v-132q0 -20 0.5 -52t2 -63t5.5 -49l-2 -8q-33 -12 -73 -21t-79.5 -14t-69.5 -5z" />
    <glyph glyph-name="b" unicode="b" horiz-adv-x="618" 
d="M284 -12q-51 0 -103 10.5t-91 25.5l-2 8q4 18 5.5 49t2 63t0.5 52v392v37t-1 46.5t-2.5 46t-4.5 34.5l2 8h98v-612q0 -30 -2.5 -51.5t-5.5 -36.5l-16 28q24 -8 55 -14t65 -6q96 0 142 53t46 155q0 93 -47.5 146.5t-140.5 53.5q-26 0 -45 -2.5t-38 -7.5t-45 -14v76
q35 15 70.5 21.5t65.5 6.5q86 0 147.5 -34t94 -97t32.5 -149q0 -90 -34 -154.5t-97 -99t-151 -34.5z" />
    <glyph glyph-name="c" unicode="c" horiz-adv-x="504" 
d="M52 274q0 89 35.5 152t101 96.5t155.5 33.5q74 0 124 -22v-82h-8q-21 11 -50.5 17.5t-65.5 6.5q-90 0 -144 -50.5t-54 -151.5q0 -100 54 -151t144 -51q36 0 65.5 7t50.5 17h8v-82q-50 -22 -124 -22q-92 0 -157.5 33.5t-100 96.5t-34.5 152z" />
    <glyph glyph-name="d" unicode="d" horiz-adv-x="618" 
d="M332 -12q-90 0 -152.5 34.5t-95 98.5t-32.5 153t36 152t101 96.5t151 33.5q35 0 62.5 -5t44.5 -13l-17 -22v72q0 20 -0.5 52t-2 63t-5.5 49l2 8h98v-560q0 -20 0.5 -52t2 -63t5.5 -49l-2 -8q-42 -16 -90.5 -28t-105.5 -12zM438 63q-4 17 -6 40.5t-2 48.5v344l13 -38
q-11 5 -35.5 11.5t-61.5 6.5q-97 0 -148.5 -52t-51.5 -150q0 -71 22.5 -116.5t65.5 -67.5t106 -22q35 0 63.5 6.5t50.5 16.5z" />
    <glyph glyph-name="e" unicode="e" horiz-adv-x="597" 
d="M352 -8q-76 0 -132.5 18.5t-94 54.5t-55.5 88.5t-18 120.5q0 85 31.5 148.5t88 98.5t132.5 35q88 0 142 -36t77.5 -101t20.5 -151l-1 -28h-427v76h332v8q0 75 -36 113.5t-108 38.5q-42 0 -78 -18t-58 -61t-22 -117v-6q0 -77 27 -121t74.5 -62.5t108.5 -18.5q51 0 87 10
t57 22h8v-82q-24 -12 -63 -21t-93 -9z" />
    <glyph glyph-name="f" unicode="f" horiz-adv-x="336" 
d="M100 0v544q0 72 21.5 120t65 72t109.5 24q24 0 42.5 -3t33.5 -9v-80h-8q-15 6 -29.5 9t-38.5 3q-61 0 -82.5 -32.5t-21.5 -103.5v-544h-92zM16 464v80h328v-80h-328z" />
    <glyph glyph-name="g" unicode="g" horiz-adv-x="618" 
d="M252 -240q-36 0 -79 6.5t-73 19.5v82h8q33 -15 72.5 -21.5t71.5 -6.5q65 0 104 19t56.5 58t17.5 99v384q0 24 1.5 45t4.5 40l17 -28q-22 7 -49.5 13t-59.5 6q-66 0 -110 -22.5t-66 -67t-22 -110.5q0 -96 49.5 -144t148.5 -48q28 0 53 4t55 16l-2 -84q-34 -8 -60 -12
t-50 -4q-86 0 -151 30.5t-101 91t-36 150.5q0 65 19.5 116.5t57.5 88t92 56t123 19.5q45 0 95 -10.5t89 -25.5l2 -8q-4 -18 -5.5 -49t-2 -63t-0.5 -52v-332q0 -80 -31.5 -137.5t-92 -88t-146.5 -30.5z" />
    <glyph glyph-name="h" unicode="h" horiz-adv-x="640" 
d="M96 0v588q0 20 -0.5 52t-2 63t-5.5 49l2 8h98v-271l-19 29q32 15 70.5 26.5t88.5 11.5q42 0 81.5 -10.5t70.5 -37t49.5 -72t18.5 -116.5v-320h-92v308q0 66 -18.5 101.5t-52 49t-77.5 13.5q-26 0 -51.5 -5t-48 -12.5t-40.5 -15.5l20 46v-485h-92z" />
    <glyph glyph-name="i" unicode="i" horiz-adv-x="284" 
d="M142 640q-25 0 -42.5 16.5t-17.5 43.5t17.5 43.5t42.5 16.5q26 0 43 -16.5t17 -43.5t-17 -43.5t-43 -16.5zM96 0v372q0 20 -0.5 52t-2 63t-5.5 49l2 8h98v-544h-92z" />
    <glyph glyph-name="j" unicode="j" horiz-adv-x="284" 
d="M142 640q-25 0 -42.5 16.5t-17.5 43.5t17.5 43.5t42.5 16.5q26 0 43 -16.5t17 -43.5t-17 -43.5t-43 -16.5zM-4 -240q-27 0 -45.5 4t-30.5 8v80h8q12 -4 27.5 -8t36.5 -4q48 0 76 27t28 81v424q0 20 -0.5 52t-2 63t-5.5 49l2 8h98v-592q0 -50 -19.5 -94t-62 -71
t-110.5 -27z" />
    <glyph glyph-name="k" unicode="k" horiz-adv-x="540" 
d="M188 0h-92v588q0 20 -0.5 52t-2 63t-5.5 49l2 8h98v-760zM176 284l248 260h104v-12q-10 -8 -22.5 -19.5t-26 -25l-27.5 -27.5l-194 -199l1 55l193 -216q20 -22 43.5 -49t36.5 -39v-12h-108z" />
    <glyph glyph-name="l" unicode="l" horiz-adv-x="284" 
d="M96 0v588q0 20 -0.5 52t-2 63t-5.5 49l2 8h98v-760h-92z" />
    <glyph glyph-name="m" unicode="m" horiz-adv-x="956" 
d="M96 0v344q0 20 -0.5 52t-2 63t-5.5 49l2 8q26 10 65 19t80 15t73 6q44 0 84 -10.5t71.5 -37t50 -72t18.5 -116.5v-320h-92v312q0 66 -18.5 101.5t-51 49t-74.5 13.5q-32 0 -68.5 -7t-63.5 -17l16 28q4 -15 6 -37.5t2 -46.5v-396h-92zM772 0v312q0 66 -17 101.5t-51 49
t-84 13.5q-29 0 -59.5 -7t-64.5 -21l-56 64q50 20 99.5 32t92.5 12q50 0 92 -10.5t73.5 -37t49 -72t17.5 -116.5v-320h-92z" />
    <glyph glyph-name="n" unicode="n" horiz-adv-x="640" 
d="M96 0v344q0 20 -0.5 52t-2 63t-5.5 49l2 8q26 10 66 19t81 15t71 6q50 0 93 -10.5t76.5 -37t52 -72t18.5 -116.5v-320h-92v312q0 66 -19 101.5t-55 49t-86 13.5q-32 0 -68.5 -7t-63.5 -17l16 28q4 -15 6 -37.5t2 -46.5v-396h-92z" />
    <glyph glyph-name="o" unicode="o" horiz-adv-x="604" 
d="M52 274q0 89 31.5 152t88 96.5t130.5 33.5t130.5 -33.5t88 -96.5t31.5 -152t-31.5 -152t-88 -96.5t-130.5 -33.5q-76 0 -132 33.5t-87 96.5t-31 152zM146 274q0 -100 40.5 -151t115.5 -51t115.5 51t40.5 151q0 101 -40.5 151.5t-115.5 50.5t-115.5 -50.5t-40.5 -151.5z
" />
    <glyph glyph-name="p" unicode="p" horiz-adv-x="618" 
d="M96 -232v580q0 18 -0.5 49t-2 62t-5.5 49l2 8q44 18 97.5 29t104.5 11q63 0 113.5 -19t86.5 -55.5t55 -88.5t19 -119t-20 -120t-57 -90t-90 -56.5t-119 -19.5q-20 0 -41 3t-39 7t-30 7l18 34v-271h-92zM188 43l-12 44q8 -4 21.5 -8.5t34 -7.5t48.5 -3q96 0 144 53t48 153
q0 101 -49 151.5t-139 50.5q-34 0 -65.5 -7.5t-51.5 -18.5l15 28q3 -15 4.5 -37t1.5 -45v-353z" />
    <glyph glyph-name="q" unicode="q" horiz-adv-x="618" 
d="M430 -232v270l18 -32q-19 -7 -51 -12.5t-65 -5.5q-135 0 -207.5 76.5t-72.5 209.5q0 67 20.5 119t59 88.5t91.5 55.5t117 19q48 0 98.5 -10.5t89.5 -25.5l2 -8q-4 -18 -5.5 -49t-2 -63t-0.5 -52v-580h-92zM430 43v357q0 24 1.5 45t4.5 40l17 -28q-22 7 -49.5 13t-59.5 6
q-96 0 -147 -52t-51 -150q0 -106 50 -156t144 -50q36 0 63.5 6t40.5 13z" />
    <glyph glyph-name="r" unicode="r" horiz-adv-x="384" 
d="M96 0v344q0 20 -0.5 52t-2 63t-5.5 49l2 8q26 10 64.5 17t77 11t64.5 4q24 0 39 -1t25 -3v-80h-8q-13 2 -31 3t-33 1q-31 0 -65 -5t-59 -10l18 25q6 -33 6 -82v-396h-92z" />
    <glyph glyph-name="s" unicode="s" horiz-adv-x="500" 
d="M52 108h8q36 -16 81.5 -26t90.5 -10q14 0 37.5 1.5t48 8.5t41.5 24.5t17 49.5q0 36 -29 51t-80 23l-48 8q-85 14 -126 48.5t-41 97.5q0 44 23.5 82.5t76 62t140.5 23.5q39 0 75.5 -6.5t60.5 -15.5v-82h-8q-33 12 -63 18t-69 6q-69 0 -108.5 -19.5t-39.5 -65.5
q0 -35 28.5 -50t79.5 -23l48 -8q46 -7 84 -25t61 -48.5t23 -76.5q0 -81 -58 -122.5t-178 -41.5q-51 0 -95.5 8t-80.5 20v88z" />
    <glyph glyph-name="t" unicode="t" horiz-adv-x="404" 
d="M296 -8q-70 0 -112 22.5t-61 63t-19 94.5v520h92v-512q0 -57 25 -82.5t79 -25.5q21 0 41 4.5t35 11.5h8v-78q-15 -7 -38 -12.5t-50 -5.5zM20 464v80h332v-80h-332z" />
    <glyph glyph-name="u" unicode="u" horiz-adv-x="632" 
d="M332 -12q-52 0 -97.5 10.5t-79 37t-52.5 72.5t-19 116v148q0 20 -0.5 52t-2 63t-5.5 49l2 8h98v-312q0 -66 19.5 -101.5t57 -49t90.5 -13.5q32 0 65.5 5.5t58.5 12.5l-17 -24q-4 14 -5 35t-1 43v232q0 20 -0.5 52t-2 63t-5.5 49l2 8h98v-348q0 -20 0.5 -52t2 -63t5.5 -49
l-2 -8q-26 -10 -65.5 -18t-79 -13t-65.5 -5z" />
    <glyph glyph-name="v" unicode="v" horiz-adv-x="536" 
d="M204 0l-192 532v12h96l172 -498h-25l177 498h92v-12l-200 -532h-120z" />
    <glyph glyph-name="w" unicode="w" horiz-adv-x="772" 
d="M156 0l-144 532v12h92l121 -488l-20 1l151 487h60l146 -489l-20 -1l126 490h92v-12l-152 -532h-108l-127 414h22l-131 -414h-108z" />
    <glyph glyph-name="x" unicode="x" horiz-adv-x="532" 
d="M408 0l-168 232l-220 304v8h100l168 -232l220 -304v-8h-100zM28 0v8l220 296l168 240h96v-8l-220 -296l-168 -240h-96z" />
    <glyph glyph-name="y" unicode="y" horiz-adv-x="536" 
d="M132 -232v12l124 304l176 460h92v-12l-304 -764h-88zM232 -20l-220 552v12h96l177 -462z" />
    <glyph glyph-name="z" unicode="z" horiz-adv-x="520" 
d="M53 0l-8 10q-5 23 -5 38q0 32 13.5 58.5t31.5 47t31 34.5l200 212q12 13 25.5 28.5t22.5 30t7 23.5l35 -16h-354v78h399l8 -10q5 -23 5 -38q0 -32 -13.5 -58.5t-31.5 -47t-31 -34.5l-200 -212q-11 -13 -24.5 -28.5t-23 -29.5t-9.5 -24l-34 16h383v-78h-427z" />
    <glyph glyph-name="Aacute" unicode="&#xc1;" horiz-adv-x="662" 
d="M48 0l80 480q10 60 29.5 106t52.5 78t85 48t127 16q36 0 72.5 -3.5t75.5 -12.5l2 -12q-3 -20 -4.5 -50t-1.5 -60v-50v-540h-96v592q0 20 0.5 37.5t3.5 33.5l16 -29q-13 6 -31.5 8t-40.5 2q-66 0 -104.5 -18t-58 -54t-29.5 -92l-80 -480h-98zM148 220v84h362v-84h-362z
M362 780v4l91 152h116v-4l-131 -152h-76z" />
    <glyph glyph-name="Abreve" unicode="&#x102;" horiz-adv-x="662" 
d="M48 0l80 480q10 60 29.5 106t52.5 78t85 48t127 16q36 0 72.5 -3.5t75.5 -12.5l2 -12q-3 -20 -4.5 -50t-1.5 -60v-50v-540h-96v592q0 20 0.5 37.5t3.5 33.5l16 -29q-13 6 -31.5 8t-40.5 2q-66 0 -104.5 -18t-58 -54t-29.5 -92l-80 -480h-98zM148 220v84h362v-84h-362z
M377 796q-45 0 -75.5 19t-46.5 51t-16 70h64q3 -36 18.5 -58t55.5 -22q41 0 56 22t18 58h64q0 -38 -15.5 -70t-46.5 -51t-76 -19z" />
    <glyph glyph-name="Acircumflex" unicode="&#xc2;" horiz-adv-x="662" 
d="M48 0l80 480q10 60 29.5 106t52.5 78t85 48t127 16q36 0 72.5 -3.5t75.5 -12.5l2 -12q-3 -20 -4.5 -50t-1.5 -60v-50v-540h-96v592q0 20 0.5 37.5t3.5 33.5l16 -29q-13 6 -31.5 8t-40.5 2q-66 0 -104.5 -18t-58 -54t-29.5 -92l-80 -480h-98zM148 220v84h362v-84h-362z
M211 780v4l112 152h108l112 -152v-4h-76l-90 96l-90 -96h-76z" />
    <glyph glyph-name="Adieresis" unicode="&#xc4;" horiz-adv-x="662" 
d="M48 0l80 480q10 60 29.5 106t52.5 78t85 48t127 16q36 0 72.5 -3.5t75.5 -12.5l2 -12q-3 -20 -4.5 -50t-1.5 -60v-50v-540h-96v592q0 20 0.5 37.5t3.5 33.5l16 -29q-13 6 -31.5 8t-40.5 2q-66 0 -104.5 -18t-58 -54t-29.5 -92l-80 -480h-98zM148 220v84h362v-84h-362z
M475 800q-25 0 -42.5 16t-17.5 44t17.5 44t42.5 16q26 0 43 -16t17 -44t-17 -44t-43 -16zM279 800q-25 0 -42.5 16t-17.5 44t17.5 44t42.5 16q26 0 43 -16t17 -44t-17 -44t-43 -16z" />
    <glyph glyph-name="uni1EA0" unicode="&#x1ea0;" horiz-adv-x="662" 
d="M48 0l80 480q10 60 29.5 106t52.5 78t85 48t127 16q36 0 72.5 -3.5t75.5 -12.5l2 -12q-3 -20 -4.5 -50t-1.5 -60v-50v-540h-96v592q0 20 0.5 37.5t3.5 33.5l16 -29q-13 6 -31.5 8t-40.5 2q-66 0 -104.5 -18t-58 -54t-29.5 -92l-80 -480h-98zM148 220v84h362v-84h-362z
M331 -204q-25 0 -42.5 16t-17.5 44t17.5 44t42.5 16q26 0 43 -16t17 -44t-17 -44t-43 -16z" />
    <glyph glyph-name="Agrave" unicode="&#xc0;" horiz-adv-x="662" 
d="M48 0l80 480q10 60 29.5 106t52.5 78t85 48t127 16q36 0 72.5 -3.5t75.5 -12.5l2 -12q-3 -20 -4.5 -50t-1.5 -60v-50v-540h-96v592q0 20 0.5 37.5t3.5 33.5l16 -29q-13 6 -31.5 8t-40.5 2q-66 0 -104.5 -18t-58 -54t-29.5 -92l-80 -480h-98zM148 220v84h362v-84h-362z
M351 780l-131 152v4h116l91 -152v-4h-76z" />
    <glyph glyph-name="Amacron" unicode="&#x100;" horiz-adv-x="662" 
d="M48 0l80 480q10 60 29.5 106t52.5 78t85 48t127 16q36 0 72.5 -3.5t75.5 -12.5l2 -12q-3 -20 -4.5 -50t-1.5 -60v-50v-540h-96v592q0 20 0.5 37.5t3.5 33.5l16 -29q-13 6 -31.5 8t-40.5 2q-66 0 -104.5 -18t-58 -54t-29.5 -92l-80 -480h-98zM148 220v84h362v-84h-362z
M215 896h324v-76h-324v76z" />
    <glyph glyph-name="Aogonek" unicode="&#x104;" horiz-adv-x="662" 
d="M48 0l80 480q10 60 29.5 106t52.5 78t85 48t127 16q36 0 72.5 -3.5t75.5 -12.5l2 -12q-3 -20 -4.5 -50t-1.5 -60v-50v-540h-96v592q0 20 0.5 37.5t3.5 33.5l16 -29q-13 6 -31.5 8t-40.5 2q-66 0 -104.5 -18t-58 -54t-29.5 -92l-80 -480h-98zM148 220v84h362v-84h-362z
M422 -146q0 36 12.5 65t31 53t36.5 46l63 -8q-38 -46 -55.5 -79.5t-17.5 -60.5q0 -18 9 -31t28 -13q9 0 18 2t17 6h2v-64q-10 -4 -21.5 -6t-25.5 -2q-47 0 -72 25t-25 67z" />
    </font>
</defs>
</svg>
